<svg width="54" height="56" viewBox="0 0 54 56" fill="none" xmlns="http://www.w3.org/2000/svg">
<g clip-path="url(#clip0_67_1074)">
<path fill-rule="evenodd" clip-rule="evenodd" d="M26.7465 1.58221C20.44 1.58564 14.3404 3.92079 9.53815 8.17014C4.73595 12.4195 1.54438 18.3059 0.534111 24.7769C-0.476153 31.2478 0.76076 37.8814 4.0237 43.4913C7.28665 49.1013 12.3628 53.3218 18.3446 55.3983C19.6643 55.6544 20.1613 54.7993 20.1613 54.0722C20.1613 53.3452 20.1349 51.2372 20.1261 48.9325C12.736 50.6015 11.1744 45.6722 11.1744 45.6722C9.96907 42.4713 8.2271 41.6299 8.2271 41.6299C5.8165 39.9197 8.40747 39.9517 8.40747 39.9517C11.0776 40.1484 12.4809 42.8005 12.4809 42.8005C14.8475 47.0211 18.6965 45.8002 20.2097 45.0869C20.4473 43.299 21.1379 42.0826 21.8989 41.3921C15.9956 40.6971 9.79311 38.3284 9.79311 27.7472C9.75652 25.003 10.7361 22.3492 12.5292 20.3349C12.2565 19.6398 11.3459 16.8322 12.7888 13.0185C12.7888 13.0185 15.019 12.2778 20.0954 15.849C24.4495 14.6113 29.0435 14.6113 33.3977 15.849C38.4696 12.2778 40.6954 13.0185 40.6954 13.0185C42.1427 16.823 41.2321 19.6307 40.9594 20.3349C42.7582 22.3495 43.7398 25.008 43.6999 27.7563C43.6999 38.3604 37.4842 40.6971 31.5721 41.3784C32.5223 42.2381 33.3713 43.9163 33.3713 46.4953C33.3713 50.19 33.3405 53.1623 33.3405 54.0722C33.3405 54.8084 33.8199 55.6681 35.166 55.3983C41.1485 53.3216 46.2251 49.1003 49.488 43.4894C52.7509 37.8785 53.9872 31.2439 52.9758 24.7724C51.9644 18.3008 48.7712 12.4143 43.9674 8.1657C39.1636 3.91709 33.0625 1.58347 26.7553 1.58221H26.7465Z" fill="#F5F5F5"/>
<path d="M10.241 41.2321C10.1838 41.3693 9.97267 41.4104 9.80111 41.3144C9.62956 41.2184 9.502 41.04 9.56358 40.8983C9.62517 40.7565 9.83192 40.72 10.0035 40.816C10.175 40.912 10.307 41.0949 10.241 41.2321Z" fill="#F5F5F5"/>
<path d="M11.3176 42.4804C11.2265 42.5281 11.1223 42.5414 11.0228 42.518C10.9233 42.4947 10.8347 42.4361 10.7721 42.3523C10.6006 42.1603 10.5654 41.8951 10.6973 41.7762C10.8293 41.6573 11.0669 41.7122 11.2384 41.9042C11.41 42.0963 11.4496 42.3615 11.3176 42.4804Z" fill="#F5F5F5"/>
<path d="M12.3657 44.0672C12.2029 44.186 11.9258 44.0672 11.7718 43.8294C11.7293 43.7867 11.6954 43.7356 11.6723 43.679C11.6491 43.6224 11.6372 43.5616 11.6372 43.5002C11.6372 43.4387 11.6491 43.3778 11.6723 43.3213C11.6954 43.2647 11.7293 43.2136 11.7718 43.1709C11.9346 43.0566 12.2117 43.1709 12.3657 43.4041C12.5197 43.6373 12.5241 43.9483 12.3657 44.0672Z" fill="#F5F5F5"/>
<path d="M13.7853 45.6035C13.6402 45.7727 13.3455 45.727 13.1035 45.4983C12.8616 45.2697 12.8044 44.9587 12.9495 44.7941C13.0947 44.6295 13.3894 44.6752 13.6402 44.8993C13.8909 45.1234 13.9393 45.4389 13.7853 45.6035Z" fill="#F5F5F5"/>
<path d="M15.778 46.4997C15.712 46.7146 15.4129 46.8106 15.1138 46.7192C14.8147 46.6277 14.6167 46.3717 14.6739 46.1522C14.7311 45.9327 15.0346 45.8321 15.3381 45.9327C15.6417 46.0333 15.8352 46.2756 15.778 46.4997Z" fill="#F5F5F5"/>
<path d="M17.9523 46.6553C17.9523 46.8794 17.706 47.0714 17.3892 47.076C17.0725 47.0806 16.813 46.8976 16.813 46.6736C16.813 46.4495 17.0593 46.2575 17.376 46.2529C17.6928 46.2483 17.9523 46.4267 17.9523 46.6553Z" fill="#F5F5F5"/>
<path d="M19.9748 46.3032C20.0144 46.5272 19.7945 46.7604 19.4777 46.8153C19.161 46.8702 18.8839 46.7376 18.8443 46.5181C18.8047 46.2986 19.0335 46.0608 19.3414 46.0014C19.6493 45.9419 19.9352 46.0791 19.9748 46.3032Z" fill="#F5F5F5"/>
</g>
<defs>
<clipPath id="clip0_67_1074">
<rect width="53.13" height="55.545" fill="white" transform="translate(0.180176 0.424988)"/>
</clipPath>
</defs>
</svg>
