<svg width="54" height="54" viewBox="0 0 54 54" fill="none" xmlns="http://www.w3.org/2000/svg">
<g clip-path="url(#clip0_67_1071)">
<path d="M50.0223 0.840027H4.74768C2.5789 0.840027 0.825195 2.55222 0.825195 4.66912V50.1306C0.825195 52.2474 2.5789 53.97 4.74768 53.97H50.0223C52.1911 53.97 53.9552 52.2475 53.9552 50.1409V4.66912C53.9552 2.55222 52.1911 0.840027 50.0223 0.840027ZM16.5878 46.1147H8.7013V20.7534H16.5878V46.1147ZM12.6445 17.2979C10.1126 17.2979 8.06831 15.2536 8.06831 12.732C8.06831 10.2104 10.1126 8.16615 12.6445 8.16615C15.1661 8.16615 17.2104 10.2104 17.2104 12.732C17.2104 15.2432 15.1661 17.2979 12.6445 17.2979ZM46.0998 46.1147H38.2237V33.7869C38.2237 30.8502 38.1718 27.0626 34.1248 27.0626C30.0259 27.0626 29.4033 30.2691 29.4033 33.5793V46.1147H21.5376V20.7534H29.092V24.2193H29.1958C30.2439 22.2269 32.8173 20.1204 36.6464 20.1204C44.6263 20.1204 46.0998 25.3711 46.0998 32.1992V46.1147V46.1147Z" fill="#F5F5F5"/>
</g>
<defs>
<clipPath id="clip0_67_1071">
<rect width="53.13" height="53.13" fill="white" transform="translate(0.825195 0.840027)"/>
</clipPath>
</defs>
</svg>
