<svg width="409" height="176" viewBox="0 0 409 176" fill="none" xmlns="http://www.w3.org/2000/svg">
<g opacity="0.8">
<path d="M197.958 49.4849L155.93 148.824H322.513L303.41 60.1829L231.58 38.7869L197.958 49.4849Z" fill="#7E3A3A"/>
<path d="M283.546 49.4849L241.518 148.824H408.101L388.997 60.1829L317.168 38.7869L283.546 49.4849Z" fill="#7E3A3A"/>
<path d="M60.467 77.6364L18.6426 148.385H184.419L165.408 85.2554L93.9266 70.0173L60.467 77.6364Z" fill="#7E3A3A"/>
<path d="M285.834 102.974L244.571 148.823H151.345H137.59H121.543L74.9307 112.144L92.506 55.5973L151.345 13.5693L187.26 17.3901L217.826 83.8706L259.854 67.0594L285.834 102.974Z" fill="#995353"/>
<path d="M291.183 94.569L262.146 111.38L316.4 141.182L324.805 137.361L330.154 135.069L333.975 139.654L335.503 145.003L336.267 147.295L352.315 148.059L345.437 147.295L340.852 145.767L338.56 145.003L337.796 136.597L335.503 132.012L327.862 130.484L322.513 133.54L314.107 130.484L301.881 119.022L314.107 108.324L326.334 106.795L338.56 109.852L350.786 123.607L359.956 128.191L367.597 125.899L369.89 122.078V116.729L367.597 115.201L363.777 115.965L366.833 116.729V120.55L360.72 122.078L355.371 119.022L345.437 104.503L311.051 92.2766L291.183 94.569Z" fill="#222831"/>
<path d="M132.011 96.4189L161.049 113.23L106.795 143.032L98.389 139.211L93.04 136.919L89.2193 141.503L87.9681 145.367L84.954 148.381L77.7571 149.195L70.8798 149.909L77.7571 147.793L81.9398 145.367L84.954 142.352L85.3986 138.447L87.691 133.862L95.3324 132.334L100.681 135.39L109.087 132.334L121.313 120.872L109.087 110.173L96.8607 108.645L84.954 113.718L67.8232 128.789L54.8127 130.296L48.7845 143.032L39.7421 149.909L46.509 141.503L48.7845 133.862V127.749L53.3057 124.268L56.3611 122.4L62.348 123.928L68.3763 119.747L77.7571 106.353L112.144 94.1265L132.011 96.4189Z" fill="#222831"/>
<path d="M192.478 108.389L159.363 113.797L155.783 108.389L158.797 100.159L198.255 95.6378L209.296 83.2188L217.572 76.046L220.587 65.4966L221.596 42.6623L230.702 33.2485L227.29 19.5775L229.923 8.52628L230.019 19.3168L233.103 26.6689L236.979 31.3966L235.689 36.955L234.511 40.3366L228.912 42.9503L226.901 50.0059L228.137 66.3112L209.296 97.5666L192.478 108.389Z" fill="#222831"/>
<path d="M243.043 49.8806L291.284 11.1082L287.824 53.5322L243.043 49.8806Z" fill="#B34C4C"/>
<path d="M193.195 63.6466L217.372 24.2682L225.597 54.9646L193.195 63.6466Z" fill="#B34C4C"/>
<path d="M279.482 133.037L299.756 64.8023L324.234 107.199L279.482 133.037Z" fill="#B34C4C"/>
<path d="M252.24 139.879L272.514 71.6444L296.992 114.041L252.24 139.879Z" fill="#B34C4C"/>
<path d="M289.159 80.4768L280.101 42.6072L303.293 55.9969L289.159 80.4768Z" fill="#B34C4C"/>
<path d="M272.157 51.0272L267.95 33.4371L278.722 39.6565L272.157 51.0272Z" fill="#FFF8B8"/>
<path d="M261.65 88.1181L252.592 50.2486L275.783 63.6382L261.65 88.1181Z" fill="#B34C4C"/>
<path d="M229.557 71.3071L220.499 33.4375L243.69 46.8272L229.557 71.3071Z" fill="#B34C4C"/>
<path d="M231.982 66.1774L243.073 28.8523L256.462 52.0439L231.982 66.1774Z" fill="#B34C4C"/>
<path d="M291.95 147.33L320.217 120.55V147.33H291.95Z" fill="#B34C4C"/>
<path d="M241.518 107.517L303.172 125.836L264.864 147.954L241.518 107.517Z" fill="#B34C4C"/>
<path d="M326.889 43.1164L375.13 4.34402L371.67 46.7681L326.889 43.1164Z" fill="#B34C4C"/>
<path d="M277.041 56.8825L301.217 17.504L309.442 48.2004L277.041 56.8825Z" fill="#B34C4C"/>
<path d="M363.328 126.273L383.602 58.0382L408.08 100.435L363.328 126.273Z" fill="#B34C4C"/>
<path d="M336.085 133.115L356.36 64.8802L380.838 107.277L336.085 133.115Z" fill="#B34C4C"/>
<path d="M373.006 73.7126L363.948 35.8431L387.139 49.2327L373.006 73.7126Z" fill="#B34C4C"/>
<path d="M356.004 44.2631L351.796 26.673L362.569 32.8924L356.004 44.2631Z" fill="#FFF8B8"/>
<path d="M345.496 81.354L336.438 43.4844L359.63 56.874L345.496 81.354Z" fill="#B34C4C"/>
<path d="M313.403 64.5429L304.345 26.6734L327.537 40.063L313.403 64.5429Z" fill="#B34C4C"/>
<path d="M315.828 59.4132L326.918 22.0882L340.308 45.2797L315.828 59.4132Z" fill="#B34C4C"/>
<path d="M375.796 140.565L404.063 113.786V140.565H375.796Z" fill="#B34C4C"/>
<path d="M318.55 110.22L380.205 128.539L341.896 150.656L318.55 110.22Z" fill="#B34C4C"/>
<path d="M48.033 123.407L16.7716 69.992L58.2265 79.649L48.033 123.407Z" fill="#B34C4C"/>
<path d="M135.643 99.5854L71.1284 69.5026L116.663 51.5216L135.643 99.5854Z" fill="#B34C4C"/>
<path d="M138.406 127.539L73.8921 97.4559L119.426 79.4749L138.406 127.539Z" fill="#B34C4C"/>
<path d="M85.0765 82.2885L46.2869 85.6824L62.9396 64.7106L85.0765 82.2885Z" fill="#B34C4C"/>
<path d="M53.4469 94.7795L35.4295 96.356L43.1646 86.6148L53.4469 94.7795Z" fill="#FFF8B8"/>
<path d="M88.5902 110.622L49.8006 114.016L66.4533 93.0446L88.5902 110.622Z" fill="#B34C4C"/>
<path d="M67.2445 139.897L28.4549 143.291L45.1076 122.319L67.2445 139.897Z" fill="#B34C4C"/>
<path d="M62.5277 136.745L27.2379 120.29L52.1455 110.454L62.5277 136.745Z" fill="#B34C4C"/>
<path d="M151.612 89.355L129.278 57.4591L155.767 61.3949L151.612 89.355Z" fill="#B34C4C"/>
<path d="M113.181 141.52L140.363 83.2268L156.61 124.37L113.181 141.52Z" fill="#B34C4C"/>
<path d="M87.1582 148.805L157.314 82.3425V148.805H87.1582Z" fill="#D66C6C"/>
<path d="M44.3657 96.0065L167.813 29.4061L142.675 122.541L44.3657 96.0065Z" fill="#D66C6C"/>
<path d="M139.12 78.3257L212.051 137.951L147.786 146.161L139.12 78.3257Z" fill="#D66C6C"/>
<path d="M187.015 73.1731L244.864 147.52L180.382 141.237L187.015 73.1731Z" fill="#D66C6C"/>
<path d="M160.968 50.2482L191.557 89.5602L157.461 86.2379L160.968 50.2482Z" fill="#D66C6C"/>
<path d="M105.948 44.1355L136.537 83.4474L102.442 80.1251L105.948 44.1355Z" fill="#FFF8B8"/>
<path d="M163.573 18.1499L185.502 31.6132L168.408 36.1936L163.573 18.1499Z" fill="#FFF8B8"/>
<path d="M145.235 112.904L167.164 126.367L150.07 130.948L145.235 112.904Z" fill="#FFF8B8"/>
<path d="M201.623 124.55L214.539 132.48L204.471 135.178L201.623 124.55Z" fill="#FFF8B8"/>
<path d="M223.626 64.0031L254.215 103.315L220.119 99.9928L223.626 64.0031Z" fill="#D66C6C"/>
<path d="M237.973 70.4527L285.721 84.6398L256.053 101.768L237.973 70.4527Z" fill="#D66C6C"/>
<path d="M339.62 36.5532L348.223 85.6153L319.659 66.7043L339.62 36.5532Z" fill="#D66C6C"/>
<path d="M287.96 124.431L327.54 94.1898L323.917 128.255L287.96 124.431Z" fill="#D66C6C"/>
<path d="M356.216 102.217L403.964 116.404L374.296 133.533L356.216 102.217Z" fill="#D66C6C"/>
<path d="M258.327 100.997L286.293 94.308L276.405 111.434L258.327 100.997Z" fill="#D66C6C"/>
<path d="M223.175 130.528L266.919 120.065L251.452 146.854L223.175 130.528Z" fill="#D66C6C"/>
<path d="M229.695 81.215L257.213 128.566L220.556 119.908L229.695 81.215Z" fill="#D66C6C"/>
<path d="M201.75 45.6637L229.268 93.0144L192.611 84.3568L201.75 45.6637Z" fill="#D66C6C"/>
<path d="M88.6549 88.4559L116.173 135.807L79.5163 127.149L88.6549 88.4559Z" fill="#D66C6C"/>
<path d="M164.831 23.9757L114.668 45.9534L127.422 10.5132L164.831 23.9757Z" fill="#D66C6C"/>
<path d="M114.397 63.711L64.2346 85.6887L76.9884 50.2486L114.397 63.711Z" fill="#D66C6C"/>
<path d="M85.6296 32.9692L147.498 34.6413L117.4 64.7392L85.6296 32.9692Z" fill="#D66C6C"/>
<path d="M151.346 54.4651L199.587 15.6927L196.127 58.1167L151.346 54.4651Z" fill="#D66C6C"/>
<path d="M152.558 34.8584L141.458 0.68888L163.768 11.3086L152.558 34.8584Z" fill="#D66C6C"/>
</g>
</svg>
