<svg width="108" height="50" viewBox="0 0 108 50" fill="none" xmlns="http://www.w3.org/2000/svg">
<path d="M50.9573 16.1891L37.0137 49.1468H92.2813L85.9432 19.7384L62.1123 12.6398L50.9573 16.1891Z" fill="#7E3A3A"/>
<path d="M80.1125 33.9355L66.4223 49.1468H35.4927H30.9294H25.6054L10.1406 36.9778L15.9716 18.2172L35.4927 4.27356L47.4082 5.54117L57.5491 27.5975L71.4927 22.02L80.1125 33.9355Z" fill="#995353"/>
<path d="M81.8877 31.1468L72.2539 36.7243L90.2539 46.6116L93.0426 45.344L94.8173 44.5834L96.0849 46.1045L96.5919 47.8792L96.8455 48.6398L102.169 48.8933L99.8877 48.6398L98.3666 48.1327L97.606 47.8792L97.3525 45.0905L96.5919 43.5693L94.0567 43.0623L92.2821 44.0764L89.4933 43.0623L85.437 39.2595L89.4933 35.7102L93.5497 35.2031L97.606 36.2172L101.662 40.7806L104.705 42.3017L107.24 41.5412L108 40.2736V38.4989L107.24 37.9919L105.972 38.2454L106.986 38.4989V39.7665L104.958 40.2736L103.183 39.2595L99.8877 34.4426L88.4793 30.3862L81.8877 31.1468Z" fill="#222831"/>
<path d="M65.9157 16.3204L81.9205 3.45687L80.7728 17.532L65.9157 16.3204Z" fill="#B34C4C"/>
<path d="M49.3773 20.8874L57.3984 7.8228L60.1273 18.007L49.3773 20.8874Z" fill="#B34C4C"/>
<path d="M78.0049 43.9093L84.7314 21.2709L92.8524 35.337L78.0049 43.9093Z" fill="#B34C4C"/>
<path d="M68.9668 46.1795L75.6933 23.5412L83.8143 37.6073L68.9668 46.1795Z" fill="#B34C4C"/>
<path d="M81.2158 26.4713L78.2106 13.9073L85.9049 18.3496L81.2158 26.4713Z" fill="#B34C4C"/>
<path d="M75.5749 16.701L74.179 10.8651L77.7529 12.9285L75.5749 16.701Z" fill="#FFF8B8"/>
<path d="M72.0888 29.0065L69.0836 16.4425L76.7779 20.8848L72.0888 29.0065Z" fill="#B34C4C"/>
<path d="M61.4414 23.4291L58.4362 10.8651L66.1304 15.3074L61.4414 23.4291Z" fill="#B34C4C"/>
<path d="M62.246 21.7274L65.9255 9.34399L70.3677 17.0383L62.246 21.7274Z" fill="#B34C4C"/>
<path d="M82.1416 48.6511L91.5198 39.7665V48.6511H82.1416Z" fill="#B34C4C"/>
<path d="M65.4094 35.4424L85.8648 41.5203L73.155 48.8582L65.4094 35.4424Z" fill="#B34C4C"/>
<path d="M14.1973 49.1408L37.4728 27.0903V49.1408H14.1973Z" fill="#D66C6C"/>
<path d="M-0.000288357 31.6238L40.9561 9.52772L32.6159 40.4273L-0.000288357 31.6238Z" fill="#D66C6C"/>
<path d="M31.4367 25.7578L55.6329 45.5397L34.3117 48.2635L31.4367 25.7578Z" fill="#D66C6C"/>
<path d="M47.3266 24.0481L66.5193 48.7143L45.1262 46.6297L47.3266 24.0481Z" fill="#D66C6C"/>
<path d="M38.6852 16.4424L48.8336 29.485L37.5217 28.3828L38.6852 16.4424Z" fill="#D66C6C"/>
<path d="M20.4313 14.4144L30.5797 27.4569L19.2678 26.3547L20.4313 14.4144Z" fill="#FFF8B8"/>
<path d="M39.5494 5.79306L46.8247 10.2598L41.1534 11.7794L39.5494 5.79306Z" fill="#FFF8B8"/>
<path d="M33.4654 37.2297L40.7408 41.6965L35.0695 43.2161L33.4654 37.2297Z" fill="#FFF8B8"/>
<path d="M52.1732 41.0937L56.4585 43.7247L53.118 44.6198L52.1732 41.0937Z" fill="#FFF8B8"/>
<path d="M59.4733 21.0059L69.6217 34.0485L58.3098 32.9462L59.4733 21.0059Z" fill="#D66C6C"/>
<path d="M64.2334 23.1456L80.0746 27.8525L70.2318 33.5352L64.2334 23.1456Z" fill="#D66C6C"/>
<path d="M70.9861 33.2794L80.2643 31.0602L76.9838 36.7422L70.9861 33.2794Z" fill="#D66C6C"/>
<path d="M59.3236 43.0769L73.8368 39.6055L68.7054 48.4935L59.3236 43.0769Z" fill="#D66C6C"/>
<path d="M61.4868 26.7162L70.6165 42.4258L58.4549 39.5534L61.4868 26.7162Z" fill="#D66C6C"/>
<path d="M52.2153 14.9214L61.345 30.631L49.1834 27.7586L52.2153 14.9214Z" fill="#D66C6C"/>
<path d="M14.6939 29.1186L23.8236 44.8282L11.6619 41.9559L14.6939 29.1186Z" fill="#D66C6C"/>
<path d="M39.9667 7.72588L23.3241 15.0174L27.5555 3.25943L39.9667 7.72588Z" fill="#D66C6C"/>
<path d="M23.2343 20.909L6.59169 28.2005L10.8231 16.4425L23.2343 20.909Z" fill="#D66C6C"/>
<path d="M13.6902 10.7099L34.2162 11.2646L24.2305 21.2502L13.6902 10.7099Z" fill="#D66C6C"/>
<path d="M35.4929 17.8416L51.4977 4.97799L50.3499 19.0531L35.4929 17.8416Z" fill="#D66C6C"/>
<path d="M35.8951 11.3364L32.2122 -6.82397e-05L39.6142 3.52324L35.8951 11.3364Z" fill="#D66C6C"/>
</svg>
