<svg width="668" height="622" viewBox="0 0 668 622" fill="none" xmlns="http://www.w3.org/2000/svg">
<g opacity="0.8">
<path d="M362.678 299.521L413.675 301.24L389.597 325.854L362.678 299.521Z" fill="#FFF8B8"/>
<path d="M188.353 507.962L209.794 447.368L240.06 416.035L215.387 373.722H234.031L263.862 391.395L342.169 310.331L314.202 278.635H326.139L358.949 304.976L403.696 259.059H413.018L385.983 296.348L326.139 391.395H457.764L429.798 416.035L295.592 439.91L290.897 447.368L287.168 492.114L330.05 538.472L434.459 610.506L495.986 621.693H188.353L240.06 602.116L188.353 507.962Z" fill="#222831"/>
<path d="M421.408 356.942L374.797 401.689L368.271 420.333L453.104 443.639L633.955 420.333L611.581 382.112L569.631 312.196L482.935 304.738L444.714 363.468L421.408 356.942Z" fill="#995353"/>
<path d="M331.915 281.432H386.916H591.072V247.872L513.698 184.481L442.849 194.736L431.662 169.566L364.542 163.972L307.677 220.838L331.915 281.432Z" fill="#995353"/>
<path d="M356.151 288.89H329.117H151.063L110.045 185.414L137.079 139.735L179.029 144.396L201.403 118.294L299.286 112.7L395.305 149.989L413.017 232.957L356.151 288.89Z" fill="#995353"/>
<path d="M293.693 383.044H225.641H18.6878L0.975586 365.332L55.0444 319.653L132.419 262.788L179.962 181.685L288.1 207.787L320.727 274.907V329.908L293.693 383.044Z" fill="#995353"/>
<path d="M246.227 138.551L382.952 222.958L274.899 250.606L246.227 138.551Z" fill="#C55B5B"/>
<path d="M215.568 179.091L293.259 247.795L221.496 253.511L215.568 179.091Z" fill="#C55B5B"/>
<path d="M204.603 140.73L119.914 200.595L130.807 129.434L204.603 140.73Z" fill="#C55B5B"/>
<path d="M169.117 142.609L227.803 228.119L156.8 216.242L169.117 142.609Z" fill="#C55B5B"/>
<path d="M275.001 162.45L178.308 199.954L206.157 133.569L275.001 162.45Z" fill="#C55B5B"/>
<path d="M347.086 122.442L227.13 168.969L261.68 86.613L347.086 122.442Z" fill="#C55B5B"/>
<path d="M290.773 116.598L376.102 212.894L286.872 209.133L290.773 116.598Z" fill="#C55B5B"/>
<path d="M275.079 240.229L403.169 228.1L347.513 297.947L275.079 240.229Z" fill="#C55B5B"/>
<path d="M388.909 250.79L334.488 134.203L418.964 163.186L388.909 250.79Z" fill="#C55B5B"/>
<path d="M386.868 174.445L285.425 95.3029L373.847 82.7473L386.868 174.445Z" fill="#C55B5B"/>
<path d="M239.639 147.171L193.828 111.431L233.759 105.761L239.639 147.171Z" fill="#C55B5B"/>
<path d="M317.147 100.358L271.336 64.6178L311.267 58.9478L317.147 100.358Z" fill="#C55B5B"/>
<path d="M457.539 207.872L574.618 228.297L508.001 276.957L457.539 207.872Z" fill="#CC7777"/>
<path d="M447.615 244.133L519.838 269.985L472.122 293.617L447.615 244.133Z" fill="#CC7777"/>
<path d="M429.55 220.799L387.826 285.17L375.765 233.306L429.55 220.799Z" fill="#CC7777"/>
<path d="M405.695 231.834L469.482 274.445L417.456 285.786L405.695 231.834Z" fill="#CC7777"/>
<path d="M483.863 216.384L427.754 268.694L428.651 215.454L483.863 216.384Z" fill="#CC7777"/>
<path d="M522.385 169.113L452.777 234.008L453.89 167.959L522.385 169.113Z" fill="#CC7777"/>
<path d="M482.105 180.562L567.151 223.266L504.836 245.186L482.105 180.562Z" fill="#CC7777"/>
<path d="M505.276 269.781L589.916 226.277L570.872 289.53L505.276 269.781Z" fill="#CC7777"/>
<path d="M586.353 245.776L516.962 180.65L582.938 177.357L586.353 245.776Z" fill="#CC7777"/>
<path d="M563.986 193.903L472.583 167.406L529.863 134.502L563.986 193.903Z" fill="#CC7777"/>
<path d="M455.382 215.601L414.105 203.635L439.972 188.776L455.382 215.601Z" fill="#FFF8B8"/>
<path d="M495.759 162.167L454.482 150.201L480.349 135.341L495.759 162.167Z" fill="#CC7777"/>
<path d="M129.622 276.525L305.973 301.267L208.64 377.463L129.622 276.525Z" fill="#D66C6C"/>
<path d="M116.571 331.323L226.018 366.431L155.741 404.202L116.571 331.323Z" fill="#D66C6C"/>
<path d="M88.3532 297.28L29.0829 395.76L8.43315 318.694L88.3532 297.28Z" fill="#D66C6C"/>
<path d="M53.1801 314.996L150.83 375.625L73.4859 395.205L53.1801 314.996Z" fill="#D66C6C"/>
<path d="M169.468 287.958L88.0541 369.094L86.74 289.32L169.468 287.958Z" fill="#D66C6C"/>
<path d="M224.796 215.245L123.795 315.901L122.164 216.935L224.796 215.245Z" fill="#D66C6C"/>
<path d="M165.047 234.401L294.539 294.105L202.314 330.042L165.047 234.401Z" fill="#D66C6C"/>
<path d="M212.176 386.292L293.716 269.313L312.879 366.42L212.176 386.292Z" fill="#D66C6C"/>
<path d="M324.417 326.857L217.251 232.792L315.888 224.567L324.417 326.857Z" fill="#D66C6C"/>
<path d="M288.332 250.293L150.131 215.175L234.267 163.041L288.332 250.293Z" fill="#D66C6C"/>
<path d="M126.776 288.207L64.3657 272.348L102.361 248.804L126.776 288.207Z" fill="#FFF8B8"/>
<path d="M184.575 206.172L122.165 190.313L160.16 166.769L184.575 206.172Z" fill="#D66C6C"/>
<path d="M446.547 346.163L590.295 366.331L510.957 428.441L446.547 346.163Z" fill="#D66C6C"/>
<path d="M435.908 390.831L525.123 419.449L467.838 450.237L435.908 390.831Z" fill="#D66C6C"/>
<path d="M412.907 363.081L364.594 443.356L347.762 380.537L412.907 363.081Z" fill="#D66C6C"/>
<path d="M384.236 377.523L463.834 426.943L400.788 442.904L384.236 377.523Z" fill="#D66C6C"/>
<path d="M479.026 355.483L412.662 421.62L411.591 356.594L479.026 355.483Z" fill="#D66C6C"/>
<path d="M524.125 296.212L441.796 378.26L440.468 297.59L524.125 296.212Z" fill="#D66C6C"/>
<path d="M475.422 311.827L580.975 360.494L505.8 389.786L475.422 311.827Z" fill="#D66C6C"/>
<path d="M507.337 419.793L608.886 363.244L588.213 441.231L507.337 419.793Z" fill="#D66C6C"/>
<path d="M605.33 387.191L517.975 310.515L598.377 303.811L605.33 387.191Z" fill="#D66C6C"/>
<path d="M575.916 324.78L463.264 296.155L531.845 253.659L575.916 324.78Z" fill="#D66C6C"/>
<path d="M444.227 355.686L393.354 342.759L424.325 323.568L444.227 355.686Z" fill="#D66C6C"/>
<path d="M491.34 288.816L440.467 275.889L471.438 256.698L491.34 288.816Z" fill="#D66C6C"/>
<path d="M483.464 335.122L631.394 266.819L594.247 373.645L483.464 335.122Z" fill="#D66C6C"/>
<path d="M667.799 437.895L541.035 335.526L653.263 321.51L667.799 437.895Z" fill="#D66C6C"/>
<path d="M519.29 394.607L570.287 396.326L546.209 420.94L519.29 394.607Z" fill="#FFF8B8"/>
<path d="M263.658 248.648L292.691 206.687L300.367 240.252L263.658 248.648Z" fill="#FFF8B8"/>
<path d="M194.461 353.543L214.039 325.247L219.215 347.881L194.461 353.543Z" fill="#FFF8B8"/>
<path d="M563.898 154.636L541.904 181.097L538.741 158.095L563.898 154.636Z" fill="#FFF8B8"/>
</g>
</svg>
