<svg width="825" height="843" viewBox="0 0 825 843" fill="none" xmlns="http://www.w3.org/2000/svg">
<path d="M407.332 440.565L348.536 442.712L376.297 473.445L407.332 440.565Z" fill="#FFF8B8"/>
<path d="M608.318 700.828L583.598 625.169L548.702 586.047L577.149 533.214H555.653L521.259 555.281L430.976 454.063L463.22 414.488H449.458L411.63 447.376L360.04 390.044H349.292L380.461 436.603L449.458 555.281H297.702L329.946 586.047L484.676 615.857L490.09 625.169L494.389 681.041L444.949 738.924L324.572 828.867L253.635 842.835H608.318L548.702 818.391L608.318 700.828Z" fill="#222831"/>
<path d="M339.619 512.263L393.359 568.134L400.883 591.414L303.076 620.513L94.5658 591.414L120.361 543.69L168.727 456.391L268.683 447.079L312.75 520.41L339.619 512.263Z" fill="#995353"/>
<path d="M442.799 417.98H379.386H144.006V376.076L233.214 296.925L314.899 309.729L327.796 278.302L405.182 271.318L470.744 342.321L442.799 417.98Z" fill="#995353"/>
<path d="M414.856 427.292H446.025H651.311L698.602 298.089L667.433 241.054L619.067 246.874L593.272 214.282L480.418 207.298L369.714 253.858L349.293 357.453L414.856 427.292Z" fill="#995353"/>
<path d="M486.867 544.854H565.327H803.932L824.353 522.738L762.015 465.703L672.807 394.7L617.992 293.433L493.316 326.024L455.698 409.832V478.507L486.867 544.854Z" fill="#995353"/>
<path d="M541.592 239.576L383.956 344.968L508.535 379.489L541.592 239.576Z" fill="#C55B5B"/>
<path d="M576.94 290.195L487.368 375.981L570.106 383.118L576.94 290.195Z" fill="#C55B5B"/>
<path d="M589.583 242.296L687.225 317.045L674.667 228.192L589.583 242.296Z" fill="#C55B5B"/>
<path d="M630.496 244.643L562.833 351.412L644.696 336.583L630.496 244.643Z" fill="#C55B5B"/>
<path d="M508.418 269.416L619.899 316.244L587.791 233.355L508.418 269.416Z" fill="#C55B5B"/>
<path d="M425.308 219.463L563.61 277.557L523.777 174.726L425.308 219.463Z" fill="#C55B5B"/>
<path d="M490.233 212.165L391.853 332.402L494.73 327.705L490.233 212.165Z" fill="#C55B5B"/>
<path d="M508.327 366.534L360.647 351.389L424.816 438.601L508.327 366.534Z" fill="#C55B5B"/>
<path d="M377.089 379.72L439.832 234.147L342.437 270.335L377.089 379.72Z" fill="#C55B5B"/>
<path d="M379.443 284.394L496.401 185.576L394.455 169.899L379.443 284.394Z" fill="#C55B5B"/>
<path d="M549.188 250.339L602.005 205.714L555.967 198.634L549.188 250.339Z" fill="#C55B5B"/>
<path d="M459.826 191.887L512.644 147.262L466.606 140.182L459.826 191.887Z" fill="#C55B5B"/>
<path d="M297.962 326.131L162.976 351.634L239.782 412.392L297.962 326.131Z" fill="#CC7777"/>
<path d="M309.405 371.408L226.135 403.687L281.149 433.194L309.405 371.408Z" fill="#CC7777"/>
<path d="M330.232 342.272L378.338 422.646L392.243 357.888L330.232 342.272Z" fill="#CC7777"/>
<path d="M357.736 356.05L284.194 409.256L344.176 423.416L357.736 356.05Z" fill="#CC7777"/>
<path d="M267.613 336.76L332.304 402.074L331.269 335.598L267.613 336.76Z" fill="#CC7777"/>
<path d="M223.2 277.736L303.453 358.764L302.17 276.295L223.2 277.736Z" fill="#CC7777"/>
<path d="M269.64 292.032L171.586 345.352L243.432 372.721L269.64 292.032Z" fill="#CC7777"/>
<path d="M242.925 403.432L145.34 349.112L167.297 428.091L242.925 403.432Z" fill="#CC7777"/>
<path d="M149.448 373.459L229.452 292.14L153.385 288.029L149.448 373.459Z" fill="#CC7777"/>
<path d="M175.236 308.69L280.617 275.605L214.577 234.52L175.236 308.69Z" fill="#CC7777"/>
<path d="M300.45 335.782L348.04 320.841L318.216 302.287L300.45 335.782Z" fill="#FFF8B8"/>
<path d="M253.899 269.063L301.489 254.122L271.665 235.568L253.899 269.063Z" fill="#CC7777"/>
<path d="M676.031 411.852L472.709 442.746L584.928 537.885L676.031 411.852Z" fill="#D66C6C"/>
<path d="M691.078 480.274L564.892 524.111L645.917 571.273L691.078 480.274Z" fill="#D66C6C"/>
<path d="M723.611 437.768L791.946 560.732L815.754 464.506L723.611 437.768Z" fill="#D66C6C"/>
<path d="M764.165 459.889L651.58 535.59L740.754 560.039L764.165 459.889Z" fill="#D66C6C"/>
<path d="M630.091 426.128L723.957 527.436L725.472 427.83L630.091 426.128Z" fill="#D66C6C"/>
<path d="M566.302 335.337L682.75 461.018L684.63 337.448L566.302 335.337Z" fill="#D66C6C"/>
<path d="M635.189 359.256L485.892 433.804L592.222 478.675L635.189 359.256Z" fill="#D66C6C"/>
<path d="M580.852 548.91L486.841 402.848L464.747 524.097L580.852 548.91Z" fill="#D66C6C"/>
<path d="M451.445 474.698L575.001 357.246L461.278 346.977L451.445 474.698Z" fill="#D66C6C"/>
<path d="M493.048 379.098L652.386 335.25L555.382 270.154L493.048 379.098Z" fill="#D66C6C"/>
<path d="M679.311 426.439L751.267 406.637L707.461 377.24L679.311 426.439Z" fill="#FFF8B8"/>
<path d="M612.674 324.008L684.63 304.206L640.824 274.81L612.674 324.008Z" fill="#D66C6C"/>
<path d="M310.635 498.803L144.901 523.986L236.374 601.536L310.635 498.803Z" fill="#D66C6C"/>
<path d="M322.901 554.576L220.042 590.309L286.089 628.752L322.901 554.576Z" fill="#D66C6C"/>
<path d="M349.42 519.928L405.122 620.16L424.529 541.724L349.42 519.928Z" fill="#D66C6C"/>
<path d="M382.476 537.96L290.705 599.666L363.393 619.595L382.476 537.96Z" fill="#D66C6C"/>
<path d="M273.188 510.44L349.701 593.02L350.936 511.827L273.188 510.44Z" fill="#D66C6C"/>
<path d="M221.191 436.434L316.112 538.881L317.644 438.155L221.191 436.434Z" fill="#D66C6C"/>
<path d="M277.344 455.931L155.647 516.697L242.32 553.273L277.344 455.931Z" fill="#D66C6C"/>
<path d="M240.548 590.738L123.469 520.13L147.303 617.506L240.548 590.738Z" fill="#D66C6C"/>
<path d="M127.568 550.031L228.282 454.292L135.584 445.922L127.568 550.031Z" fill="#D66C6C"/>
<path d="M161.481 472.105L291.362 436.363L212.291 383.301L161.481 472.105Z" fill="#D66C6C"/>
<path d="M313.308 510.694L371.962 494.553L336.254 470.591L313.308 510.694Z" fill="#D66C6C"/>
<path d="M258.991 427.199L317.644 411.059L281.937 387.096L258.991 427.199Z" fill="#D66C6C"/>
<path d="M268.071 485.018L97.5167 399.733L140.345 533.118L268.071 485.018Z" fill="#D66C6C"/>
<path d="M55.5449 613.341L201.697 485.522L72.3035 468.021L55.5449 613.341Z" fill="#D66C6C"/>
<path d="M226.765 559.291L167.969 561.438L195.729 592.171L226.765 559.291Z" fill="#FFF8B8"/>
<path d="M521.495 377.044L488.022 324.651L479.172 366.561L521.495 377.044Z" fill="#FFF8B8"/>
<path d="M601.275 508.018L578.703 472.687L572.735 500.949L601.275 508.018Z" fill="#FFF8B8"/>
<path d="M175.337 259.659L200.694 292.699L204.341 263.978L175.337 259.659Z" fill="#FFF8B8"/>
<path d="M51.275 107.546L202.127 41.1704L162.217 148.716L51.275 107.546Z" fill="#D26A6A"/>
<path d="M169.896 163.164L209.088 146.15L199.537 173.511L169.896 163.164Z" fill="#F05454"/>
<path d="M61.3279 244.309L103.272 252.443L79.9207 269.606L61.3279 244.309Z" fill="#F05454"/>
<path d="M16.961 97.0173L57.7321 23.9267L74.6931 79.3495L16.961 97.0173Z" fill="#C04F4F"/>
<path d="M47.8739 186.984L108.928 170.63L88.215 208.848L47.8739 186.984Z" fill="#FFF8B8"/>
</svg>
