<svg width="816" height="1193" viewBox="0 0 816 1193" fill="none" xmlns="http://www.w3.org/2000/svg">
<path d="M597.389 501.316L540.858 477.56L554.769 516.53L597.389 501.316Z" fill="#FFF8B8"/>
<path d="M767.888 767.081L742.121 694.262L705.748 656.608L735.399 605.758L712.993 605.758L677.143 626.997L583.038 529.578L616.647 491.488L602.303 491.488L562.873 523.142L509.099 467.962L497.896 467.962L530.384 512.774L602.303 626.997L444.121 626.997L477.73 656.608L639.012 685.3L644.655 694.262L649.136 748.036L597.602 803.747L472.129 890.314L398.189 903.758L767.888 903.758L705.748 880.232L767.888 767.081Z" fill="#222831"/>
<path d="M487.814 585.593L543.829 639.367L551.671 661.773L449.724 689.781L232.386 661.773L259.273 615.841L309.686 531.819L413.874 522.856L459.806 593.435L487.814 585.593Z" fill="#995353"/>
<path d="M595.362 494.848L529.265 494.848L283.919 494.848L283.919 454.518L376.904 378.337L462.047 390.661L475.49 360.413L556.152 353.691L624.49 422.029L595.362 494.848Z" fill="#995353"/>
<path d="M566.234 503.811L598.722 503.811L812.7 503.811L861.993 379.458L829.504 324.563L779.091 330.165L752.203 298.796L634.572 292.074L519.181 336.886L497.896 436.593L566.234 503.811Z" fill="#995353"/>
<path d="M641.294 616.961L723.076 616.961L971.783 616.961L993.068 595.675L928.091 540.781L835.106 472.443L777.971 374.977L648.016 406.345L608.806 487.006L608.806 553.104L641.294 616.961Z" fill="#995353"/>
<path d="M805.414 384.136L613.741 407.551L717.793 492.042L805.414 384.136Z" fill="#C55B5B"/>
<path d="M818.504 443.799L699.165 479.746L774.627 522.056L818.504 443.799Z" fill="#C55B5B"/>
<path d="M887.548 427.324L780.505 491.167L863.982 513.892L887.548 427.324Z" fill="#C55B5B"/>
<path d="M761.993 395.76L848.691 485.301L851.658 398.838L761.993 395.76Z" fill="#C55B5B"/>
<path d="M703.414 315.857L810.971 426.939L814.652 319.674L703.414 315.857Z" fill="#C55B5B"/>
<path d="M767.822 337.781L626.275 400.007L725.568 440.752L767.822 337.781Z" fill="#C55B5B"/>
<path d="M722.812 480.625L589.087 403.002L614.733 507.221L722.812 480.625Z" fill="#C55B5B"/>
<path d="M593.249 434.938L711.255 335.027L604.474 324.203L593.249 434.938Z" fill="#C55B5B"/>
<path d="M633.852 352.626L784.366 317.225L694.155 259.075L633.852 352.626Z" fill="#C55B5B"/>
<path d="M808.272 396.856L876.243 380.869L835.505 354.609L808.272 396.856Z" fill="#C55B5B"/>
<path d="M747.196 306.798L815.167 290.811L774.429 264.551L747.196 306.798Z" fill="#C55B5B"/>
<path d="M548.299 391.919L410.23 355.366L458.49 441.967L548.299 391.919Z" fill="#CC7777"/>
<path d="M540.906 436.49L449.074 428.407L489.282 478.188L540.906 436.49Z" fill="#CC7777"/>
<path d="M572.354 420.098L585.545 511.337L624.778 460.785L572.354 420.098Z" fill="#CC7777"/>
<path d="M592.847 444.134L501.8 458.587L552.891 497.117L592.847 444.134Z" fill="#CC7777"/>
<path d="M515.285 387.98L550.241 473.283L576.022 414.716L515.285 387.98Z" fill="#CC7777"/>
<path d="M496.996 317.016L540.361 422.842L572.344 350.184L496.996 317.016Z" fill="#CC7777"/>
<path d="M524.53 373.643L410.23 377.51L467.235 432.759L524.53 373.643Z" fill="#CC7777"/>
<path d="M465.072 435.504L394.547 345.473L383.542 424.091L465.072 435.504Z" fill="#CC7777"/>
<path d="M388.636 368.549L497.117 332.335L426.753 295.579L388.636 368.549Z" fill="#CC7777"/>
<path d="M439.125 323.167L552.217 340.186L506.23 275.477L439.125 323.167Z" fill="#CC7777"/>
<path d="M546.77 401.441L597.841 409.126L577.074 379.904L546.77 401.441Z" fill="#FFF8B8"/>
<path d="M529.552 322.818L580.624 330.503L559.857 301.281L529.552 322.818Z" fill="#CC7777"/>
<path d="M863.349 593.356L658.411 531.725L726.36 663.822L863.349 593.356Z" fill="#D66C6C"/>
<path d="M850.051 659.733L712.933 643.045L770.661 719.599L850.051 659.733Z" fill="#D66C6C"/>
<path d="M927.455 673.774L790.388 690.873L864.974 751.123L927.455 673.774Z" fill="#D66C6C"/>
<path d="M814.107 585.809L862.195 715.298L903.727 628.878L814.107 585.809Z" fill="#D66C6C"/>
<path d="M790.26 478.626L849.918 639.268L901.441 532.057L790.26 478.626Z" fill="#D66C6C"/>
<path d="M845.853 529.569L674.492 529.654L757.101 615.237L845.853 529.569Z" fill="#D66C6C"/>
<path d="M718.061 671.683L687.851 503.006L618.124 599.374L718.061 671.683Z" fill="#D66C6C"/>
<path d="M625.415 550.388L789.677 501.572L686.14 443.016L625.415 550.388Z" fill="#D66C6C"/>
<path d="M703.288 484.948L871.798 516.079L806.161 416.88L703.288 484.948Z" fill="#D66C6C"/>
<path d="M471.618 623.201L304.567 572.964L359.954 680.64L471.618 623.201Z" fill="#D66C6C"/>
<path d="M460.78 677.308L349.01 663.705L396.066 726.107L460.78 677.308Z" fill="#D66C6C"/>
<path d="M499.835 658.578L512.224 770.488L562.173 710.377L499.835 658.578Z" fill="#D66C6C"/>
<path d="M523.874 688.753L412.146 702.691L472.944 751.802L523.874 688.753Z" fill="#D66C6C"/>
<path d="M431.48 617.05L470.679 722.6L504.532 652.157L431.48 617.05Z" fill="#D66C6C"/>
<path d="M412.042 529.682L460.671 660.626L502.669 573.236L412.042 529.682Z" fill="#D66C6C"/>
<path d="M457.358 571.207L317.676 571.277L385.013 641.038L457.358 571.207Z" fill="#D66C6C"/>
<path d="M368.252 673.019L285.826 560.249L269.193 655.77L368.252 673.019Z" fill="#D66C6C"/>
<path d="M277.671 588.177L411.566 548.386L327.169 500.655L277.671 588.177Z" fill="#D66C6C"/>
<path d="M341.148 534.835L478.505 560.211L425.003 479.35L341.148 534.835Z" fill="#D66C6C"/>
<path d="M469.363 634.762L531.393 646.222L507.232 609.706L469.363 634.762Z" fill="#D66C6C"/>
<path d="M451.546 538.088L513.576 549.547L489.414 513.031L451.546 538.088Z" fill="#D66C6C"/>
<path d="M436.87 592.594L309.723 443.68L296.578 578.962L436.87 592.594Z" fill="#D66C6C"/>
<path d="M183.995 612.126L373.823 564.097L258.361 492.387L183.995 612.126Z" fill="#D66C6C"/>
<path d="M378.638 526.392L322.107 502.636L336.018 541.606L378.638 526.392Z" fill="#FFF8B8"/>
<path d="M731.05 495.554L720.449 435.158L695.198 467.939L731.05 495.554Z" fill="#FFF8B8"/>
<path d="M753.859 644.838L746.711 604.11L729.683 626.215L753.859 644.838Z" fill="#FFF8B8"/>
<path d="M450.564 242.021L461.272 281.961L476.286 258.441L450.564 242.021Z" fill="#FFF8B8"/>
<path d="M788.685 901.855L341.413 898.617L556.48 1123.71L788.685 901.855Z" fill="#A75151"/>
<path d="M885.658 924.329L631.755 922.491L753.842 1050.27L885.658 924.329Z" fill="#D26A6A"/>
<path d="M674.599 993.583L536.979 992.587L603.152 1061.85L674.599 993.583Z" fill="#DE8383"/>
</svg>
