<svg width="822" height="766" viewBox="0 0 822 766" fill="none" xmlns="http://www.w3.org/2000/svg">
<path d="M445.828 368.894L508.686 371.014L479.008 401.352L445.828 368.894Z" fill="#FFF8B8"/>
<path d="M230.958 625.816L257.386 551.129L294.692 512.509L264.28 460.354H287.261L324.03 482.137L420.55 382.219L386.079 343.152H400.791L441.233 375.619L496.387 319.022H507.877L474.555 364.984L400.791 482.137H563.031L528.56 512.509L363.14 541.936L357.353 551.129L352.756 606.283L405.612 663.423L534.305 752.211L610.142 765.999H230.958L294.692 741.869L230.958 625.816Z" fill="#222831"/>
<path d="M518.217 439.672L460.765 494.825L452.722 517.806L557.284 546.532L780.198 517.806L752.621 470.696L700.915 384.518L594.054 375.325L546.943 447.715L518.217 439.672Z" fill="#995353"/>
<path d="M407.91 346.599H475.704H727.344V305.234L631.973 227.099L544.646 239.738L530.858 208.714L448.127 201.82L378.035 271.912L407.91 346.599Z" fill="#995353"/>
<path d="M437.785 355.792H404.463H184.996L134.438 228.248L167.761 171.945L219.468 177.69L247.045 145.517L367.694 138.623L486.045 184.584L507.877 286.849L437.785 355.792Z" fill="#995353"/>
<path d="M360.799 471.845H276.919H21.8318L0 450.013L66.6444 393.71L162.015 323.618L220.616 223.652L353.905 255.825L394.121 338.556V406.349L360.799 471.845Z" fill="#995353"/>
<path d="M302.294 170.486L470.819 274.525L337.635 308.603L302.294 170.486Z" fill="#C55B5B"/>
<path d="M264.504 220.455L360.263 305.139L271.81 312.185L264.504 220.455Z" fill="#C55B5B"/>
<path d="M250.989 173.171L146.603 246.96L160.029 159.248L250.989 173.171Z" fill="#C55B5B"/>
<path d="M207.25 175.488L279.586 280.886L192.069 266.247L207.25 175.488Z" fill="#C55B5B"/>
<path d="M337.76 199.943L218.578 246.17L252.905 164.345L337.76 199.943Z" fill="#C55B5B"/>
<path d="M426.613 150.631L278.757 207.979L321.342 106.469L426.613 150.631Z" fill="#C55B5B"/>
<path d="M357.2 143.427L462.376 262.12L352.392 257.484L357.2 143.427Z" fill="#C55B5B"/>
<path d="M337.855 295.813L495.737 280.863L427.136 366.955L337.855 295.813Z" fill="#C55B5B"/>
<path d="M478.161 308.831L411.083 165.127L515.207 200.85L478.161 308.831Z" fill="#C55B5B"/>
<path d="M475.644 214.729L350.607 117.18L459.595 101.704L475.644 214.729Z" fill="#C55B5B"/>
<path d="M294.174 181.111L237.708 137.059L286.927 130.07L294.174 181.111Z" fill="#C55B5B"/>
<path d="M389.708 123.41L333.243 79.3574L382.461 72.3686L389.708 123.41Z" fill="#C55B5B"/>
<path d="M562.753 255.93L707.063 281.105L624.951 341.083L562.753 255.93Z" fill="#CC7777"/>
<path d="M550.522 300.625L639.543 332.489L580.729 361.618L550.522 300.625Z" fill="#CC7777"/>
<path d="M528.255 271.863L476.826 351.205L461.961 287.279L528.255 271.863Z" fill="#CC7777"/>
<path d="M498.85 285.464L577.473 337.987L513.347 351.966L498.85 285.464Z" fill="#CC7777"/>
<path d="M595.199 266.422L526.039 330.898L527.145 265.275L595.199 266.422Z" fill="#CC7777"/>
<path d="M642.679 208.156L556.881 288.144L558.253 206.733L642.679 208.156Z" fill="#CC7777"/>
<path d="M593.032 222.268L697.859 274.904L621.05 301.922L593.032 222.268Z" fill="#CC7777"/>
<path d="M621.592 332.238L725.918 278.615L702.445 356.58L621.592 332.238Z" fill="#CC7777"/>
<path d="M721.525 302.65L635.995 222.376L717.316 218.317L721.525 302.65Z" fill="#CC7777"/>
<path d="M693.958 238.712L581.296 206.052L651.899 165.495L693.958 238.712Z" fill="#CC7777"/>
<path d="M560.094 265.456L509.217 250.707L541.101 232.392L560.094 265.456Z" fill="#FFF8B8"/>
<path d="M609.859 199.594L558.982 184.845L590.865 166.53L609.859 199.594Z" fill="#CC7777"/>
<path d="M158.569 340.55L375.936 371.047L255.965 464.964L158.569 340.55Z" fill="#D66C6C"/>
<path d="M142.483 408.094L277.387 451.367L190.764 497.924L142.483 408.094Z" fill="#D66C6C"/>
<path d="M107.702 366.133L34.6461 487.518L9.19356 392.528L107.702 366.133Z" fill="#D66C6C"/>
<path d="M64.3473 387.97L184.709 462.699L89.3759 486.834L64.3473 387.97Z" fill="#D66C6C"/>
<path d="M207.681 354.643L107.331 454.65L105.712 356.322L207.681 354.643Z" fill="#D66C6C"/>
<path d="M275.879 265.017L151.387 389.085L149.378 267.101L275.879 265.017Z" fill="#D66C6C"/>
<path d="M202.234 288.629L361.844 362.22L248.169 406.514L202.234 288.629Z" fill="#D66C6C"/>
<path d="M260.325 475.848L360.83 331.662L384.45 451.353L260.325 475.848Z" fill="#D66C6C"/>
<path d="M398.67 402.589L266.579 286.645L388.157 276.508L398.67 402.589Z" fill="#D66C6C"/>
<path d="M354.192 308.217L183.847 264.931L287.552 200.671L354.192 308.217Z" fill="#D66C6C"/>
<path d="M155.062 354.949L78.1353 335.402L124.967 306.383L155.062 354.949Z" fill="#FFF8B8"/>
<path d="M226.302 253.834L149.376 234.287L196.208 205.267L226.302 253.834Z" fill="#D66C6C"/>
<path d="M549.203 426.385L726.385 451.244L628.594 527.799L549.203 426.385Z" fill="#D66C6C"/>
<path d="M536.09 481.442L646.054 516.716L575.445 554.666L536.09 481.442Z" fill="#D66C6C"/>
<path d="M507.738 447.239L448.188 546.184L427.441 468.754L507.738 447.239Z" fill="#D66C6C"/>
<path d="M472.399 465.038L570.51 525.953L492.801 545.626L472.399 465.038Z" fill="#D66C6C"/>
<path d="M589.236 437.873L507.438 519.392L506.118 439.242L589.236 437.873Z" fill="#D66C6C"/>
<path d="M644.823 364.817L543.346 465.948L541.708 366.515L644.823 364.817Z" fill="#D66C6C"/>
<path d="M584.793 384.063L714.896 444.049L622.236 480.155L584.793 384.063Z" fill="#D66C6C"/>
<path d="M624.133 517.14L749.301 447.438L723.82 543.564L624.133 517.14Z" fill="#D66C6C"/>
<path d="M744.915 476.955L637.243 382.446L736.345 374.182L744.915 476.955Z" fill="#D66C6C"/>
<path d="M708.661 400.029L569.807 364.746L654.34 312.365L708.661 400.029Z" fill="#D66C6C"/>
<path d="M546.343 438.123L483.638 422.189L521.813 398.535L546.343 438.123Z" fill="#D66C6C"/>
<path d="M604.416 355.7L541.711 339.767L579.885 316.112L604.416 355.7Z" fill="#D66C6C"/>
<path d="M594.708 412.776L777.044 328.587L731.257 460.259L594.708 412.776Z" fill="#D66C6C"/>
<path d="M821.914 539.452L665.667 413.274L803.998 395.997L821.914 539.452Z" fill="#D66C6C"/>
<path d="M638.867 486.096L701.725 488.215L672.047 518.554L638.867 486.096Z" fill="#FFF8B8"/>
<path d="M323.777 306.189L359.563 254.469L369.024 295.841L323.777 306.189Z" fill="#FFF8B8"/>
<path d="M238.487 435.481L262.618 400.604L268.999 428.503L238.487 435.481Z" fill="#FFF8B8"/>
<path d="M693.847 190.311L666.738 222.927L662.84 194.575L693.847 190.311Z" fill="#FFF8B8"/>
</svg>
