<svg width="169" height="169" viewBox="0 0 169 169" fill="none" xmlns="http://www.w3.org/2000/svg">
<path fill-rule="evenodd" clip-rule="evenodd" d="M84.7051 42.2451C61.5091 42.2451 42.7051 61.0492 42.7051 84.2451C42.7051 90.4906 44.0683 96.4177 46.5134 101.745C53.1494 116.204 67.7546 126.245 84.7051 126.245C98.0834 126.245 110.001 119.99 117.692 110.245C123.337 103.094 126.705 94.0628 126.705 84.2451C126.705 61.0492 107.901 42.2451 84.7051 42.2451ZM84.7051 117.245C102.93 117.245 117.705 102.471 117.705 84.2451C117.705 66.0197 102.93 51.2451 84.7051 51.2451C66.4797 51.2451 51.7051 66.0197 51.7051 84.2451C51.7051 102.471 66.4797 117.245 84.7051 117.245Z" fill="#F5F5F5"/>
<path d="M0.705078 84.2451C0.705078 130.637 38.3132 168.245 84.7051 168.245L117.692 110.245C110.001 119.99 98.0834 126.245 84.7051 126.245C67.7546 126.245 53.1494 116.204 46.5134 101.745L11.9428 42.2451C4.79564 54.6004 0.705078 68.9451 0.705078 84.2451Z" fill="#395C80"/>
<path d="M84.7051 168.245C131.097 168.245 168.705 130.637 168.705 84.2451C168.705 68.9451 164.615 54.6004 157.467 42.2451H84.7051C107.901 42.2451 126.705 61.0492 126.705 84.2451C126.705 94.0628 123.337 103.094 117.692 110.245L84.7051 168.245Z" fill="#788AA7"/>
<path d="M117.705 84.2451C117.705 102.471 102.93 117.245 84.7051 117.245C66.4797 117.245 51.7051 102.471 51.7051 84.2451C51.7051 66.0197 66.4797 51.2451 84.7051 51.2451C102.93 51.2451 117.705 66.0197 117.705 84.2451Z" fill="#0F2032"/>
<path d="M42.7051 84.2451C42.7051 61.0492 61.5091 42.2451 84.7051 42.2451H157.467C142.943 17.1375 115.797 0.245117 84.7051 0.245117C53.6132 0.245117 26.4668 17.1375 11.9428 42.2451L46.5134 101.745C44.0683 96.4177 42.7051 90.4906 42.7051 84.2451Z" fill="#F05454"/>
</svg>
