<svg width="169" height="169" viewBox="0 0 169 169" fill="none" xmlns="http://www.w3.org/2000/svg">
<path fill-rule="evenodd" clip-rule="evenodd" d="M84.96 42.8828C61.764 42.8828 42.96 61.6869 42.96 84.8828C42.96 91.1283 44.3232 97.0554 46.7683 102.383C53.4043 116.842 68.0095 126.883 84.96 126.883C98.3382 126.883 110.256 120.628 117.947 110.883C123.591 103.731 126.96 94.7005 126.96 84.8828C126.96 61.6869 108.156 42.8828 84.96 42.8828ZM84.96 117.883C103.185 117.883 117.96 103.108 117.96 84.8828C117.96 66.6574 103.185 51.8828 84.96 51.8828C66.7346 51.8828 51.96 66.6574 51.96 84.8828C51.96 103.108 66.7346 117.883 84.96 117.883Z" fill="#F5F5F5"/>
<path d="M0.959961 84.8828C0.959961 131.275 38.568 168.883 84.96 168.883L117.947 110.883C110.256 120.628 98.3382 126.883 84.96 126.883C68.0095 126.883 53.4043 116.842 46.7683 102.383L12.1977 42.8828C5.05052 55.2381 0.959961 69.5827 0.959961 84.8828Z" fill="#395C80"/>
<path d="M84.96 168.883C131.352 168.883 168.96 131.275 168.96 84.8828C168.96 69.5827 164.869 55.2381 157.722 42.8828H84.96C108.156 42.8828 126.96 61.6869 126.96 84.8828C126.96 94.7005 123.591 103.731 117.947 110.883L84.96 168.883Z" fill="#788AA7"/>
<path d="M117.96 84.8828C117.96 103.108 103.185 117.883 84.96 117.883C66.7346 117.883 51.96 103.108 51.96 84.8828C51.96 66.6574 66.7346 51.8828 84.96 51.8828C103.185 51.8828 117.96 66.6574 117.96 84.8828Z" fill="#0F2032"/>
<path d="M42.96 84.8828C42.96 61.6869 61.764 42.8828 84.96 42.8828H157.722C143.198 17.7752 116.052 0.882812 84.96 0.882812C53.8681 0.882812 26.7217 17.7752 12.1977 42.8828L46.7683 102.383C44.3232 97.0554 42.96 91.1283 42.96 84.8828Z" fill="#F05454"/>
</svg>
