<svg width="171" height="171" viewBox="0 0 171 171" fill="none" xmlns="http://www.w3.org/2000/svg">
<path d="M119.234 113.043C156.034 117.043 168.162 90.0426 169.626 76.0425C170.995 68.0715 169.434 47.4707 152.234 28.836C141.89 16.8509 128.63 9.72672 117.308 6.04262C109.368 2.86962 97.2832 1.48085 92.2336 1.18309C51.1338 -2.16453 12.6467 24.9873 2.93017 66.4002C2.19743 69.5232 1.6473 72.6463 1.27283 75.7583C6.19914 60.925 26.4518 33.0583 68.0518 42.2583C78.5518 44.2583 101.335 54.8701 105.209 79.0426C105.69 80.3866 106.032 81.7348 106.234 83.0426C107.234 89.5426 104.234 97.0426 101.234 99.5426C98.8336 101.543 98.9002 103.376 99.2336 104.043C102.834 109.643 114.067 112.376 119.234 113.043Z" fill="url(#paint0_radial_207_431)"/>
<path d="M1.27283 75.7583C-3.82226 118.101 23.6023 158.39 66.0409 168.348C82.4228 172.191 98.8112 170.992 113.581 165.758C78.1098 174.758 46.5518 151.758 45.0518 117.258C43.8518 89.6583 63.5518 72.9241 73.5518 68.007C80.2147 63.3651 88.1925 64.0262 93.2336 66.0426C99.2246 68.439 103.301 73.7068 105.209 79.0426C101.335 54.8701 78.5518 44.2583 68.0518 42.2583C26.4518 33.0583 6.19914 60.925 1.27283 75.7583Z" fill="url(#paint1_radial_207_431)"/>
<path d="M1.27283 75.7583C-3.82226 118.101 23.6023 158.39 66.0409 168.348C82.4228 172.191 98.8112 170.992 113.581 165.758C78.1098 174.758 46.5518 151.758 45.0518 117.258C43.8518 89.6583 63.5518 72.9241 73.5518 68.007C80.2147 63.3651 88.1925 64.0262 93.2336 66.0426C99.2246 68.439 103.301 73.7068 105.209 79.0426C101.335 54.8701 78.5518 44.2583 68.0518 42.2583C26.4518 33.0583 6.19914 60.925 1.27283 75.7583Z" fill="url(#paint2_radial_207_431)" fill-opacity="0.2"/>
<path d="M85.2336 123.043C74.7336 116.043 58.7336 95.0426 65.2336 79.0426C67.3646 73.797 70.3018 70.2712 73.5518 68.007C63.5518 72.9241 43.8518 89.6583 45.0518 117.258C46.5518 151.758 78.1098 174.758 113.581 165.758C131.191 159.518 146.5 147.543 156.753 131.543C158.772 128.043 155.734 126.543 154.734 126.543C153.934 126.543 149.4 128.876 147.234 130.043C116.234 140.043 95.7336 130.043 85.2336 123.043Z" fill="url(#paint3_radial_207_431)"/>
<path d="M85.2336 123.043C74.7336 116.043 58.7336 95.0426 65.2336 79.0426C67.3646 73.797 70.3018 70.2712 73.5518 68.007C63.5518 72.9241 43.8518 89.6583 45.0518 117.258C46.5518 151.758 78.1098 174.758 113.581 165.758C131.191 159.518 146.5 147.543 156.753 131.543C158.772 128.043 155.734 126.543 154.734 126.543C153.934 126.543 149.4 128.876 147.234 130.043C116.234 140.043 95.7336 130.043 85.2336 123.043Z" fill="url(#paint4_radial_207_431)" fill-opacity="0.2"/>
<defs>
<radialGradient id="paint0_radial_207_431" cx="0" cy="0" r="1" gradientUnits="userSpaceOnUse" gradientTransform="translate(142.593 88.0398) rotate(139.51) scale(151.266 146.508)">
<stop stop-color="#F05454"/>
<stop offset="1" stop-color="#485F76"/>
</radialGradient>
<radialGradient id="paint1_radial_207_431" cx="0" cy="0" r="1" gradientUnits="userSpaceOnUse" gradientTransform="translate(134.052 104.258) rotate(142.405) scale(134.411 130.184)">
<stop stop-color="#395C80"/>
<stop offset="1" stop-color="#395C80"/>
</radialGradient>
<radialGradient id="paint2_radial_207_431" cx="0" cy="0" r="1" gradientUnits="userSpaceOnUse" gradientTransform="translate(53.0518 106.258) rotate(80.0854) scale(62.5001 60.5345)">
<stop offset="0.817708" stop-opacity="0"/>
<stop offset="1"/>
</radialGradient>
<radialGradient id="paint3_radial_207_431" cx="0" cy="0" r="1" gradientUnits="userSpaceOnUse" gradientTransform="translate(100.552 117.258) rotate(100.32) scale(170.254 164.9)">
<stop stop-color="#344152"/>
<stop offset="0.646119" stop-color="#0B0F16"/>
</radialGradient>
<radialGradient id="paint4_radial_207_431" cx="0" cy="0" r="1" gradientUnits="userSpaceOnUse" gradientTransform="translate(116.052 120.258) rotate(121.636) scale(65.7742 69.4109)">
<stop offset="0.875" stop-opacity="0"/>
<stop offset="1"/>
</radialGradient>
</defs>
</svg>
