<svg width="171" height="171" viewBox="0 0 171 171" fill="none" xmlns="http://www.w3.org/2000/svg">
<path d="M85.5223 122.546C75.0223 115.546 59.0223 94.546 65.5223 78.5461C67.6533 73.3004 70.5905 69.7746 73.8404 67.5104C63.8404 72.4275 49.3404 104.546 56.3404 117.762C63.3404 130.977 78.3985 174.262 113.869 165.262C131.48 159.022 146.789 147.046 157.041 131.046C159.061 127.546 156.022 126.046 155.022 126.046C154.222 126.046 149.689 128.379 147.522 129.546C116.522 139.546 96.0223 129.546 85.5223 122.546Z" fill="url(#paint0_radial_254_210)"/>
<path d="M119.455 112.546C156.255 116.546 168.383 89.546 169.847 75.546C171.216 67.5749 169.655 46.9742 152.455 28.3395C142.111 16.3543 128.852 9.23015 117.529 5.54605C109.589 2.37305 97.5045 0.984282 92.4549 0.686524C51.3551 -2.6611 12.868 24.4908 3.15146 65.9036C2.41872 69.0266 1.86859 72.1497 1.49413 75.2617C6.42044 60.4284 26.673 32.5617 68.273 41.7617C78.7731 43.7617 101.556 54.3735 105.43 78.5461C105.911 79.89 106.254 81.2383 106.455 82.5461C107.455 89.046 104.455 96.546 101.455 99.046C99.0549 101.046 99.1215 102.879 99.4549 103.546C103.055 109.146 114.288 111.879 119.455 112.546Z" fill="url(#paint1_radial_254_210)"/>
<path d="M1.49413 75.2617C-3.60097 117.605 23.8236 157.894 66.2622 167.851C82.6441 171.695 99.0324 170.495 113.802 165.262C78.3311 174.262 46.7731 151.262 45.273 116.762C44.073 89.1617 63.7731 72.4275 73.7731 67.5104C80.436 62.8685 88.4138 63.5296 93.4549 65.546C99.4459 67.9424 103.523 73.2102 105.43 78.5461C101.556 54.3735 78.7731 43.7617 68.273 41.7617C26.673 32.5617 6.42044 60.4284 1.49413 75.2617Z" fill="url(#paint2_radial_254_210)"/>
<path d="M1.49413 75.2617C-3.60097 117.605 23.8236 157.894 66.2622 167.851C82.6441 171.695 99.0324 170.495 113.802 165.262C78.3311 174.262 46.7731 151.262 45.273 116.762C44.073 89.1617 63.7731 72.4275 73.7731 67.5104C80.436 62.8685 88.4138 63.5296 93.4549 65.546C99.4459 67.9424 103.523 73.2102 105.43 78.5461C101.556 54.3735 78.7731 43.7617 68.273 41.7617C26.673 32.5617 6.42044 60.4284 1.49413 75.2617Z" fill="url(#paint3_radial_254_210)" fill-opacity="0.2"/>
<path d="M85.4549 122.546C74.9549 115.546 58.9549 94.546 65.4549 78.5461C67.5859 73.3004 70.5231 69.7746 73.7731 67.5104C63.7731 72.4275 44.073 89.1617 45.273 116.762C46.7731 151.262 78.3311 174.262 113.802 165.262C131.412 159.022 146.721 147.046 156.974 131.046C158.993 127.546 155.955 126.046 154.955 126.046C154.155 126.046 149.622 128.379 147.455 129.546C116.455 139.546 95.9549 129.546 85.4549 122.546Z" fill="url(#paint4_radial_254_210)"/>
<path d="M85.4549 122.546C74.9549 115.546 58.9549 94.546 65.4549 78.5461C67.5859 73.3004 70.5231 69.7746 73.7731 67.5104C63.7731 72.4275 44.073 89.1617 45.273 116.762C46.7731 151.262 78.3311 174.262 113.802 165.262C131.412 159.022 146.721 147.046 156.974 131.046C158.993 127.546 155.955 126.046 154.955 126.046C154.155 126.046 149.622 128.379 147.455 129.546C116.455 139.546 95.9549 129.546 85.4549 122.546Z" fill="url(#paint5_radial_254_210)" fill-opacity="0.2"/>
<defs>
<radialGradient id="paint0_radial_254_210" cx="0" cy="0" r="1" gradientUnits="userSpaceOnUse" gradientTransform="translate(142.813 87.5432) rotate(139.51) scale(151.266 146.508)">
<stop stop-color="#F05454"/>
<stop offset="1" stop-color="#485F76"/>
</radialGradient>
<radialGradient id="paint1_radial_254_210" cx="0" cy="0" r="1" gradientUnits="userSpaceOnUse" gradientTransform="translate(142.813 87.5432) rotate(139.51) scale(151.266 146.508)">
<stop stop-color="#F05454"/>
<stop offset="1" stop-color="#485F76"/>
</radialGradient>
<radialGradient id="paint2_radial_254_210" cx="0" cy="0" r="1" gradientUnits="userSpaceOnUse" gradientTransform="translate(140.932 92.4229) rotate(130.052) scale(135.646 132.123)">
<stop stop-color="#395C80"/>
<stop offset="1" stop-color="#395C80"/>
</radialGradient>
<radialGradient id="paint3_radial_254_210" cx="0" cy="0" r="1" gradientUnits="userSpaceOnUse" gradientTransform="translate(60.3776 112.808) rotate(66.2487) scale(62.6018 61.8999)">
<stop offset="0.817708" stop-opacity="0"/>
<stop offset="1"/>
</radialGradient>
<radialGradient id="paint4_radial_254_210" cx="0" cy="0" r="1" gradientUnits="userSpaceOnUse" gradientTransform="translate(110.473 112.667) rotate(87.0272) scale(169.731 169.415)">
<stop stop-color="#344152"/>
<stop offset="0.646119" stop-color="#0B0F16"/>
</radialGradient>
<radialGradient id="paint5_radial_254_210" cx="0" cy="0" r="1" gradientUnits="userSpaceOnUse" gradientTransform="translate(126.682 112.049) rotate(108.958) scale(65.771 71.0956)">
<stop offset="0.875" stop-opacity="0"/>
<stop offset="1"/>
</radialGradient>
</defs>
</svg>
