<svg width="179" height="186" viewBox="0 0 179 186" fill="none" xmlns="http://www.w3.org/2000/svg">
<path d="M175.618 99.3304C175.618 145.712 136.891 183.312 89.1182 183.312C41.3455 183.312 2.61816 145.712 2.61816 99.3304C2.61816 52.9484 41.3455 15.3484 89.1182 15.3484C136.891 15.3484 175.618 52.9484 175.618 99.3304Z" fill="url(#paint0_radial_254_211)"/>
<path d="M55.6013 39.7421C48.1828 36.462 38.8433 37.1747 35.1009 37.9411C26.3081 39.8484 17.8218 46.9434 14.6777 50.2524C5.67819 58.987 -1.03967 82.1187 0.133137 80.1816C1.07138 78.632 3.66825 74.3188 4.8494 72.3559C-0.574375 86.5352 0.0123545 100.438 0.133137 99.8043C0.229763 99.297 1.01144 96.7247 1.3902 95.5019C-0.420519 118.719 12.8091 141.644 19.6502 150.205C27.3259 160.83 51.1239 182.745 84.9104 185.399C117.296 187.944 132.99 176.279 137.394 169.374C133.333 175.418 121.268 176.349 115.503 176.028C119.746 175.352 132.204 170.732 137.903 168.506C166.621 153.463 169.511 138.708 167.365 133.211C169.354 141.689 158.745 148.485 153.193 150.823C155.328 149.387 158.078 146.243 160.668 142.863C160.992 141.263 163.061 131.816 164.055 127.292C167.221 112.01 164.435 104.357 159.498 93.8767C155.549 85.4924 144.662 76.75 139.712 73.4268C133.931 69.1911 120.765 57.4792 114.354 44.5168C107.942 31.5545 114.36 12.9638 118.37 5.28876C118.52 7.20435 120.574 12.2845 127.59 17.2802C136.315 23.4928 146.425 31.6525 148.02 33.3498C144.793 29.8884 141.847 26.9119 139.712 24.8505C121.675 8.6566 119.58 1.53604 120.787 0C110.254 11.6024 103.671 27.2367 106.469 44.5168C108.707 58.3409 120.765 70.0289 126.514 74.145C137.816 90.7606 132.818 107.234 130.85 113.643C128.883 120.052 116.852 139.673 92.734 139.898C73.4397 140.077 63.1203 129.41 60.3723 124.054C60.4283 124.138 61.6593 124.553 66.1351 125.542C70.6108 126.532 75.5577 126.261 77.4717 126.002C81.4864 126.032 86.4514 123.66 88.432 122.471L95.1662 118.815C96.4489 118.345 99.2388 117.462 100.137 117.693C101.035 117.923 102.136 118.045 102.574 118.077C106.73 117.205 105.182 113.631 103.889 111.952C100.393 108.104 96.6734 106.437 91.8312 105.988C87.9574 105.629 81.5589 107.549 78.8438 108.553C69.4159 110.613 64.8802 106.269 65.0427 106.331C65.1726 106.381 65.9633 106.46 66.3424 106.494C65.4726 106.404 62.5638 104.392 61.2182 103.397H61.9352C59.9331 102.258 55.7968 98.7794 55.2678 93.9745C54.6065 87.9683 58.7943 85.5503 59.3454 85.5503C59.7862 85.5503 60.7776 86.0695 61.2182 86.3291C61.1677 85.9923 60.7762 85.3188 60.5868 85.0241C65.1667 86.6911 66.7888 88.3426 67.0274 88.96C67.6672 87.7308 66.0732 86.1747 65.1962 85.5503C66.0213 85.8365 67.2238 86.6658 67.7219 87.0447C69.0058 84.3085 68.6059 80.4778 68.627 79.9516C68.6438 79.5306 68.3393 78.8501 68.185 78.5624C68.2018 78.1415 68.6971 78.387 68.9427 78.5624C68.8924 78.2204 68.77 77.8639 68.4398 77.1874C68.0792 76.4484 67.4709 75.3277 66.438 73.4268C64.8552 70.5138 64.1649 67.5826 64.0175 66.4811C63.779 64.5797 63.5292 59.6405 64.4385 55.0942C65.3638 50.4675 65.9264 49.0775 66.149 48.5275C66.1998 48.402 66.2329 48.3202 66.2486 48.2537C66.3328 47.8959 68.0797 43.7916 70.7107 40.3398C72.8155 37.5783 76.3392 34.8033 77.8379 33.761C77.7697 33.7276 77.265 33.7749 77.0213 33.8027C77.0519 33.4655 79.0266 32.6404 80.0101 32.27C75.6801 30.0475 71.1202 32.4616 71.0053 32.27C70.9133 32.1167 72.1165 31.5164 72.7296 31.2354C68.7751 31.8485 65.2064 33.6622 63.9164 34.4925V33.8027C61.464 34.7837 59.1649 36.9704 58.3219 37.9411V37.1364C57.6781 37.5349 56.2399 39.0396 55.6013 39.7421Z" fill="url(#paint1_radial_254_211)"/>
<path d="M178.125 82.4309C178.044 82.27 176.147 84.8442 175.209 86.1514C175.349 91.891 175.262 104.44 173.798 108.721C175.231 104.9 177.921 96.8288 178.165 92.7213L178.167 91.683C178.174 86.6506 178.166 82.5141 178.125 82.4309Z" fill="#995353"/>
<path d="M137.903 168.506C132.204 170.732 119.746 175.352 115.503 176.028C121.268 176.349 133.333 175.418 137.394 169.374C137.585 169.075 137.754 168.785 137.903 168.506Z" fill="#30475E"/>
<path d="M153.193 150.823C158.745 148.485 169.354 141.689 167.365 133.211C165.883 135.581 163.361 139.349 160.668 142.863C158.078 146.243 155.328 149.387 153.193 150.823Z" fill="url(#paint2_linear_254_211)"/>
<path d="M64.4385 55.0942C63.5292 59.6405 63.779 64.5797 64.0175 66.4811C64.1649 67.5826 64.8552 70.5138 66.438 73.4268C67.4709 75.3277 68.0792 76.4484 68.4398 77.1874C69.1068 76.149 70.7107 74.8526 77.3301 72.0416C82.6255 69.7929 84.896 68.2562 85.3693 67.769C89.9568 63.6763 89.6045 60.1795 88.8549 58.9427C86.2775 57.3275 83.574 57.0988 80.4107 56.8311C78.3991 56.661 76.2015 56.475 73.7321 55.9069C68.6499 54.7375 66.6255 50.3175 66.2486 48.2537C66.2329 48.3202 66.1998 48.402 66.149 48.5275C65.9264 49.0775 65.3638 50.4675 64.4385 55.0942Z" fill="url(#paint3_radial_254_211)"/>
<path fill-rule="evenodd" clip-rule="evenodd" d="M139.712 24.8505C141.847 26.9119 144.793 29.8884 148.02 33.3498L148.044 33.3756C155.169 41.021 163.657 51.0237 167.802 58.7574C165.935 54.6421 163.638 50.3442 160.829 46.03C149.728 28.9758 145.143 19.7576 144.238 17.2802C142.198 19.3209 140.371 23.1774 139.712 24.8505ZM178.165 92.7213L178.167 91.683C178.19 91.9903 178.188 92.3386 178.165 92.7213ZM137.903 168.506C137.751 168.806 137.581 169.095 137.394 169.374C137.585 169.075 137.754 168.785 137.903 168.506Z" fill="#B15757"/>
<path d="M19.3516 29.3962C15.9791 36.079 14.8305 46.0848 14.6777 50.2524C17.8218 46.9434 26.3081 39.8484 35.1009 37.9411C32.4215 36.3393 30.3175 32.081 29.4117 30.2477C29.1258 29.6689 28.9592 29.3318 28.9316 29.3962C28.8397 29.6109 28.6379 29.8177 28.5485 29.8942C27.2303 27.4419 26.773 22.2817 26.7092 20.0082C25.2103 20.4801 23.3897 24.0081 22.4272 25.8734C22.0609 26.5831 21.8189 27.0522 21.7661 27.0205C21.6128 26.9285 21.7022 26.2158 21.7661 25.8709C20.9691 26.7599 19.8243 29.1535 19.3516 30.2392V29.3962Z" fill="url(#paint4_radial_254_211)"/>
<path d="M167.365 133.211C172.514 127.661 176.559 112.405 178 105.5C178.5 101 178.158 97.1732 178.165 92.7213C177.921 96.8288 175.231 104.9 173.798 108.721C175.262 104.44 175.349 91.891 175.209 86.1514C175.084 81.4691 173.316 70.9097 167.802 58.7574C163.657 51.0237 155.169 41.021 148.044 33.3756L148.02 33.3498C146.425 31.6525 136.315 23.4928 127.59 17.2802C120.574 12.2845 118.52 7.20435 118.37 5.28876C114.36 12.9638 107.942 31.5545 114.354 44.5168C120.765 57.4792 133.931 69.1911 139.712 73.4268C144.662 76.75 155.549 85.4924 159.498 93.8767C164.435 104.357 167.221 112.01 164.055 127.292C163.061 131.816 160.992 141.263 160.668 142.863C163.361 139.349 165.883 135.581 167.365 133.211Z" fill="#B25052"/>
<path d="M59.4371 85.5484C51.621 83.7653 36.3455 85.6911 37.7721 107.659C38.1352 111.701 43.2417 116.361 60.7627 102.666C59.1546 101.448 57.4262 99.2464 56.763 98.2979C53.0541 90.3094 57.0004 86.4697 59.4371 85.5484Z" fill="url(#paint5_linear_254_211)"/>
<path d="M81.878 125.249C74.6195 126.799 57.9931 127.268 49.5558 116.743C47.5523 115.042 45.5868 111.867 53.7523 112.774C63.9592 113.908 96.3947 119.692 81.878 125.249Z" fill="url(#paint6_linear_254_211)"/>
<path d="M153.104 125.51C156.498 99.9457 136.797 80.6406 126.522 74.1836C144.197 93.4132 140.945 109.108 138.399 125.51C135.854 141.912 126.522 136.397 123.27 144.881C120.668 151.668 127.182 154.967 130.764 155.769C136.797 156.334 149.711 151.074 153.104 125.51Z" fill="url(#paint7_linear_254_211)"/>
<defs>
<radialGradient id="paint0_radial_254_211" cx="0" cy="0" r="1" gradientUnits="userSpaceOnUse" gradientTransform="translate(109.396 49.844) rotate(98.4782) scale(137.414 132.313)">
<stop offset="0.374025" stop-color="#537BA5"/>
<stop offset="0.729382" stop-color="#263F58"/>
</radialGradient>
<radialGradient id="paint1_radial_254_211" cx="0" cy="0" r="1" gradientUnits="userSpaceOnUse" gradientTransform="translate(85.4352 86.6855) rotate(105.287) scale(111.084 106.596)">
<stop offset="0.479167" stop-color="#E35557"/>
<stop offset="1" stop-color="#3C556F"/>
</radialGradient>
<linearGradient id="paint2_linear_254_211" x1="89.1363" y1="0" x2="89.1363" y2="185.756" gradientUnits="userSpaceOnUse">
<stop stop-color="#BC6565"/>
<stop offset="1" stop-color="#394455"/>
</linearGradient>
<radialGradient id="paint3_radial_254_211" cx="0" cy="0" r="1" gradientUnits="userSpaceOnUse" gradientTransform="translate(122.434 47.964) rotate(156.896) scale(81.6242 78.2695)">
<stop offset="0.485596" stop-color="#B15757"/>
<stop offset="1" stop-color="#3C556F"/>
</radialGradient>
<radialGradient id="paint4_radial_254_211" cx="0" cy="0" r="1" gradientUnits="userSpaceOnUse" gradientTransform="translate(77.4553 83.9394) rotate(83.4553) scale(102.484 98.3545)">
<stop stop-color="#3C556F"/>
<stop offset="1" stop-color="#B15757"/>
</radialGradient>
<linearGradient id="paint5_linear_254_211" x1="89.1362" y1="51.1081" x2="218.47" y2="277.651" gradientUnits="userSpaceOnUse">
<stop stop-color="#4A525E" stop-opacity="0.41"/>
<stop offset="0.255208" stop-color="#BF4F4F" stop-opacity="0.13"/>
</linearGradient>
<linearGradient id="paint6_linear_254_211" x1="103.917" y1="92.8777" x2="31.1546" y2="231.98" gradientUnits="userSpaceOnUse">
<stop stop-color="#C04F4F" stop-opacity="0"/>
<stop offset="1" stop-color="#30475E"/>
</linearGradient>
<linearGradient id="paint7_linear_254_211" x1="138.082" y1="74.1836" x2="161.577" y2="112.797" gradientUnits="userSpaceOnUse">
<stop offset="0.125" stop-color="#30475E"/>
<stop offset="1" stop-color="#575468" stop-opacity="0.04"/>
</linearGradient>
</defs>
</svg>
