<svg width="179" height="187" viewBox="0 0 179 187" fill="none" xmlns="http://www.w3.org/2000/svg">
<ellipse cx="89.6689" cy="99.9149" rx="86.5" ry="83.982" fill="url(#paint0_radial_207_424)"/>
<path d="M56.152 40.3265C48.7336 37.0465 39.3941 37.7592 35.6517 38.5256C26.8588 40.4329 18.3725 47.5278 15.2285 50.8369C6.22897 59.5714 -0.488892 82.7032 0.683918 80.7661C1.62217 79.2165 4.21903 74.9033 5.40018 72.9404C-0.0235939 87.1197 0.563136 101.023 0.683918 100.389C0.780544 99.8815 1.56222 97.3091 1.94098 96.0864C0.130263 119.303 13.3598 142.229 20.201 150.789C27.8767 161.415 51.6747 183.329 85.4612 185.984C117.847 188.528 133.541 176.863 137.945 169.958C133.884 176.003 121.819 176.934 116.053 176.613C120.296 175.937 132.755 171.316 138.454 169.09C167.172 154.047 170.061 139.293 167.916 133.796C169.905 142.273 159.296 149.069 153.743 151.408C155.879 149.971 158.629 146.827 161.219 143.447C161.542 141.847 163.612 132.4 164.606 127.877C167.772 112.594 164.985 104.941 160.049 94.4611C156.1 86.0769 145.213 77.3345 140.263 74.0113C134.482 69.7756 121.316 58.0637 114.904 45.1013C108.493 32.139 114.91 13.5483 118.921 5.87323C119.07 7.78882 121.124 12.8689 128.14 17.8647C136.865 24.0773 146.976 32.2369 148.571 33.9343C145.344 30.4729 142.398 27.4964 140.263 25.435C122.226 9.24108 120.131 2.12051 121.337 0.584473C110.805 12.1868 104.222 27.8212 107.02 45.1013C109.258 58.9254 121.316 70.6134 127.065 74.7294C138.367 91.3451 133.369 107.819 131.401 114.228C129.433 120.637 117.403 140.257 93.2848 140.482C73.9905 140.662 63.671 129.994 60.9231 124.638C60.9791 124.722 62.2101 125.138 66.6859 126.127C71.1616 127.116 76.1085 126.846 78.0225 126.587C82.0372 126.616 87.0021 124.245 88.9828 123.055L95.717 119.399C96.9997 118.929 99.7896 118.046 100.687 118.277C101.585 118.508 102.686 118.63 103.125 118.662C107.281 117.79 105.733 114.215 104.439 112.537C100.944 108.689 97.2242 107.021 92.382 106.572C88.5082 106.213 82.1096 108.133 79.3946 109.138C69.9667 111.197 65.431 106.853 65.5934 106.916C65.7234 106.966 66.5141 107.045 66.8931 107.078C66.0233 106.988 63.1146 104.976 61.769 103.982H62.486C60.4839 102.843 56.3475 99.3639 55.8186 94.5589C55.1573 88.5527 59.3451 86.1348 59.8962 86.1348C60.337 86.1348 61.3284 86.6539 61.769 86.9135C61.7185 86.5768 61.327 85.9032 61.1375 85.6086C65.7175 87.2755 67.3396 88.9271 67.5781 89.5445C68.218 88.3153 66.624 86.7592 65.747 86.1348C66.5721 86.421 67.7746 87.2503 68.2727 87.6292C69.5566 84.893 69.1567 81.0623 69.1778 80.5361C69.1946 80.1151 68.8901 79.4346 68.7358 79.1469C68.7526 78.726 69.2479 78.9715 69.4935 79.1469C69.4432 78.8049 69.3208 78.4484 68.9906 77.7718C68.63 77.0329 68.0216 75.9121 66.9888 74.0113C65.406 71.0983 64.7156 68.167 64.5683 67.0655C64.3298 65.1642 64.08 60.225 64.9893 55.6787C65.9146 51.052 66.4772 49.662 66.6998 49.112C66.7506 48.9865 66.7837 48.9047 66.7994 48.8382C66.8836 48.4804 68.6305 44.3761 71.2615 40.9243C73.3663 38.1628 76.8899 35.3878 78.3887 34.3455C78.3204 34.3121 77.8158 34.3594 77.572 34.3872C77.6027 34.05 79.5774 33.2249 80.5609 32.8545C76.2309 30.632 71.671 33.046 71.5561 32.8545C71.4641 32.7012 72.6673 32.1009 73.2804 31.8199C69.3259 32.433 65.7572 34.2467 64.4671 35.0769V34.3872C62.0148 35.3681 59.7157 37.5548 58.8727 38.5256V37.7209C58.2289 38.1194 56.7907 39.624 56.152 40.3265Z" fill="url(#paint1_radial_207_424)"/>
<path d="M178.676 83.0153C178.595 82.8545 176.698 85.4287 175.76 86.7359C175.899 92.4755 175.813 105.025 174.349 109.305C175.782 105.484 178.472 97.4132 178.716 93.3058L178.718 92.2675C178.725 87.235 178.717 83.0985 178.676 83.0153Z" fill="#995353"/>
<path d="M138.454 169.09C132.755 171.316 120.296 175.937 116.053 176.613C121.819 176.934 133.884 176.003 137.945 169.958C138.136 169.659 138.305 169.37 138.454 169.09Z" fill="#30475E"/>
<path d="M153.743 151.408C159.296 149.069 169.905 142.273 167.916 133.796C166.433 136.166 163.912 139.934 161.219 143.447C158.629 146.827 155.879 149.971 153.743 151.408Z" fill="url(#paint2_linear_207_424)"/>
<path d="M64.9893 55.6787C64.08 60.225 64.3298 65.1642 64.5683 67.0655C64.7156 68.167 65.406 71.0983 66.9888 74.0113C68.0216 75.9121 68.63 77.0329 68.9906 77.7718C69.6576 76.7335 71.2615 75.437 77.8808 72.6261C83.1763 70.3773 85.4468 68.8407 85.9201 68.3535C90.5076 64.2608 90.1553 60.7639 89.4057 59.5271C86.8283 57.912 84.1248 57.6832 80.9614 57.4156C78.9498 57.2454 76.7523 57.0595 74.2828 56.4913C69.2007 55.322 67.1763 50.902 66.7994 48.8382C66.7837 48.9047 66.7506 48.9865 66.6998 49.112C66.4772 49.662 65.9146 51.052 64.9893 55.6787Z" fill="url(#paint3_radial_207_424)"/>
<path fill-rule="evenodd" clip-rule="evenodd" d="M140.263 25.435C142.398 27.4964 145.344 30.4729 148.571 33.9343L148.595 33.96C155.72 41.6055 164.208 51.6082 168.353 59.3418C166.485 55.2266 164.189 50.9287 161.38 46.6144C150.279 29.5603 145.694 20.342 144.789 17.8647C142.748 19.9054 140.922 23.7618 140.263 25.435ZM178.716 93.3058L178.718 92.2675C178.74 92.5748 178.739 92.923 178.716 93.3058ZM138.454 169.09C138.302 169.391 138.132 169.68 137.945 169.958C138.136 169.659 138.305 169.37 138.454 169.09Z" fill="#B15757"/>
<path d="M19.9023 29.9807C16.5299 36.6634 15.3813 46.6693 15.2285 50.8369C18.3725 47.5278 26.8588 40.4329 35.6517 38.5256C32.9722 36.9237 30.8683 32.6655 29.9625 30.8321C29.6766 30.2534 29.51 29.9163 29.4824 29.9807C29.3905 30.1954 29.1886 30.4021 29.0992 30.4787C27.7811 28.0263 27.3238 22.8662 27.26 20.5927C25.7611 21.0645 23.9405 24.5926 22.978 26.4579C22.6117 27.1676 22.3697 27.6366 22.3169 27.6049C22.1636 27.513 22.253 26.8002 22.3169 26.4553C21.5199 27.3443 20.3751 29.738 19.9023 30.8236V29.9807Z" fill="url(#paint4_radial_207_424)"/>
<path d="M167.916 133.796C173.065 128.245 177.109 112.989 178.551 106.084C179.051 101.584 178.708 97.7577 178.716 93.3058C178.472 97.4132 175.782 105.484 174.349 109.305C175.813 105.025 175.899 92.4755 175.76 86.7359C175.634 82.0536 173.867 71.4942 168.353 59.3418C164.208 51.6082 155.72 41.6055 148.595 33.96L148.571 33.9343C146.976 32.2369 136.865 24.0773 128.14 17.8647C121.124 12.8689 119.07 7.78882 118.921 5.87323C114.91 13.5483 108.493 32.139 114.904 45.1013C121.316 58.0637 134.482 69.7756 140.263 74.0113C145.213 77.3345 156.1 86.0769 160.049 94.4611C164.985 104.941 167.772 112.594 164.606 127.877C163.612 132.4 161.542 141.847 161.219 143.447C163.912 139.934 166.433 136.166 167.916 133.796Z" fill="#B25052"/>
<path d="M59.9879 86.1329C52.1718 84.3497 36.8963 86.2756 38.3229 108.244C38.686 112.286 43.7925 116.945 61.3135 103.251C59.7054 102.033 57.977 99.8309 57.3138 98.8823C53.6049 90.8938 57.5511 87.0541 59.9879 86.1329Z" fill="url(#paint5_linear_207_424)"/>
<path d="M82.4288 125.833C75.1703 127.383 58.5439 127.852 50.1065 117.328C48.1031 115.627 46.1376 112.451 54.3031 113.358C64.5099 114.492 96.9455 120.276 82.4288 125.833Z" fill="url(#paint6_linear_207_424)"/>
<path d="M153.655 126.094C157.049 100.53 137.348 81.2251 127.073 74.7681C144.747 93.9977 141.495 109.693 138.95 126.094C136.405 142.496 127.073 136.982 123.821 145.466C121.219 152.253 127.733 155.552 131.315 156.353C137.348 156.919 150.262 151.659 153.655 126.094Z" fill="url(#paint7_linear_207_424)"/>
<defs>
<radialGradient id="paint0_radial_207_424" cx="0" cy="0" r="1" gradientUnits="userSpaceOnUse" gradientTransform="translate(109.329 61.0028) rotate(99.0889) scale(124.457 128.188)">
<stop offset="0.374025" stop-color="#537BA5"/>
<stop offset="0.729382" stop-color="#263F58"/>
</radialGradient>
<radialGradient id="paint1_radial_207_424" cx="0" cy="0" r="1" gradientUnits="userSpaceOnUse" gradientTransform="translate(85.986 87.27) rotate(105.287) scale(111.084 106.596)">
<stop offset="0.479167" stop-color="#E35557"/>
<stop offset="1" stop-color="#3C556F"/>
</radialGradient>
<linearGradient id="paint2_linear_207_424" x1="89.6871" y1="0.584473" x2="89.6871" y2="186.34" gradientUnits="userSpaceOnUse">
<stop stop-color="#BC6565"/>
<stop offset="1" stop-color="#394455"/>
</linearGradient>
<radialGradient id="paint3_radial_207_424" cx="0" cy="0" r="1" gradientUnits="userSpaceOnUse" gradientTransform="translate(122.985 48.5485) rotate(156.896) scale(81.6242 78.2695)">
<stop offset="0.485596" stop-color="#B15757"/>
<stop offset="1" stop-color="#3C556F"/>
</radialGradient>
<radialGradient id="paint4_radial_207_424" cx="0" cy="0" r="1" gradientUnits="userSpaceOnUse" gradientTransform="translate(78.0061 84.5239) rotate(83.4553) scale(102.484 98.3545)">
<stop stop-color="#3C556F"/>
<stop offset="1" stop-color="#B15757"/>
</radialGradient>
<linearGradient id="paint5_linear_207_424" x1="49.7715" y1="92.9915" x2="69.3702" y2="123.832" gradientUnits="userSpaceOnUse">
<stop stop-color="#4A525E" stop-opacity="0.41"/>
<stop offset="0.255208" stop-color="#BF4F4F" stop-opacity="0.13"/>
</linearGradient>
<linearGradient id="paint6_linear_207_424" x1="70.3569" y1="119.934" x2="68.1279" y2="132.382" gradientUnits="userSpaceOnUse">
<stop stop-color="#C04F4F" stop-opacity="0"/>
<stop offset="1" stop-color="#30475E"/>
</linearGradient>
<linearGradient id="paint7_linear_207_424" x1="138.633" y1="74.7681" x2="162.128" y2="113.382" gradientUnits="userSpaceOnUse">
<stop offset="0.125" stop-color="#30475E"/>
<stop offset="1" stop-color="#575468" stop-opacity="0.04"/>
</linearGradient>
</defs>
</svg>
