<svg width="816" height="1518" viewBox="0 0 816 1518" fill="none" xmlns="http://www.w3.org/2000/svg">
<g opacity="0.81">
<path d="M597.389 604.316L540.858 580.56L554.769 619.53L597.389 604.316Z" fill="#FFF8B8"/>
<path d="M767.888 870.081L742.121 797.262L705.748 759.608L735.399 708.758L712.993 708.758L677.143 729.997L583.038 632.578L616.647 594.488L602.303 594.488L562.873 626.142L509.099 570.962L497.896 570.962L530.384 615.774L602.303 729.997L444.121 729.997L477.73 759.608L639.012 788.3L644.655 797.262L649.136 851.036L597.602 906.747L472.129 993.314L398.189 1006.76L767.888 1006.76L705.748 983.232L767.888 870.081Z" fill="#222831"/>
<path d="M487.814 688.593L543.829 742.367L551.671 764.773L449.724 792.781L232.386 764.773L259.273 718.841L309.686 634.819L413.874 625.856L459.806 696.435L487.814 688.593Z" fill="#995353"/>
<path d="M595.362 597.848L529.265 597.848L283.919 597.848L283.919 557.518L376.904 481.337L462.047 493.661L475.49 463.413L556.152 456.691L624.49 525.029L595.362 597.848Z" fill="#995353"/>
<path d="M566.234 606.811L598.722 606.811L812.7 606.811L861.993 482.458L829.504 427.563L779.091 433.165L752.203 401.796L634.572 395.074L519.181 439.886L497.896 539.593L566.234 606.811Z" fill="#995353"/>
<path d="M641.294 719.961L723.076 719.961L971.783 719.961L993.068 698.675L928.091 643.781L835.106 575.443L777.971 477.977L648.016 509.345L608.806 590.006L608.806 656.104L641.294 719.961Z" fill="#995353"/>
<path d="M805.414 487.136L613.741 510.551L717.793 595.042L805.414 487.136Z" fill="#C55B5B"/>
<path d="M818.504 546.799L699.165 582.746L774.627 625.056L818.504 546.799Z" fill="#C55B5B"/>
<path d="M887.548 530.324L780.505 594.167L863.982 616.892L887.548 530.324Z" fill="#C55B5B"/>
<path d="M761.993 498.76L848.691 588.301L851.658 501.838L761.993 498.76Z" fill="#C55B5B"/>
<path d="M703.414 418.857L810.971 529.939L814.652 422.674L703.414 418.857Z" fill="#C55B5B"/>
<path d="M767.822 440.781L626.275 503.007L725.568 543.752L767.822 440.781Z" fill="#C55B5B"/>
<path d="M722.812 583.625L589.087 506.002L614.733 610.221L722.812 583.625Z" fill="#C55B5B"/>
<path d="M593.249 537.938L711.255 438.027L604.474 427.203L593.249 537.938Z" fill="#C55B5B"/>
<path d="M633.852 455.626L784.366 420.225L694.155 362.075L633.852 455.626Z" fill="#C55B5B"/>
<path d="M808.272 499.856L876.243 483.869L835.505 457.609L808.272 499.856Z" fill="#C55B5B"/>
<path d="M747.196 409.798L815.167 393.811L774.429 367.551L747.196 409.798Z" fill="#C55B5B"/>
<path d="M548.299 494.919L410.23 458.366L458.49 544.967L548.299 494.919Z" fill="#CC7777"/>
<path d="M540.906 539.49L449.074 531.407L489.282 581.188L540.906 539.49Z" fill="#CC7777"/>
<path d="M572.354 523.098L585.545 614.337L624.778 563.785L572.354 523.098Z" fill="#CC7777"/>
<path d="M592.847 547.134L501.8 561.587L552.891 600.117L592.847 547.134Z" fill="#CC7777"/>
<path d="M515.285 490.98L550.241 576.283L576.022 517.716L515.285 490.98Z" fill="#CC7777"/>
<path d="M496.996 420.016L540.361 525.842L572.344 453.184L496.996 420.016Z" fill="#CC7777"/>
<path d="M524.53 476.643L410.23 480.51L467.235 535.759L524.53 476.643Z" fill="#CC7777"/>
<path d="M465.072 538.504L394.547 448.473L383.542 527.091L465.072 538.504Z" fill="#CC7777"/>
<path d="M388.636 471.549L497.117 435.335L426.753 398.579L388.636 471.549Z" fill="#CC7777"/>
<path d="M439.125 426.167L552.217 443.186L506.23 378.477L439.125 426.167Z" fill="#CC7777"/>
<path d="M546.77 504.441L597.841 512.126L577.074 482.904L546.77 504.441Z" fill="#FFF8B8"/>
<path d="M529.552 425.818L580.624 433.503L559.857 404.281L529.552 425.818Z" fill="#CC7777"/>
<path d="M863.349 696.356L658.411 634.725L726.36 766.822L863.349 696.356Z" fill="#D66C6C"/>
<path d="M850.051 762.733L712.933 746.045L770.661 822.599L850.051 762.733Z" fill="#D66C6C"/>
<path d="M927.455 776.774L790.388 793.873L864.974 854.123L927.455 776.774Z" fill="#D66C6C"/>
<path d="M814.107 688.809L862.195 818.298L903.727 731.878L814.107 688.809Z" fill="#D66C6C"/>
<path d="M790.26 581.626L849.918 742.268L901.441 635.057L790.26 581.626Z" fill="#D66C6C"/>
<path d="M845.853 632.569L674.492 632.654L757.101 718.237L845.853 632.569Z" fill="#D66C6C"/>
<path d="M718.061 774.683L687.851 606.006L618.124 702.374L718.061 774.683Z" fill="#D66C6C"/>
<path d="M625.415 653.388L789.677 604.572L686.14 546.016L625.415 653.388Z" fill="#D66C6C"/>
<path d="M703.288 587.948L871.798 619.079L806.161 519.88L703.288 587.948Z" fill="#D66C6C"/>
<path d="M471.618 726.201L304.567 675.964L359.954 783.64L471.618 726.201Z" fill="#D66C6C"/>
<path d="M460.78 780.308L349.01 766.705L396.066 829.107L460.78 780.308Z" fill="#D66C6C"/>
<path d="M499.835 761.578L512.224 873.488L562.173 813.377L499.835 761.578Z" fill="#D66C6C"/>
<path d="M523.874 791.753L412.146 805.691L472.944 854.802L523.874 791.753Z" fill="#D66C6C"/>
<path d="M431.48 720.05L470.679 825.6L504.532 755.157L431.48 720.05Z" fill="#D66C6C"/>
<path d="M412.042 632.682L460.671 763.626L502.669 676.236L412.042 632.682Z" fill="#D66C6C"/>
<path d="M457.358 674.207L317.676 674.277L385.013 744.038L457.358 674.207Z" fill="#D66C6C"/>
<path d="M368.252 776.019L285.826 663.249L269.193 758.77L368.252 776.019Z" fill="#D66C6C"/>
<path d="M277.671 691.177L411.566 651.386L327.169 603.655L277.671 691.177Z" fill="#D66C6C"/>
<path d="M341.148 637.835L478.505 663.211L425.003 582.35L341.148 637.835Z" fill="#D66C6C"/>
<path d="M469.363 737.762L531.393 749.222L507.232 712.706L469.363 737.762Z" fill="#D66C6C"/>
<path d="M451.546 641.088L513.576 652.547L489.414 616.031L451.546 641.088Z" fill="#D66C6C"/>
<path d="M436.87 695.594L309.723 546.68L296.578 681.962L436.87 695.594Z" fill="#D66C6C"/>
<path d="M183.995 715.126L373.823 667.097L258.361 595.387L183.995 715.126Z" fill="#D66C6C"/>
<path d="M378.638 629.392L322.107 605.636L336.018 644.606L378.638 629.392Z" fill="#FFF8B8"/>
<path d="M731.05 598.554L720.449 538.158L695.198 570.939L731.05 598.554Z" fill="#FFF8B8"/>
<path d="M753.859 747.838L746.711 707.11L729.683 729.215L753.859 747.838Z" fill="#FFF8B8"/>
<path d="M450.564 345.021L461.272 384.961L476.286 361.441L450.564 345.021Z" fill="#FFF8B8"/>
<path d="M788.685 1004.85L341.413 1001.62L556.48 1226.71L788.685 1004.85Z" fill="#A75151"/>
<path d="M885.658 1027.33L631.755 1025.49L753.842 1153.27L885.658 1027.33Z" fill="#D26A6A"/>
<path d="M674.599 1096.58L536.979 1095.59L603.152 1164.85L674.599 1096.58Z" fill="#DE8383"/>
</g>
<g opacity="0.81">
<path d="M303.275 107.546L454.128 41.1704L414.218 148.716L303.275 107.546Z" fill="#D26A6A"/>
<path d="M421.896 163.164L461.088 146.15L451.537 173.511L421.896 163.164Z" fill="#F05454"/>
<path d="M313.328 244.308L355.273 252.443L331.921 269.606L313.328 244.308Z" fill="#F05454"/>
<path d="M268.961 97.0173L309.732 23.9267L326.693 79.3495L268.961 97.0173Z" fill="#C04F4F"/>
<path d="M299.874 186.984L360.928 170.63L340.215 208.848L299.874 186.984Z" fill="#FFF8B8"/>
</g>
<g opacity="0.81">
<path d="M201.526 1373L248.908 1302L261.434 1360.07L201.526 1373Z" fill="#E27C7C"/>
<path d="M160.526 1518L207.908 1447L220.434 1505.07L160.526 1518Z" fill="#E27C7C"/>
<path d="M225 1391.21L372.469 1408.73L292.268 1473.94L225 1391.21Z" fill="#E27C7C"/>
<path d="M141 1488.92L195.922 1459.05L184.241 1500.97L141 1488.92Z" fill="#FFF8B8"/>
</g>
</svg>
