<svg width="1390" height="789" viewBox="0 0 1390 789" fill="none" xmlns="http://www.w3.org/2000/svg">
<g opacity="0.8">
<path d="M208.703 466.414L259.699 468.133L235.621 492.747L208.703 466.414Z" fill="#FFF8B8"/>
<path d="M34.377 674.855L55.818 614.26L86.0847 582.928L61.4114 540.615H80.0558L109.887 558.288L188.193 477.224L160.227 445.528H172.163L204.973 471.869L249.72 425.952H259.042L232.008 463.241L172.163 558.288H303.789L275.822 582.928L141.617 606.803L136.921 614.26L133.192 659.007L176.075 705.365L280.483 777.399L342.01 788.586H34.377L86.0847 769.009L34.377 674.855Z" fill="#222831"/>
<path d="M267.433 523.835L220.821 568.582L214.296 587.226L299.128 610.532L479.979 587.226L457.606 549.005L415.656 479.089L328.959 471.631L290.738 530.361L267.433 523.835Z" fill="#995353"/>
<path d="M177.939 448.325H232.94H437.096V414.765L359.722 351.374L288.873 361.629L277.687 336.459L210.567 330.865L153.701 387.731L177.939 448.325Z" fill="#995353"/>
<path d="M202.176 455.783H175.141H-2.91293L-43.9307 352.307L-16.8962 306.628L25.0537 311.289L47.427 285.187L145.31 279.593L241.329 316.882L259.041 399.85L202.176 455.783Z" fill="#995353"/>
<path d="M139.717 549.937H71.6653H-135.288L-153 532.225L-98.9312 486.546L-21.5568 429.681L25.9865 348.578L134.124 374.68L166.752 441.8V496.801L139.717 549.937Z" fill="#995353"/>
<path d="M92.2517 305.444L228.977 389.851L120.924 417.499L92.2517 305.444Z" fill="#C55B5B"/>
<path d="M61.5928 345.984L139.283 414.688L67.5206 420.404L61.5928 345.984Z" fill="#C55B5B"/>
<path d="M50.6278 307.623L-34.0613 367.488L-23.1689 296.327L50.6278 307.623Z" fill="#C55B5B"/>
<path d="M15.1411 309.502L73.8279 395.012L2.82443 383.135L15.1411 309.502Z" fill="#C55B5B"/>
<path d="M121.025 329.342L24.3322 366.846L52.1817 300.461L121.025 329.342Z" fill="#C55B5B"/>
<path d="M193.11 289.335L73.1544 335.862L107.704 253.506L193.11 289.335Z" fill="#C55B5B"/>
<path d="M136.797 283.491L222.127 379.787L132.897 376.026L136.797 283.491Z" fill="#C55B5B"/>
<path d="M121.104 407.122L249.193 394.993L193.537 464.84L121.104 407.122Z" fill="#C55B5B"/>
<path d="M234.933 417.683L180.513 301.096L264.989 330.078L234.933 417.683Z" fill="#C55B5B"/>
<path d="M232.892 341.338L131.449 262.196L219.872 249.64L232.892 341.338Z" fill="#C55B5B"/>
<path d="M85.6633 314.064L39.8524 278.324L79.7833 272.654L85.6633 314.064Z" fill="#C55B5B"/>
<path d="M163.171 267.25L117.36 231.511L157.291 225.841L163.171 267.25Z" fill="#C55B5B"/>
<path d="M303.563 374.765L420.643 395.19L354.025 443.85L303.563 374.765Z" fill="#CC7777"/>
<path d="M293.639 411.026L365.863 436.878L318.146 460.51L293.639 411.026Z" fill="#CC7777"/>
<path d="M275.575 387.692L233.85 452.063L221.79 400.199L275.575 387.692Z" fill="#CC7777"/>
<path d="M251.719 398.727L315.506 441.338L263.48 452.679L251.719 398.727Z" fill="#CC7777"/>
<path d="M329.888 383.277L273.778 435.587L274.676 382.347L329.888 383.277Z" fill="#CC7777"/>
<path d="M368.409 336.006L298.801 400.901L299.914 334.852L368.409 336.006Z" fill="#CC7777"/>
<path d="M328.129 347.455L413.176 390.159L350.861 412.079L328.129 347.455Z" fill="#CC7777"/>
<path d="M351.301 436.674L435.941 393.17L416.897 456.423L351.301 436.674Z" fill="#CC7777"/>
<path d="M432.377 412.669L362.987 347.543L428.963 344.25L432.377 412.669Z" fill="#CC7777"/>
<path d="M410.01 360.796L318.608 334.299L375.888 301.395L410.01 360.796Z" fill="#CC7777"/>
<path d="M301.406 382.494L260.129 370.528L285.997 355.669L301.406 382.494Z" fill="#FFF8B8"/>
<path d="M341.783 329.06L300.506 317.094L326.374 302.234L341.783 329.06Z" fill="#CC7777"/>
<path d="M-24.3533 443.418L151.997 468.16L54.6644 544.356L-24.3533 443.418Z" fill="#D66C6C"/>
<path d="M-37.4048 498.216L72.0427 533.324L1.7658 571.095L-37.4048 498.216Z" fill="#D66C6C"/>
<path d="M15.4925 454.851L-65.9215 535.987L-67.2356 456.213L15.4925 454.851Z" fill="#D66C6C"/>
<path d="M70.8199 382.138L-30.1808 482.794L-31.8111 383.829L70.8199 382.138Z" fill="#D66C6C"/>
<path d="M11.071 401.294L140.563 460.998L48.3382 496.935L11.071 401.294Z" fill="#D66C6C"/>
<path d="M58.2001 553.185L139.74 436.206L158.903 533.313L58.2001 553.185Z" fill="#D66C6C"/>
<path d="M170.441 493.75L63.2756 399.684L161.912 391.46L170.441 493.75Z" fill="#D66C6C"/>
<path d="M134.357 417.186L-3.84471 382.068L80.2912 329.934L134.357 417.186Z" fill="#D66C6C"/>
<path d="M30.5996 373.065L-31.811 357.206L6.18408 333.662L30.5996 373.065Z" fill="#D66C6C"/>
<path d="M292.571 513.056L436.32 533.224L356.981 595.334L292.571 513.056Z" fill="#D66C6C"/>
<path d="M281.932 557.724L371.146 586.341L313.861 617.13L281.932 557.724Z" fill="#D66C6C"/>
<path d="M258.931 529.974L210.618 610.249L193.786 547.43L258.931 529.974Z" fill="#D66C6C"/>
<path d="M230.261 544.416L309.859 593.836L246.813 609.796L230.261 544.416Z" fill="#D66C6C"/>
<path d="M325.05 522.376L258.687 588.513L257.616 523.487L325.05 522.376Z" fill="#D66C6C"/>
<path d="M370.15 463.105L287.821 545.153L286.492 464.483L370.15 463.105Z" fill="#D66C6C"/>
<path d="M321.447 478.72L427 527.387L351.824 556.679L321.447 478.72Z" fill="#D66C6C"/>
<path d="M353.361 586.685L454.91 530.136L434.237 608.124L353.361 586.685Z" fill="#D66C6C"/>
<path d="M451.354 554.083L364 477.408L444.402 470.704L451.354 554.083Z" fill="#D66C6C"/>
<path d="M421.94 491.673L309.288 463.048L377.87 420.551L421.94 491.673Z" fill="#D66C6C"/>
<path d="M290.251 522.579L239.378 509.652L270.349 490.461L290.251 522.579Z" fill="#D66C6C"/>
<path d="M337.365 455.709L286.492 442.782L317.463 423.591L337.365 455.709Z" fill="#D66C6C"/>
<path d="M329.489 502.015L477.418 433.712L440.271 540.538L329.489 502.015Z" fill="#D66C6C"/>
<path d="M513.823 604.788L387.059 502.419L499.288 488.402L513.823 604.788Z" fill="#D66C6C"/>
<path d="M365.315 561.5L416.311 563.219L392.234 587.833L365.315 561.5Z" fill="#FFF8B8"/>
<path d="M109.682 415.54L138.715 373.58L146.391 407.145L109.682 415.54Z" fill="#FFF8B8"/>
<path d="M40.4851 520.435L60.0629 492.14L65.2394 514.774L40.4851 520.435Z" fill="#FFF8B8"/>
<path d="M409.922 321.528L387.928 347.99L384.765 324.988L409.922 321.528Z" fill="#FFF8B8"/>
</g>
<g opacity="0.83">
<path d="M1163.98 656.145L1108.74 786.731H1327.72L1302.61 670.208L1208.18 642.082L1163.98 656.145Z" fill="#7E3A3A"/>
<path d="M1279.5 726.461L1225.26 786.731H1102.71H1084.63H1063.53L1002.26 738.515L1025.36 664.181L1102.71 608.933L1149.92 613.956L1190.1 701.348L1245.35 679.249L1279.5 726.461Z" fill="#995353"/>
<path d="M1286.54 715.411L1248.37 737.51L1319.69 776.686L1330.74 771.664L1337.77 768.65L1342.79 774.677L1344.8 781.709L1345.8 784.722L1366.9 785.727L1357.86 784.722L1351.83 782.713L1348.82 781.709L1347.81 770.659L1344.8 764.632L1334.75 762.623L1327.72 766.641L1316.67 762.623L1300.6 747.555L1316.67 733.492L1332.74 731.483L1348.82 735.501L1364.89 753.583L1376.94 759.61L1386.99 756.596L1390 751.573V744.542L1386.99 742.533L1381.96 743.537L1385.98 744.542V749.564L1377.95 751.573L1370.92 747.555L1357.86 728.47L1312.65 712.398L1286.54 715.411Z" fill="#222831"/>
<path d="M1077.29 717.843L1115.46 739.942L1044.14 779.118L1033.1 774.096L1026.06 771.082L1021.04 777.109L1019.4 782.187L1015.43 786.15L1005.97 787.22L996.933 788.159L1005.97 785.377L1011.47 782.187L1015.43 778.225L1016.02 773.091L1019.03 767.064L1029.08 765.055L1036.11 769.073L1047.16 765.055L1063.23 749.987L1047.16 735.924L1031.09 733.915L1015.43 740.584L992.915 760.395L975.812 762.376L967.887 779.118L956 788.159L964.896 777.109L967.887 767.064V759.028L973.831 754.452L977.847 751.996L985.717 754.005L993.642 748.508L1005.97 730.902L1051.18 714.83L1077.29 717.843Z" fill="#222831"/>
<path d="M1156.78 733.578L1113.25 740.688L1108.55 733.578L1112.51 722.759L1164.38 716.816L1178.89 700.49L1189.77 691.061L1193.73 677.193L1195.06 647.177L1207.03 634.802L1202.55 616.83L1206.01 602.303L1206.13 616.488L1210.19 626.152L1215.28 632.367L1213.59 639.674L1212.04 644.119L1204.68 647.555L1202.03 656.83L1203.66 678.264L1178.89 719.351L1156.78 733.578Z" fill="#222831"/>
<path d="M1223.25 656.666L1286.67 605.697L1282.12 661.466L1223.25 656.666Z" fill="#B34C4C"/>
<path d="M1157.72 674.761L1189.5 622.996L1200.32 663.348L1157.72 674.761Z" fill="#B34C4C"/>
<path d="M1271.15 765.979L1297.8 676.281L1329.98 732.014L1271.15 765.979Z" fill="#B34C4C"/>
<path d="M1235.34 774.974L1261.99 685.276L1294.17 741.009L1235.34 774.974Z" fill="#B34C4C"/>
<path d="M1283.87 696.886L1271.97 647.104L1302.45 664.706L1283.87 696.886Z" fill="#B34C4C"/>
<path d="M1261.52 658.173L1255.99 635.05L1270.15 643.226L1261.52 658.173Z" fill="#FFF8B8"/>
<path d="M1247.71 706.931L1235.8 657.149L1266.29 674.751L1247.71 706.931Z" fill="#B34C4C"/>
<path d="M1205.52 684.832L1193.62 635.05L1224.1 652.652L1205.52 684.832Z" fill="#B34C4C"/>
<path d="M1208.71 678.089L1223.29 629.023L1240.89 659.51L1208.71 678.089Z" fill="#B34C4C"/>
<path d="M1287.54 784.767L1324.7 749.564V784.767H1287.54Z" fill="#B34C4C"/>
<path d="M1221.25 732.432L1302.29 756.513L1251.94 785.588L1221.25 732.432Z" fill="#B34C4C"/>
<path d="M1018.33 786.708L1110.55 699.339V786.708H1018.33Z" fill="#D66C6C"/>
<path d="M962.078 717.301L1124.36 629.751L1091.31 752.183L962.078 717.301Z" fill="#D66C6C"/>
<path d="M1086.64 694.059L1182.51 772.439L1098.03 783.232L1086.64 694.059Z" fill="#D66C6C"/>
<path d="M1149.6 687.285L1225.64 785.018L1140.88 776.758L1149.6 687.285Z" fill="#D66C6C"/>
<path d="M1115.36 657.149L1155.57 708.827L1110.75 704.46L1115.36 657.149Z" fill="#D66C6C"/>
<path d="M1043.03 649.113L1083.24 700.791L1038.42 696.424L1043.03 649.113Z" fill="#FFF8B8"/>
<path d="M1118.78 614.954L1147.61 632.652L1125.14 638.674L1118.78 614.954Z" fill="#FFF8B8"/>
<path d="M1094.68 739.513L1123.5 757.212L1101.03 763.233L1094.68 739.513Z" fill="#FFF8B8"/>
<path d="M1168.8 754.823L1185.78 765.248L1172.54 768.794L1168.8 754.823Z" fill="#FFF8B8"/>
<path d="M1197.73 675.23L1237.94 726.908L1193.12 722.541L1197.73 675.23Z" fill="#D66C6C"/>
<path d="M1216.59 683.709L1279.35 702.358L1240.35 724.875L1216.59 683.709Z" fill="#D66C6C"/>
<path d="M1243.34 723.861L1280.1 715.068L1267.11 737.582L1243.34 723.861Z" fill="#D66C6C"/>
<path d="M1197.13 762.681L1254.64 748.927L1234.3 784.143L1197.13 762.681Z" fill="#D66C6C"/>
<path d="M1205.7 697.856L1241.88 760.101L1193.69 748.72L1205.7 697.856Z" fill="#D66C6C"/>
<path d="M1168.97 651.122L1205.14 713.368L1156.95 701.987L1168.97 651.122Z" fill="#D66C6C"/>
<path d="M1020.3 707.375L1056.47 769.62L1008.29 758.239L1020.3 707.375Z" fill="#D66C6C"/>
<path d="M1120.44 622.612L1054.49 651.503L1071.26 604.915L1120.44 622.612Z" fill="#D66C6C"/>
<path d="M1054.14 674.847L988.196 703.738L1004.96 657.15L1054.14 674.847Z" fill="#D66C6C"/>
<path d="M1016.32 634.435L1097.65 636.633L1058.09 676.199L1016.32 634.435Z" fill="#D66C6C"/>
<path d="M1102.71 662.693L1166.12 611.724L1161.58 667.493L1102.71 662.693Z" fill="#D66C6C"/>
<path d="M1104.3 636.918L1089.71 592L1119.04 605.96L1104.3 636.918Z" fill="#D66C6C"/>
</g>
<path d="M206.111 190.311L117.595 152.528L179.36 126.596L206.111 190.311Z" fill="#D26A6A"/>
<path d="M240.401 119.36L217.502 109.452L232.976 102.598L240.401 119.36Z" fill="#F05454"/>
<path d="M273.274 210.943L225.848 222.751L242.695 193.395L273.274 210.943Z" fill="#C04F4F"/>
<path d="M252.831 191.172L221.485 171.683L246.041 165.251L252.831 191.172Z" fill="#FFF8B8"/>
<path d="M814.695 638.684L807.025 662.426L798.72 647.681L814.695 638.684Z" fill="#F05454"/>
<path d="M902.708 597.192L919.004 643.27L888.169 629.312L902.708 597.192Z" fill="#C04F4F"/>
<path d="M881.62 108.553L1032.54 42.1493L992.609 149.741L881.62 108.553Z" fill="#D26A6A"/>
<path d="M1000.29 164.195L1039.5 147.174L1029.94 174.546L1000.29 164.195Z" fill="#F05454"/>
<path d="M891.677 245.374L933.639 253.512L910.278 270.682L891.677 245.374Z" fill="#F05454"/>
<path d="M847.291 98.0201L888.079 24.8985L905.047 80.3448L847.291 98.0201Z" fill="#C04F4F"/>
<path d="M878.217 188.025L939.297 171.664L918.575 209.898L878.217 188.025Z" fill="#FFF8B8"/>
</svg>
