<svg width="649" height="506" viewBox="0 0 649 506" fill="none" xmlns="http://www.w3.org/2000/svg">
<g opacity="0.85">
<path d="M345.575 334.477L271.954 508.49H563.761L530.297 353.217L404.472 315.737L345.575 334.477Z" fill="#7E3A3A"/>
<path d="M263.924 271.564L326.836 278.257L434 211L507 120L601 27.4996L701 38.9996L724 180V508.49H427.229H263.924H239.83H211.72L130.067 444.239L160.854 345.185L263.924 271.564Z" fill="#995353"/>
<path d="M314.5 405L422.416 508.721H714.223L707.5 352L689.5 252L608.5 242L533 218.5L314.5 405Z" fill="#7E3A3A"/>
<path d="M104.731 383.791L31.4663 507.722H321.86L288.558 397.137L163.343 370.444L104.731 383.791Z" fill="#7E3A3A"/>
<path d="M508.881 413.452L458.016 442.9L553.054 495.104L567.778 488.412L577.148 484.396L583.841 492.427L586.518 501.797L587.857 505.813L615.966 507.151L603.919 505.813L595.888 503.136L591.872 501.797L590.534 487.073L586.518 479.042L573.132 476.364L563.762 481.719L549.038 476.364L527.621 456.286L549.038 437.546L570.455 434.869L591.872 440.223L613.289 464.317L629.352 472.349L642.738 468.333L646.753 461.64V452.27L642.738 449.593L636.045 450.932L641.399 452.27V458.963L630.691 461.64L621.321 456.286L603.919 430.853L543.684 409.436L508.881 413.452Z" fill="#222831"/>
<path d="M230.055 416.693L280.92 446.141L185.882 498.345L171.158 491.652L161.788 487.637L155.095 495.668L152.904 502.435L147.624 507.715L135.017 509.141L122.97 510.392L135.017 506.686L142.344 502.435L147.624 497.155L148.403 490.314L152.418 482.282L165.804 479.605L175.174 484.959L189.898 479.605L211.315 459.527L189.898 440.787L168.481 438.11L147.624 446.996L117.616 473.396L94.8248 476.036L84.265 498.345L68.4253 510.392L80.279 495.668L84.265 482.282V471.574L92.1849 465.476L97.5371 462.204L108.025 464.881L118.584 457.556L135.017 434.094L195.252 412.677L230.055 416.693Z" fill="#222831"/>
<path d="M335.977 437.661L277.971 447.134L271.699 437.661L276.979 423.243L346.098 415.323L365.438 393.569L379.937 381.004L385.217 362.524L386.985 322.525L402.936 306.035L396.959 282.087L401.571 262.729L401.739 281.631L407.142 294.509L413.931 302.791L411.672 312.528L409.608 318.451L399.8 323.03L396.277 335.389L398.443 363.951L365.438 418.702L335.977 437.661Z" fill="#222831"/>
<path d="M424.556 335.17L509.06 267.252L503 341.567L424.556 335.17Z" fill="#B34C4C"/>
<path d="M337.233 359.284L379.583 290.304L393.991 344.075L337.233 359.284Z" fill="#B34C4C"/>
<path d="M488.386 480.836L523.901 361.308L566.78 435.576L488.386 480.836Z" fill="#B34C4C"/>
<path d="M524.7 278.437L525.189 153.745L587.212 212.967L524.7 278.437Z" fill="#B34C4C"/>
<path d="M440.663 492.823L476.178 373.295L519.057 447.562L440.663 492.823Z" fill="#B34C4C"/>
<path d="M505.336 388.766L489.469 322.429L530.094 345.884L505.336 388.766Z" fill="#B34C4C"/>
<path d="M475.551 337.179L468.181 306.367L487.051 317.261L475.551 337.179Z" fill="#FFF8B8"/>
<path d="M457.15 402.151L441.283 335.814L481.908 359.269L457.15 402.151Z" fill="#B34C4C"/>
<path d="M400.93 372.703L385.063 306.367L425.688 329.821L400.93 372.703Z" fill="#B34C4C"/>
<path d="M405.176 363.718L424.603 298.335L448.058 338.96L405.176 363.718Z" fill="#B34C4C"/>
<path d="M510.225 505.872L559.741 458.962V505.872H510.225Z" fill="#B34C4C"/>
<path d="M421.878 436.132L529.88 468.223L462.774 506.966L421.878 436.132Z" fill="#B34C4C"/>
<path d="M571.429 323.321L655.933 255.403L649.873 329.718L571.429 323.321Z" fill="#B34C4C"/>
<path d="M560.124 103.931L622.131 15L637.203 88.0225L560.124 103.931Z" fill="#B34C4C"/>
<path d="M484.106 347.435L526.456 278.455L540.864 332.226L484.106 347.435Z" fill="#B34C4C"/>
<path d="M483.097 151.616L504.353 73.5139L533.294 121.068L483.097 151.616Z" fill="#B34C4C"/>
<path d="M635.259 468.988L670.774 349.46L713.652 423.727L635.259 468.988Z" fill="#B34C4C"/>
<path d="M662.322 225.786L662.81 101.094L724.834 160.316L662.322 225.786Z" fill="#B34C4C"/>
<path d="M587.536 480.975L623.052 361.447L665.93 435.714L587.536 480.975Z" fill="#B34C4C"/>
<path d="M619.892 250.702L620.381 126.011L682.405 185.233L619.892 250.702Z" fill="#B34C4C"/>
<path d="M618.359 194.488L653.874 74.9596L696.753 149.227L618.359 194.488Z" fill="#B34C4C"/>
<path d="M553.359 257.488L588.874 137.96L631.753 212.227L553.359 257.488Z" fill="#B34C4C"/>
<path d="M652.209 376.918L636.342 310.581L676.967 334.036L652.209 376.918Z" fill="#B34C4C"/>
<path d="M652.711 132.663L618.839 73.4598L664.419 84.5509L652.711 132.663Z" fill="#B34C4C"/>
<path d="M683.032 90.4307L667.165 24.0939L707.79 47.5487L683.032 90.4307Z" fill="#B34C4C"/>
<path d="M618.032 153.431L602.165 87.0939L642.79 110.549L618.032 153.431Z" fill="#B34C4C"/>
<path d="M622.424 325.331L615.054 294.518L633.923 305.412L622.424 325.331Z" fill="#FFF8B8"/>
<path d="M653.247 38.844L645.877 8.03119L664.746 18.9258L653.247 38.844Z" fill="#FFF8B8"/>
<path d="M588.247 101.844L580.877 71.0312L599.746 81.9258L588.247 101.844Z" fill="#FFF8B8"/>
<path d="M604.022 390.303L588.155 323.966L628.78 347.421L604.022 390.303Z" fill="#B34C4C"/>
<path d="M634.845 103.816L618.978 37.4793L659.603 60.9341L634.845 103.816Z" fill="#B34C4C"/>
<path d="M569.845 166.816L553.978 100.479L594.603 123.934L569.845 166.816Z" fill="#B34C4C"/>
<path d="M547.802 360.855L531.935 294.518L572.56 317.973L547.802 360.855Z" fill="#B34C4C"/>
<path d="M547.999 146.593L514.126 87.3897L559.706 98.4808L547.999 146.593Z" fill="#B34C4C"/>
<path d="M578.625 74.3681L562.758 8.03128L603.383 31.4861L578.625 74.3681Z" fill="#B34C4C"/>
<path d="M513.625 137.368L497.758 71.0313L538.383 94.4861L513.625 137.368Z" fill="#B34C4C"/>
<path d="M552.049 351.869L571.476 286.487L594.931 327.112L552.049 351.869Z" fill="#B34C4C"/>
<path d="M582.872 65.3829L602.299 4.17088e-05L625.754 40.625L582.872 65.3829Z" fill="#B34C4C"/>
<path d="M517.872 128.383L537.299 63L560.754 103.625L517.872 128.383Z" fill="#B34C4C"/>
<path d="M622.921 270.537L672.436 223.628V270.537H622.921Z" fill="#B34C4C"/>
<path d="M556.817 440.868L664.819 472.958L597.713 511.701L556.817 440.868Z" fill="#B34C4C"/>
<path d="M82.951 463.967L28.1898 370.399L100.807 387.316L82.951 463.967Z" fill="#B34C4C"/>
<path d="M236.418 422.239L123.407 369.543L203.17 338.045L236.418 422.239Z" fill="#B34C4C"/>
<path d="M241.26 471.205L128.249 418.509L208.012 387.011L241.26 471.205Z" fill="#B34C4C"/>
<path d="M147.838 391.94L79.8894 397.885L109.06 361.148L147.838 391.94Z" fill="#B34C4C"/>
<path d="M92.4341 413.821L60.8727 416.583L74.4223 399.519L92.4341 413.821Z" fill="#FFF8B8"/>
<path d="M153.997 441.572L86.0486 447.517L115.219 410.781L153.997 441.572Z" fill="#B34C4C"/>
<path d="M116.604 492.853L48.656 498.798L77.8268 462.062L116.604 492.853Z" fill="#B34C4C"/>
<path d="M108.341 487.332L46.5233 458.506L90.1543 441.277L108.341 487.332Z" fill="#B34C4C"/>
<path d="M264.39 404.318L225.267 348.445L271.667 355.34L264.39 404.318Z" fill="#B34C4C"/>
<path d="M197.072 495.696L244.687 393.583L273.147 465.654L197.072 495.696Z" fill="#B34C4C"/>
<path d="M151.486 508.458L274.378 392.034V508.458H151.486Z" fill="#D66C6C"/>
<path d="M76.5243 415.971L292.77 299.305L248.735 462.452L76.5243 415.971Z" fill="#D66C6C"/>
<path d="M288 290.971L504.245 174.306L460.21 337.452L288 290.971Z" fill="#D66C6C"/>
<path d="M371 284.146L504.88 211.917L477.618 312.923L371 284.146Z" fill="#D66C6C"/>
<path d="M242.508 384.999L370.262 489.445L257.689 503.826L242.508 384.999Z" fill="#D66C6C"/>
<path d="M396.503 283.442L524.483 179.274L515.958 292.441L396.503 283.442Z" fill="#D66C6C"/>
<path d="M326.408 375.972L427.743 506.206L314.79 495.2L326.408 375.972Z" fill="#D66C6C"/>
<path d="M404.514 199.44L552.45 126.331L518.978 234.771L404.514 199.44Z" fill="#D66C6C"/>
<path d="M280.777 335.814L334.36 404.678L274.634 398.858L280.777 335.814Z" fill="#D66C6C"/>
<path d="M356.009 236.074L434.232 197.416L416.534 254.756L356.009 236.074Z" fill="#D66C6C"/>
<path d="M184.401 325.106L237.984 393.97L178.258 388.15L184.401 325.106Z" fill="#FFF8B8"/>
<path d="M326.16 328.334L404.383 289.677L386.684 347.016L326.16 328.334Z" fill="#FFF8B8"/>
<path d="M285.343 279.587L323.756 303.171L293.812 311.194L285.343 279.587Z" fill="#FFF8B8"/>
<path d="M301.845 220.307L332.664 187.414L334.509 218.359L301.845 220.307Z" fill="#FFF8B8"/>
<path d="M253.217 445.569L291.63 469.153L261.686 477.176L253.217 445.569Z" fill="#FFF8B8"/>
<path d="M457.99 285.119L488.81 252.226L490.655 283.172L457.99 285.119Z" fill="#FFF8B8"/>
<path d="M351.994 465.97L374.62 479.862L356.983 484.588L351.994 465.97Z" fill="#FFF8B8"/>
<path d="M390.538 359.909L444.121 428.772L384.395 422.953L390.538 359.909Z" fill="#D66C6C"/>
<path d="M415.671 371.206L499.311 396.058L447.342 426.062L415.671 371.206Z" fill="#D66C6C"/>
<path d="M593.725 311.825L608.794 397.768L558.758 364.641L593.725 311.825Z" fill="#D66C6C"/>
<path d="M578.289 86.6319L616.907 164.875L559.577 147.147L578.289 86.6319Z" fill="#D66C6C"/>
<path d="M503.234 465.761L572.567 412.788L566.221 472.46L503.234 465.761Z" fill="#D66C6C"/>
<path d="M622.799 426.848L706.439 451.7L654.47 481.704L622.799 426.848Z" fill="#D66C6C"/>
<path d="M451.323 424.712L500.31 412.994L482.99 442.995L451.323 424.712Z" fill="#D66C6C"/>
<path d="M473.356 234.992L517.076 209.979L508.885 243.638L473.356 234.992Z" fill="#D66C6C"/>
<path d="M389.748 476.442L466.377 458.113L439.283 505.041L389.748 476.442Z" fill="#D66C6C"/>
<path d="M401.172 390.059L449.376 473.004L385.164 457.838L401.172 390.059Z" fill="#D66C6C"/>
<path d="M415.488 215.832L485.061 281.885L419.175 285.378L415.488 215.832Z" fill="#D66C6C"/>
<path d="M352.214 327.783L400.418 410.728L336.206 395.563L352.214 327.783Z" fill="#D66C6C"/>
<path d="M351 169.827L420.573 235.88L354.687 239.373L351 169.827Z" fill="#D66C6C"/>
<path d="M154.108 402.743L202.312 485.688L138.1 470.523L154.108 402.743Z" fill="#D66C6C"/>
<path d="M287.543 289.792L199.672 328.291L222.013 266.21L287.543 289.792Z" fill="#D66C6C"/>
<path d="M499.019 164.792L411.148 203.291L433.489 141.21L499.019 164.792Z" fill="#D66C6C"/>
<path d="M199.201 359.397L111.33 397.896L133.671 335.815L199.201 359.397Z" fill="#D66C6C"/>
<path d="M148.808 305.547L257.184 308.476L204.461 361.199L148.808 305.547Z" fill="#D66C6C"/>
<path d="M360.284 180.547L468.659 183.477L415.936 236.2L360.284 180.547Z" fill="#D66C6C"/>
<path d="M263.925 343.202L348.428 275.283L342.368 349.598L263.925 343.202Z" fill="#D66C6C"/>
<path d="M475.4 218.202L559.904 150.284L553.844 224.599L475.4 218.202Z" fill="#D66C6C"/>
<path d="M266.049 308.855L246.603 249L285.685 267.602L266.049 308.855Z" fill="#D66C6C"/>
<path d="M477.524 183.855L458.079 124L497.16 142.603L477.524 183.855Z" fill="#D66C6C"/>
<path d="M478.625 250.337L462.758 184L503.383 207.455L478.625 250.337Z" fill="#B34C4C"/>
<path d="M474.846 256.882L458.979 190.545L499.604 214L474.846 256.882Z" fill="#B34C4C"/>
<path d="M457.604 273.596L357.82 270.818L406.404 222.312L457.604 273.596Z" fill="#B34C4C"/>
<path d="M465.419 281.423L365.635 278.645L414.219 230.14L465.419 281.423Z" fill="#B34C4C"/>
</g>
</svg>
