<svg width="641" height="844" viewBox="0 0 641 844" fill="none" xmlns="http://www.w3.org/2000/svg">
<path d="M408.283 441.09L349.487 443.237L377.247 473.97L408.283 441.09Z" fill="#FFF8B8"/>
<path d="M609.268 701.353L584.548 625.694L549.652 586.572L578.099 533.739H556.603L522.21 555.806L431.927 454.588L464.171 415.013H450.408L412.58 447.902L360.99 390.569H350.242L381.411 437.128L450.408 555.806H298.652L330.896 586.572L485.627 616.382L491.04 625.694L495.34 681.566L445.899 739.449L325.522 829.392L254.585 843.36H609.268L549.652 818.916L609.268 701.353Z" fill="#222831"/>
<path d="M340.57 512.788L394.309 568.659L401.833 591.939L304.027 621.038L95.516 591.939L121.311 544.215L169.677 456.916L269.633 447.604L313.7 520.936L340.57 512.788Z" fill="#995353"/>
<path d="M443.75 418.505H380.337H144.956V376.602L234.164 297.451L315.849 310.254L328.746 278.827L406.132 271.843L471.694 342.846L443.75 418.505Z" fill="#995353"/>
<path d="M415.806 427.817H446.975H652.261L699.552 298.614L668.383 241.579L620.017 247.399L594.222 214.807L481.369 207.823L370.664 254.383L350.243 357.978L415.806 427.817Z" fill="#995353"/>
<path d="M487.817 545.379H566.277H804.882L825.303 523.263L762.965 466.228L673.757 395.225L618.942 293.958L494.266 326.55L456.648 410.357V479.032L487.817 545.379Z" fill="#995353"/>
<path d="M542.542 240.101L384.906 345.493L509.485 380.014L542.542 240.101Z" fill="#C55B5B"/>
<path d="M577.89 290.72L488.318 376.506L571.056 383.643L577.89 290.72Z" fill="#C55B5B"/>
<path d="M590.533 242.822L688.175 317.57L675.617 228.717L590.533 242.822Z" fill="#C55B5B"/>
<path d="M631.446 245.168L563.783 351.937L645.646 337.108L631.446 245.168Z" fill="#C55B5B"/>
<path d="M509.368 269.941L620.85 316.769L588.741 233.88L509.368 269.941Z" fill="#C55B5B"/>
<path d="M426.259 219.988L564.561 278.082L524.727 175.251L426.259 219.988Z" fill="#C55B5B"/>
<path d="M491.183 212.69L392.803 332.927L495.68 328.231L491.183 212.69Z" fill="#C55B5B"/>
<path d="M509.278 367.059L361.598 351.914L425.766 439.126L509.278 367.059Z" fill="#C55B5B"/>
<path d="M378.039 380.245L440.783 234.672L343.387 270.86L378.039 380.245Z" fill="#C55B5B"/>
<path d="M380.393 284.919L497.351 186.101L395.405 170.424L380.393 284.919Z" fill="#C55B5B"/>
<path d="M550.138 250.864L602.955 206.239L556.917 199.159L550.138 250.864Z" fill="#C55B5B"/>
<path d="M460.776 192.412L513.594 147.787L467.556 140.708L460.776 192.412Z" fill="#C55B5B"/>
<path d="M298.913 326.656L163.926 352.159L240.733 412.916L298.913 326.656Z" fill="#CC7777"/>
<path d="M310.355 371.933L227.085 404.211L282.099 433.719L310.355 371.933Z" fill="#CC7777"/>
<path d="M331.182 342.796L379.288 423.171L393.193 358.413L331.182 342.796Z" fill="#CC7777"/>
<path d="M358.686 356.575L285.144 409.781L345.127 423.941L358.686 356.575Z" fill="#CC7777"/>
<path d="M268.563 337.285L333.254 402.599L332.219 336.123L268.563 337.285Z" fill="#CC7777"/>
<path d="M224.15 278.261L304.404 359.289L303.12 276.819L224.15 278.261Z" fill="#CC7777"/>
<path d="M270.59 292.557L172.536 345.877L244.382 373.246L270.59 292.557Z" fill="#CC7777"/>
<path d="M243.875 403.957L146.29 349.637L168.247 428.616L243.875 403.957Z" fill="#CC7777"/>
<path d="M150.398 373.984L230.402 292.666L154.335 288.554L150.398 373.984Z" fill="#CC7777"/>
<path d="M176.186 309.214L281.568 276.13L215.527 235.045L176.186 309.214Z" fill="#CC7777"/>
<path d="M301.4 336.307L348.99 321.366L319.167 302.812L301.4 336.307Z" fill="#FFF8B8"/>
<path d="M254.849 269.588L302.439 254.647L272.615 236.093L254.849 269.588Z" fill="#CC7777"/>
<path d="M676.981 412.377L473.66 443.271L585.878 538.41L676.981 412.377Z" fill="#D66C6C"/>
<path d="M692.029 480.799L565.842 524.635L646.867 571.798L692.029 480.799Z" fill="#D66C6C"/>
<path d="M631.041 426.653L724.907 527.961L726.422 428.355L631.041 426.653Z" fill="#D66C6C"/>
<path d="M567.253 335.862L683.701 461.543L685.58 337.973L567.253 335.862Z" fill="#D66C6C"/>
<path d="M636.14 359.781L486.843 434.329L593.173 479.2L636.14 359.781Z" fill="#D66C6C"/>
<path d="M581.802 549.435L487.791 403.373L465.697 524.622L581.802 549.435Z" fill="#D66C6C"/>
<path d="M452.395 475.223L575.951 357.771L462.228 347.502L452.395 475.223Z" fill="#D66C6C"/>
<path d="M493.998 379.623L653.336 335.775L556.332 270.679L493.998 379.623Z" fill="#D66C6C"/>
<path d="M613.625 324.533L685.58 304.731L641.774 275.335L613.625 324.533Z" fill="#D66C6C"/>
<path d="M311.585 499.328L145.851 524.511L237.324 602.061L311.585 499.328Z" fill="#D66C6C"/>
<path d="M323.851 555.101L220.993 590.834L287.039 629.277L323.851 555.101Z" fill="#D66C6C"/>
<path d="M350.37 520.453L406.073 620.685L425.479 542.249L350.37 520.453Z" fill="#D66C6C"/>
<path d="M383.426 538.485L291.655 600.191L364.343 620.12L383.426 538.485Z" fill="#D66C6C"/>
<path d="M274.138 510.965L350.651 593.545L351.886 512.352L274.138 510.965Z" fill="#D66C6C"/>
<path d="M222.141 436.959L317.062 539.405L318.594 438.68L222.141 436.959Z" fill="#D66C6C"/>
<path d="M278.294 456.456L156.597 517.222L243.27 553.797L278.294 456.456Z" fill="#D66C6C"/>
<path d="M241.499 591.263L124.419 520.655L148.253 618.031L241.499 591.263Z" fill="#D66C6C"/>
<path d="M128.518 550.556L229.232 454.817L136.534 446.446L128.518 550.556Z" fill="#D66C6C"/>
<path d="M162.431 472.63L292.312 436.888L213.241 383.826L162.431 472.63Z" fill="#D66C6C"/>
<path d="M314.259 511.219L372.912 495.078L337.204 471.116L314.259 511.219Z" fill="#D66C6C"/>
<path d="M259.941 427.724L318.595 411.584L282.887 387.621L259.941 427.724Z" fill="#D66C6C"/>
<path d="M269.021 485.543L98.4669 400.258L141.295 533.643L269.021 485.543Z" fill="#D66C6C"/>
<path d="M56.4951 613.866L202.647 486.047L73.2537 468.546L56.4951 613.866Z" fill="#D66C6C"/>
<path d="M227.715 559.816L168.919 561.963L196.679 592.696L227.715 559.816Z" fill="#FFF8B8"/>
<path d="M522.445 377.569L488.972 325.176L480.122 367.086L522.445 377.569Z" fill="#FFF8B8"/>
<path d="M602.226 508.543L579.654 473.212L573.685 501.474L602.226 508.543Z" fill="#FFF8B8"/>
<path d="M176.287 260.184L201.644 293.225L205.291 264.503L176.287 260.184Z" fill="#FFF8B8"/>
<path d="M52.2252 108.071L203.077 41.6954L163.167 149.241L52.2252 108.071Z" fill="#D26A6A"/>
<path d="M170.846 163.689L210.038 146.675L200.487 174.036L170.846 163.689Z" fill="#F05454"/>
<path d="M62.278 244.834L104.222 252.968L80.8709 270.131L62.278 244.834Z" fill="#F05454"/>
<path d="M17.9112 97.5423L58.6823 24.4518L75.6433 79.8745L17.9112 97.5423Z" fill="#C04F4F"/>
<path d="M48.8241 187.509L109.878 171.155L89.1652 209.373L48.8241 187.509Z" fill="#FFF8B8"/>
</svg>
