<svg width="1113" height="1888" viewBox="0 0 1113 1888" fill="none" xmlns="http://www.w3.org/2000/svg">
<g opacity="0.75">
<path d="M883.971 916.988L963.357 883.628L943.822 938.353L883.971 916.988Z" fill="#FFF8B8"/>
<path d="M644.544 1290.2L680.728 1187.94L731.806 1135.06L690.167 1063.65L721.632 1063.65L771.974 1093.48L904.124 956.676L856.928 903.186L877.072 903.186L932.442 947.638L1007.96 870.149L1023.69 870.149L978.065 933.078L877.072 1093.48L1099.2 1093.48L1052.01 1135.06L825.522 1175.35L817.598 1187.94L811.305 1263.45L883.673 1341.69L1059.87 1463.25L1163.7 1482.13L644.544 1482.13L731.806 1449.09L644.544 1290.2Z" fill="#222831"/>
<path d="M1037.85 1035.34L959.186 1110.85L948.173 1142.31L1091.34 1181.65L1396.54 1142.31L1358.78 1077.81L1287.99 959.822L1141.68 947.236L1077.18 1046.35L1037.85 1035.34Z" fill="#995353"/>
<path d="M886.818 907.906L979.637 907.906L1324.17 907.906L1324.17 851.27L1193.59 744.292L1074.03 761.597L1055.15 719.12L941.88 709.681L845.914 805.647L886.818 907.906Z" fill="#995353"/>
<path d="M927.723 920.492L882.1 920.492L581.616 920.492L512.395 745.865L558.018 668.777L628.812 676.643L666.569 632.594L831.757 623.154L993.798 686.083L1023.69 826.099L927.723 920.492Z" fill="#995353"/>
<path d="M822.317 1079.39L707.472 1079.39L358.219 1079.39L328.328 1049.5L419.574 972.408L550.151 876.442L630.385 739.572L812.877 783.622L867.94 896.893L867.94 989.713L822.317 1079.39Z" fill="#995353"/>
<path d="M591.846 752.434L861.009 785.315L714.89 903.965L591.846 752.434Z" fill="#C55B5B"/>
<path d="M573.464 836.218L741.05 886.698L635.079 946.113L573.464 836.218Z" fill="#C55B5B"/>
<path d="M529.577 785.154L442.013 936.699L408.482 819.928L529.577 785.154Z" fill="#C55B5B"/>
<path d="M476.507 813.082L626.825 902.736L509.601 934.648L476.507 813.082Z" fill="#C55B5B"/>
<path d="M652.822 768.759L531.074 894.498L526.907 773.08L652.822 768.759Z" fill="#C55B5B"/>
<path d="M735.082 656.552L584.043 812.542L578.874 661.912L735.082 656.552Z" fill="#C55B5B"/>
<path d="M644.637 687.339L843.408 774.722L703.973 831.939L644.637 687.339Z" fill="#C55B5B"/>
<path d="M707.843 887.932L895.63 778.928L859.615 925.28L707.843 887.932Z" fill="#C55B5B"/>
<path d="M889.786 823.775L724.073 683.472L874.023 668.272L889.786 823.775Z" fill="#C55B5B"/>
<path d="M832.768 708.186L621.404 658.473L748.085 576.814L832.768 708.186Z" fill="#C55B5B"/>
<path d="M587.833 770.297L492.383 747.847L549.591 710.97L587.833 770.297Z" fill="#C55B5B"/>
<path d="M673.601 643.83L578.151 621.38L635.359 584.503L673.601 643.83Z" fill="#C55B5B"/>
<path d="M964.695 709.543L1158.58 658.212L1090.81 779.824L964.695 709.543Z" fill="#CC7777"/>
<path d="M975.076 772.133L1104.03 760.782L1047.57 830.688L975.076 772.133Z" fill="#CC7777"/>
<path d="M930.914 749.114L912.39 877.239L857.296 806.249L930.914 749.114Z" fill="#CC7777"/>
<path d="M902.136 782.867L1029.99 803.163L958.246 857.27L902.136 782.867Z" fill="#CC7777"/>
<path d="M1011.05 704.011L961.967 823.8L925.763 741.555L1011.05 704.011Z" fill="#CC7777"/>
<path d="M1036.74 604.359L975.842 752.967L930.928 650.936L1036.74 604.359Z" fill="#CC7777"/>
<path d="M983.074 650.341L1143.58 655.772L1063.53 733.357L983.074 650.341Z" fill="#CC7777"/>
<path d="M1081.57 770.749L1180.6 644.319L1196.06 754.722L1081.57 770.749Z" fill="#CC7777"/>
<path d="M1188.91 676.725L1036.57 625.871L1135.38 574.255L1188.91 676.725Z" fill="#CC7777"/>
<path d="M1118.01 612.996L959.192 636.895L1023.77 546.026L1118.01 612.996Z" fill="#CC7777"/>
<path d="M966.842 722.914L895.123 733.706L924.286 692.671L966.842 722.914Z" fill="#FFF8B8"/>
<path d="M991.02 612.505L919.301 623.297L948.464 582.262L991.02 612.505Z" fill="#CC7777"/>
<path d="M510.489 1046.24L798.28 959.69L702.861 1145.19L510.489 1046.24Z" fill="#D66C6C"/>
<path d="M529.162 1139.45L721.715 1116.01L640.648 1223.52L529.162 1139.45Z" fill="#D66C6C"/>
<path d="M461.878 1107.18L440.534 1299.98L354.484 1196.42L461.878 1107.18Z" fill="#D66C6C"/>
<path d="M420.466 1159.17L612.948 1183.18L508.207 1267.79L420.466 1159.17Z" fill="#D66C6C"/>
<path d="M579.639 1035.64L512.109 1217.48L453.788 1096.12L579.639 1035.64Z" fill="#D66C6C"/>
<path d="M613.126 885.125L529.35 1110.71L456.997 960.158L613.126 885.125Z" fill="#D66C6C"/>
<path d="M535.058 956.663L775.698 956.783L659.692 1076.97L535.058 956.663Z" fill="#D66C6C"/>
<path d="M714.514 1156.23L756.938 919.361L854.854 1054.69L714.514 1156.23Z" fill="#D66C6C"/>
<path d="M844.615 985.899L613.946 917.348L759.34 835.119L844.615 985.899Z" fill="#D66C6C"/>
<path d="M735.26 894.002L498.624 937.719L590.797 798.416L735.26 894.002Z" fill="#D66C6C"/>
<path d="M514.373 1066.15L407.51 1085.9L449.135 1022.99L514.373 1066.15Z" fill="#FFF8B8"/>
<path d="M545.068 899.606L438.205 919.348L479.83 856.44L545.068 899.606Z" fill="#D66C6C"/>
<path d="M1045.46 929.287L1280.04 858.739L1202.27 1009.95L1045.46 929.287Z" fill="#D66C6C"/>
<path d="M1060.68 1005.27L1217.63 986.165L1151.55 1073.79L1060.68 1005.27Z" fill="#D66C6C"/>
<path d="M1005.83 978.965L988.436 1136.12L918.294 1051.71L1005.83 978.965Z" fill="#D66C6C"/>
<path d="M972.076 1021.34L1128.97 1040.91L1043.6 1109.88L972.076 1021.34Z" fill="#D66C6C"/>
<path d="M1101.82 920.648L1046.78 1068.87L999.237 969.949L1101.82 920.648Z" fill="#D66C6C"/>
<path d="M1129.12 797.96L1060.83 981.842L1001.85 859.121L1129.12 797.96Z" fill="#D66C6C"/>
<path d="M1065.48 856.273L1261.64 856.37L1167.08 954.335L1065.48 856.273Z" fill="#D66C6C"/>
<path d="M1228.67 805.196L1035.79 840.83L1110.92 727.28L1228.67 805.196Z" fill="#D66C6C"/>
<path d="M1048.62 945.522L961.517 961.614L995.447 910.335L1048.62 945.522Z" fill="#D66C6C"/>
<path d="M1073.64 809.763L986.537 825.856L1020.47 774.577L1073.64 809.763Z" fill="#D66C6C"/>
<path d="M1094.25 886.305L1272.8 677.188L1291.26 867.162L1094.25 886.305Z" fill="#D66C6C"/>
<path d="M696.275 908.897L711.161 824.083L746.62 870.117L696.275 908.897Z" fill="#FFF8B8"/>
<path d="M664.244 1118.53L674.283 1061.34L698.194 1092.38L664.244 1118.53Z" fill="#FFF8B8"/>
<path d="M1090.15 552.865L1075.12 608.952L1054.03 575.924L1090.15 552.865Z" fill="#FFF8B8"/>
<path d="M615.34 1479.46L1243.43 1474.91L941.42 1791.01L615.34 1479.46Z" fill="#A75151"/>
<path d="M479.162 1511.02L835.713 1508.44L664.268 1687.88L479.162 1511.02Z" fill="#D26A6A"/>
<path d="M775.548 1608.27L968.804 1606.87L875.878 1704.13L775.548 1608.27Z" fill="#DE8383"/>
</g>
<path d="M740.275 107.546L891.128 41.1704L851.217 148.716L740.275 107.546Z" fill="#D26A6A"/>
<path d="M858.896 163.164L898.088 146.15L888.537 173.511L858.896 163.164Z" fill="#F05454"/>
<path d="M750.328 244.308L792.272 252.443L768.921 269.606L750.328 244.308Z" fill="#F05454"/>
<path d="M705.961 97.0173L746.732 23.9267L763.693 79.3495L705.961 97.0173Z" fill="#C04F4F"/>
<path d="M736.874 186.984L797.928 170.63L777.215 208.848L736.874 186.984Z" fill="#FFF8B8"/>
</svg>
