<svg width="642" height="1302" viewBox="0 0 642 1302" fill="none" xmlns="http://www.w3.org/2000/svg">
<g opacity="0.81">
<path d="M512.961 518.326L464.473 497.95L476.405 531.375L512.961 518.326Z" fill="#FFF8B8"/>
<path d="M659.198 746.275L637.098 683.817L605.9 651.521L631.332 607.907L612.115 607.907L581.366 626.123L500.652 542.567L529.478 509.896L517.175 509.896L483.356 537.047L437.233 489.718L427.624 489.718L455.49 528.153L517.175 626.123L381.502 626.123L410.328 651.521L548.661 676.13L553.501 683.817L557.344 729.94L513.143 777.724L405.524 851.973L342.105 863.503L659.198 863.503L605.9 843.325L659.198 746.275Z" fill="#222831"/>
<path d="M418.977 590.611L467.021 636.734L473.748 655.951L386.307 679.974L199.894 655.951L222.956 616.555L266.196 544.488L355.558 536.801L394.955 597.337L418.977 590.611Z" fill="#995353"/>
<path d="M511.222 512.779L454.53 512.779L244.095 512.779L244.095 478.187L323.849 412.846L396.876 423.416L408.407 397.472L477.591 391.707L536.205 450.321L511.222 512.779Z" fill="#995353"/>
<path d="M486.238 520.466L514.104 520.466L697.634 520.466L739.913 413.807L712.047 366.724L668.807 371.528L645.746 344.623L544.852 338.858L445.881 377.294L427.624 462.813L486.238 520.466Z" fill="#995353"/>
<path d="M550.618 617.516L620.763 617.516L834.08 617.516L852.337 599.259L796.605 552.175L716.852 493.561L667.846 409.964L556.383 436.869L522.752 506.053L522.752 562.745L550.618 617.516Z" fill="#995353"/>
<path d="M691.384 417.82L526.985 437.903L616.231 510.372L691.384 417.82Z" fill="#C55B5B"/>
<path d="M702.612 468.993L600.254 499.826L664.979 536.115L702.612 468.993Z" fill="#C55B5B"/>
<path d="M603.899 359.257L696.151 454.532L699.308 362.531L603.899 359.257Z" fill="#C55B5B"/>
<path d="M659.142 378.061L537.736 431.433L622.9 466.38L659.142 378.061Z" fill="#C55B5B"/>
<path d="M620.536 500.579L505.84 434.002L527.837 523.391L620.536 500.579Z" fill="#C55B5B"/>
<path d="M509.409 461.393L610.623 375.699L519.037 366.415L509.409 461.393Z" fill="#C55B5B"/>
<path d="M544.235 390.794L673.331 360.43L595.957 310.554L544.235 390.794Z" fill="#C55B5B"/>
<path d="M641.451 351.486L699.75 337.774L664.808 315.251L641.451 351.486Z" fill="#C55B5B"/>
<path d="M470.855 424.496L352.432 393.144L393.826 467.422L470.855 424.496Z" fill="#CC7777"/>
<path d="M464.514 462.724L385.749 455.792L420.236 498.489L464.514 462.724Z" fill="#CC7777"/>
<path d="M491.487 448.665L502.801 526.921L536.452 483.562L491.487 448.665Z" fill="#CC7777"/>
<path d="M509.065 469.281L430.973 481.677L474.794 514.724L509.065 469.281Z" fill="#CC7777"/>
<path d="M442.539 421.117L472.521 494.282L494.633 444.048L442.539 421.117Z" fill="#CC7777"/>
<path d="M426.852 360.251L464.046 451.018L491.479 388.699L426.852 360.251Z" fill="#CC7777"/>
<path d="M450.468 408.82L352.432 412.137L401.326 459.524L450.468 408.82Z" fill="#CC7777"/>
<path d="M399.471 461.879L338.981 384.658L329.542 452.09L399.471 461.879Z" fill="#CC7777"/>
<path d="M333.911 404.451L426.956 373.39L366.605 341.864L333.911 404.451Z" fill="#CC7777"/>
<path d="M377.216 365.527L474.216 380.123L434.772 324.622L377.216 365.527Z" fill="#CC7777"/>
<path d="M469.544 432.663L513.348 439.254L495.536 414.19L469.544 432.663Z" fill="#FFF8B8"/>
<path d="M454.776 365.227L498.581 371.819L480.768 346.755L454.776 365.227Z" fill="#CC7777"/>
<path d="M741.076 597.27L565.299 544.408L623.579 657.709L741.076 597.27Z" fill="#D66C6C"/>
<path d="M729.671 654.202L612.063 639.888L661.577 705.549L729.671 654.202Z" fill="#D66C6C"/>
<path d="M678.387 498.865L729.556 636.648L773.748 544.693L678.387 498.865Z" fill="#D66C6C"/>
<path d="M726.07 542.559L579.092 542.632L649.946 616.037L726.07 542.559Z" fill="#D66C6C"/>
<path d="M616.461 664.451L590.55 519.775L530.744 602.431L616.461 664.451Z" fill="#D66C6C"/>
<path d="M536.998 560.415L677.886 518.546L589.082 468.322L536.998 560.415Z" fill="#D66C6C"/>
<path d="M603.79 504.287L748.322 530.988L692.025 445.904L603.79 504.287Z" fill="#D66C6C"/>
<path d="M405.085 622.868L261.804 579.779L309.31 672.134L405.085 622.868Z" fill="#D66C6C"/>
<path d="M395.789 669.276L299.924 657.608L340.284 711.131L395.789 669.276Z" fill="#D66C6C"/>
<path d="M429.287 653.211L439.914 749.197L482.755 697.639L429.287 653.211Z" fill="#D66C6C"/>
<path d="M449.906 679.092L354.076 691.047L406.223 733.17L449.906 679.092Z" fill="#D66C6C"/>
<path d="M370.659 617.592L404.28 708.123L433.316 647.704L370.659 617.592Z" fill="#D66C6C"/>
<path d="M353.987 542.656L395.696 654.968L431.718 580.012L353.987 542.656Z" fill="#D66C6C"/>
<path d="M392.855 578.272L273.048 578.332L330.804 638.167L392.855 578.272Z" fill="#D66C6C"/>
<path d="M316.428 665.597L245.731 568.874L231.464 650.803L316.428 665.597Z" fill="#D66C6C"/>
<path d="M238.736 592.827L353.578 558.698L281.191 517.759L238.736 592.827Z" fill="#D66C6C"/>
<path d="M293.18 547.075L410.993 568.84L365.103 499.486L293.18 547.075Z" fill="#D66C6C"/>
<path d="M403.152 632.784L456.355 642.613L435.632 611.293L403.152 632.784Z" fill="#D66C6C"/>
<path d="M387.87 549.865L441.073 559.694L420.35 528.374L387.87 549.865Z" fill="#D66C6C"/>
<path d="M375.282 596.616L266.227 468.891L254.952 584.923L375.282 596.616Z" fill="#D66C6C"/>
<path d="M158.389 613.368L321.206 572.174L222.173 510.668L158.389 613.368Z" fill="#D66C6C"/>
<path d="M325.336 539.834L276.849 519.458L288.78 552.884L325.336 539.834Z" fill="#FFF8B8"/>
<path d="M627.602 513.384L618.509 461.582L596.852 489.698L627.602 513.384Z" fill="#FFF8B8"/>
<path d="M647.166 641.426L641.035 606.493L626.43 625.453L647.166 641.426Z" fill="#FFF8B8"/>
<path d="M387.027 295.927L396.211 330.183L409.089 310.011L387.027 295.927Z" fill="#FFF8B8"/>
<path d="M677.036 861.871L293.408 859.094L477.872 1052.16L677.036 861.871Z" fill="#A75151"/>
<path d="M760.21 881.147L542.436 879.571L647.151 989.169L760.21 881.147Z" fill="#D26A6A"/>
<path d="M579.183 940.547L461.146 939.693L517.903 999.097L579.183 940.547Z" fill="#DE8383"/>
</g>
<g opacity="0.81">
<path d="M260.697 92.243L390.084 35.3121L355.853 127.555L260.697 92.243Z" fill="#D26A6A"/>
<path d="M362.439 139.947L396.054 125.354L387.862 148.821L362.439 139.947Z" fill="#F05454"/>
<path d="M269.32 209.545L305.295 216.522L285.267 231.243L269.32 209.545Z" fill="#F05454"/>
<path d="M231.265 83.2124L266.235 20.5222L280.783 68.0587L231.265 83.2124Z" fill="#C04F4F"/>
<path d="M257.78 160.377L310.146 146.35L292.381 179.13L257.78 160.377Z" fill="#FFF8B8"/>
</g>
<g opacity="0.81">
<path d="M173.426 1177.63L214.065 1116.73L224.809 1166.54L173.426 1177.63Z" fill="#E27C7C"/>
<path d="M138.26 1302L178.899 1241.1L189.643 1290.91L138.26 1302Z" fill="#E27C7C"/>
<path d="M193.559 1193.25L320.044 1208.28L251.255 1264.21L193.559 1193.25Z" fill="#E27C7C"/>
<path d="M121.512 1277.06L168.619 1251.44L158.6 1287.39L121.512 1277.06Z" fill="#FFF8B8"/>
</g>
</svg>
