<svg width="177" height="177" viewBox="0 0 177 177" fill="none" xmlns="http://www.w3.org/2000/svg">
<path d="M0.554688 88.5845C0.554688 137.186 39.9536 176.584 88.5547 176.584C109.596 176.584 128.913 169.199 144.055 156.88C101.655 177.116 72.388 155.206 63.0547 141.721C51.2584 129.953 43.5547 110.54 43.5547 88.5845C43.5547 64.8181 52.5815 44.0309 66.0547 32.695C78.1027 19.8248 111.334 -0.0155277 147.877 23.5845C132.232 9.29804 111.411 0.584473 88.5547 0.584473C39.9536 0.584473 0.554688 39.9834 0.554688 88.5845Z" fill="url(#paint0_radial_207_433)"/>
<path d="M135.555 88.5845C135.555 124.483 114.96 153.584 89.5547 153.584C79.6875 153.584 70.5458 149.194 63.0547 141.721C72.388 155.206 101.655 177.116 144.055 156.88C163.886 140.744 176.555 116.144 176.555 88.5845C176.555 62.8395 165.499 39.6766 147.877 23.5845C111.334 -0.0155277 78.1027 19.8248 66.0547 32.695C72.9324 26.9083 80.9689 23.5845 89.5547 23.5845C114.96 23.5845 135.555 52.686 135.555 88.5845Z" fill="#F05454"/>
<path d="M135.555 88.5845C135.555 124.483 114.96 153.584 89.5547 153.584C79.6875 153.584 70.5458 149.194 63.0547 141.721C72.388 155.206 101.655 177.116 144.055 156.88C163.886 140.744 176.555 116.144 176.555 88.5845C176.555 62.8395 165.499 39.6766 147.877 23.5845C111.334 -0.0155277 78.1027 19.8248 66.0547 32.695C72.9324 26.9083 80.9689 23.5845 89.5547 23.5845C114.96 23.5845 135.555 52.686 135.555 88.5845Z" fill="url(#paint1_radial_207_433)" fill-opacity="0.2"/>
<path d="M135.555 88.5845C135.555 124.483 114.96 153.584 89.5547 153.584C79.6875 153.584 70.5458 149.194 63.0547 141.721C72.388 155.206 101.655 177.116 144.055 156.88C163.886 140.744 176.555 116.144 176.555 88.5845C176.555 62.8395 165.499 39.6766 147.877 23.5845C111.334 -0.0155277 78.1027 19.8248 66.0547 32.695C72.9324 26.9083 80.9689 23.5845 89.5547 23.5845C114.96 23.5845 135.555 52.686 135.555 88.5845Z" fill="url(#paint2_radial_207_433)" fill-opacity="0.2"/>
<defs>
<radialGradient id="paint0_radial_207_433" cx="0" cy="0" r="1" gradientUnits="userSpaceOnUse" gradientTransform="translate(105.633 93.2371) rotate(40.6677) scale(88.3168)">
<stop offset="0.0833333" stop-color="#572424"/>
<stop offset="1" stop-color="#F05454"/>
</radialGradient>
<radialGradient id="paint1_radial_207_433" cx="0" cy="0" r="1" gradientUnits="userSpaceOnUse" gradientTransform="translate(99.9721 176.584) rotate(114.418) scale(73.5814)">
<stop offset="0.520833" stop-color="#CCC8C8" stop-opacity="0.71"/>
<stop offset="1" stop-color="#120909"/>
</radialGradient>
<radialGradient id="paint2_radial_207_433" cx="0" cy="0" r="1" gradientUnits="userSpaceOnUse" gradientTransform="translate(120.729 35.6836) rotate(103.266) scale(111.886)">
<stop stop-opacity="0.78"/>
<stop offset="1" stop-color="#E6A5A5" stop-opacity="0"/>
</radialGradient>
</defs>
</svg>
