<svg width="177" height="177" viewBox="0 0 177 177" fill="none" xmlns="http://www.w3.org/2000/svg">
<path d="M0.15918 88.0376C0.15918 136.639 39.5581 176.038 88.1592 176.038C109.201 176.038 128.518 168.652 143.659 156.333C101.259 176.569 71.9925 154.659 62.6592 141.174C50.8629 129.406 43.1592 109.993 43.1592 88.0376C43.1592 64.2712 52.186 43.484 65.6592 32.1481C77.7072 19.2779 110.939 -0.562403 147.481 23.0376C131.836 8.75117 111.015 0.0375977 88.1592 0.0375977C39.5581 0.0375977 0.15918 39.4365 0.15918 88.0376Z" fill="url(#paint0_radial_254_213)"/>
<path d="M135.159 88.0376C135.159 123.936 114.564 153.038 89.1592 153.038C79.2919 153.038 70.1503 148.648 62.6592 141.174C71.9925 154.659 101.259 176.569 143.659 156.333C163.491 140.197 176.159 115.597 176.159 88.0376C176.159 62.2926 165.104 39.1298 147.481 23.0376C110.939 -0.562403 77.7072 19.2779 65.6592 32.1481C72.5369 26.3614 80.5734 23.0376 89.1592 23.0376C114.564 23.0376 135.159 52.1391 135.159 88.0376Z" fill="#F05454"/>
<path d="M135.159 88.0376C135.159 123.936 114.564 153.038 89.1592 153.038C79.2919 153.038 70.1503 148.648 62.6592 141.174C71.9925 154.659 101.259 176.569 143.659 156.333C163.491 140.197 176.159 115.597 176.159 88.0376C176.159 62.2926 165.104 39.1298 147.481 23.0376C110.939 -0.562403 77.7072 19.2779 65.6592 32.1481C72.5369 26.3614 80.5734 23.0376 89.1592 23.0376C114.564 23.0376 135.159 52.1391 135.159 88.0376Z" fill="url(#paint1_radial_254_213)" fill-opacity="0.2"/>
<path d="M135.159 88.0376C135.159 123.936 114.564 153.038 89.1592 153.038C79.2919 153.038 70.1503 148.648 62.6592 141.174C71.9925 154.659 101.259 176.569 143.659 156.333C163.491 140.197 176.159 115.597 176.159 88.0376C176.159 62.2926 165.104 39.1298 147.481 23.0376C110.939 -0.562403 77.7072 19.2779 65.6592 32.1481C72.5369 26.3614 80.5734 23.0376 89.1592 23.0376C114.564 23.0376 135.159 52.1391 135.159 88.0376Z" fill="url(#paint2_radial_254_213)" fill-opacity="0.2"/>
<defs>
<radialGradient id="paint0_radial_254_213" cx="0" cy="0" r="1" gradientUnits="userSpaceOnUse" gradientTransform="translate(105.238 92.6903) rotate(40.6677) scale(88.3168 88.3168)">
<stop offset="0.0833333" stop-color="#572424"/>
<stop offset="1" stop-color="#F05454"/>
</radialGradient>
<radialGradient id="paint1_radial_254_213" cx="0" cy="0" r="1" gradientUnits="userSpaceOnUse" gradientTransform="translate(99.5073 176.038) rotate(114.432) scale(73.6058 73.6392)">
<stop offset="0.520833" stop-color="#CCC8C8" stop-opacity="0.71"/>
<stop offset="1" stop-color="#120909"/>
</radialGradient>
<radialGradient id="paint2_radial_254_213" cx="0" cy="0" r="1" gradientUnits="userSpaceOnUse" gradientTransform="translate(120.283 35.1067) rotate(103.275) scale(111.914 111.984)">
<stop stop-opacity="0.78"/>
<stop offset="1" stop-color="#E6A5A5" stop-opacity="0"/>
</radialGradient>
</defs>
</svg>
