<svg width="601" height="536" viewBox="0 0 601 536" fill="none" xmlns="http://www.w3.org/2000/svg">
<path d="M343.686 293.801L367.056 386.176L309.569 353.104L343.686 293.801Z" fill="#7E3838"/>
<path d="M348.159 321.255L386.526 408.475L324.35 385.395L348.159 321.255Z" fill="#7E3838"/>
<path d="M160.531 153.548L201.586 165.608L261.719 195.176L221.806 208.271L288.613 263.986L321.072 278.639L338.054 265.443L373.181 325.259L314.699 315.012L206.428 296.042L166.199 232.758L136.192 208.756L131.781 197.388L121.602 171.155L146.583 149.451L160.531 153.548Z" fill="#425777"/>
<path d="M288.613 263.986L221.806 208.271L261.719 195.176L375.641 157.799L547.659 156.967L376.705 235.411L338.054 265.443L321.072 278.639L288.613 263.986Z" fill="#C95C5C"/>
<path d="M201.586 165.608L160.531 153.548L132.141 78.4604L233.028 144.222L261.719 195.176L201.586 165.608Z" fill="#DB5F5F"/>
<path d="M373.181 325.259L421.613 448.66L314.699 315.012L373.181 325.259Z" fill="#995353"/>
<path d="M82.2316 209.897L121.602 171.155L131.781 197.388L82.2316 209.897Z" fill="#FFF8B8"/>
<path d="M548.274 190.585L515.704 157.004L548.265 156.995L548.274 190.585Z" fill="#B16363"/>
<path d="M165.149 186.432L146.708 149.153L174.272 157.997L165.149 186.432Z" fill="#394455"/>
<path d="M169.374 157.553L194.709 190.537L165.951 187.219L169.374 157.553Z" fill="#394455"/>
<path d="M199.619 187.137L169.266 158.703L198.181 157.309L199.619 187.137Z" fill="#394455"/>
<path d="M202.048 288.35L164.739 230.696L211.627 239.981L202.048 288.35Z" fill="#2E394A"/>
<path d="M294.544 300.155L257.235 242.502L304.123 251.787L294.544 300.155Z" fill="#394455"/>
<path d="M352.534 285.91L316.711 278.868L337.585 264.377L352.534 285.91Z" fill="#394455"/>
<path d="M376.096 163.743L329.708 265.294L301.43 192.914L376.096 163.743Z" fill="#9D5151"/>
<path d="M443.055 182.549L355.383 229.444L374.421 162.91L443.055 182.549Z" fill="#A05757"/>
<path d="M372.753 324.793L420.608 392.956L363.359 383.85L372.753 324.793Z" fill="#D26A6A"/>
<path d="M371.799 325.325L399.863 403.739L347.079 379.776L371.799 325.325Z" fill="#BF6F6F"/>
<path d="M423.787 167.818L372.238 209.845L376.208 163.723L423.787 167.818Z" fill="#A05757"/>
<path d="M405.41 210.634L353.86 252.662L357.83 206.539L405.41 210.634Z" fill="#A05757"/>
<path d="M318.411 276.794L224.065 209.019L303.643 194.702L318.411 276.794Z" fill="#9D5151"/>
<path d="M128.014 89.0405L132.068 78.3077L135.468 85.533L128.014 89.0405Z" fill="#8C5B5B"/>
</svg>
