<svg width="477" height="405" viewBox="0 0 477 405" fill="none" xmlns="http://www.w3.org/2000/svg">
<path d="M272.522 232L278.671 317.426L233 279.114L272.522 232Z" fill="#7E3838"/>
<path d="M272.162 257L292.393 340.223L241 310.016L272.162 257Z" fill="#7E3838"/>
<path d="M132.5 79.0647L166.935 96.1963L215.5 131.824L178.118 137.133L228.475 196.951L254.895 215.024L272 206.018L293.677 264.48L243.533 246.211L150.7 212.389L125.054 150.055L102.275 124.093L100.16 113.339L95.2786 88.5211L120.801 73.2444L132.5 79.0647Z" fill="#454E5C"/>
<path d="M228.475 196.951L178.118 137.133L215.5 131.824L322.199 116.668L474.562 142.995L310.93 185.521L272 206.018L254.895 215.024L228.475 196.951Z" fill="#995353"/>
<path d="M166.935 96.1963L132.5 79.0647L119.188 8.14691L198.126 82.2166L215.5 131.824L166.935 96.1963Z" fill="#8D4A4A"/>
<path d="M293.677 264.48L317.123 381.307L243.533 246.211L293.677 264.48Z" fill="#995353"/>
<path d="M54.3416 116.613L95.2786 88.5211L100.16 113.339L54.3416 116.613Z" fill="#FFF8B8"/>
<path d="M163.686 212.57L135.976 116L197.662 148.936L163.686 212.57Z" fill="#3D4451"/>
<path d="M469.818 172.842L446.276 138L475.094 143.115L469.818 172.842Z" fill="#B16363"/>
<path d="M131.414 108.892L120.958 73L143.961 85.1628L131.414 108.892Z" fill="#2E394A"/>
<path d="M139.696 84L156.927 117.176L132 109.715L139.696 84Z" fill="#2E394A"/>
<path d="M161.808 114.939L139.42 85L165.228 88.3156L161.808 114.939Z" fill="#2E394A"/>
<path d="M148.034 204.892L124.086 148L164.12 163.594L148.034 204.892Z" fill="#2E394A"/>
<path d="M228.034 229.892L204.086 173L244.12 188.594L228.034 229.892Z" fill="#2E394A"/>
<path d="M281.595 226.408L251 214.541L271.753 205L281.595 226.408Z" fill="#2E394A"/>
<path d="M321.667 122L264.638 204.573L251 136.069L321.667 122Z" fill="#834A4A"/>
<path d="M377.966 149.178L293 176.885L320.316 121L377.966 149.178Z" fill="#764848"/>
<path d="M293.371 264L324.998 331.852L275.766 314.786L293.371 264Z" fill="#D26A6A"/>
<path d="M292.443 264.321L304.943 338.131L262 308.619L292.443 264.321Z" fill="#BF6F6F"/>
<path d="M363.232 133.11L311 162.193L321.769 122L363.232 133.11Z" fill="#764848"/>
<path d="M340.232 168.11L288 197.193L298.769 157L340.232 168.11Z" fill="#764848"/>
<path d="M252.832 212.973L180 138.15L252.677 138L252.832 212.973Z" fill="#834A4A"/>
<path d="M113.872 16.8605L119.148 7.99994L121.02 14.9291L113.872 16.8605Z" fill="#8C5B5B"/>
</svg>
