<svg width="174" height="174" viewBox="0 0 174 174" fill="none" xmlns="http://www.w3.org/2000/svg">
<path d="M173.147 86.8262C173.147 134.599 134.42 173.326 86.6475 173.326C38.8748 173.326 0.147461 134.599 0.147461 86.8262C0.147461 39.0535 38.8748 0.326172 86.6475 0.326172C134.42 0.326172 173.147 39.0535 173.147 86.8262Z" fill="#D5D5D5"/>
<path d="M164.911 86.9185C164.911 130.825 129.318 166.418 85.4111 166.418C41.5045 166.418 5.91113 130.825 5.91113 86.9185C5.91113 43.0118 41.5045 7.41846 85.4111 7.41846C129.318 7.41846 164.911 43.0118 164.911 86.9185Z" fill="#3C556F"/>
<path d="M164.911 86.9185C164.911 130.825 129.318 166.418 85.4111 166.418C41.5045 166.418 5.91113 130.825 5.91113 86.9185C5.91113 43.0118 41.5045 7.41846 85.4111 7.41846C129.318 7.41846 164.911 43.0118 164.911 86.9185Z" fill="url(#paint0_radial_254_212)"/>
<path d="M85.4112 12.4707C85.4112 11.7877 85.965 11.234 86.648 11.234C87.3311 11.234 87.8848 11.7877 87.8848 12.4707V25.9972C87.8848 26.6802 87.3311 27.234 86.648 27.234C85.965 27.234 85.4112 26.6802 85.4112 25.9972V12.4707Z" fill="#F5F5F5"/>
<path d="M100.735 13.8959C100.864 13.2253 101.513 12.7871 102.184 12.917C102.855 13.047 103.293 13.6959 103.163 14.3665L100.59 27.6459C100.46 28.3165 99.8106 28.7547 99.1401 28.6248C98.4695 28.4948 98.0312 27.8459 98.1612 27.1753L100.735 13.8959Z" fill="#F5F5F5"/>
<path d="M69.9834 14.3822C69.8486 13.7126 70.2822 13.0605 70.9518 12.9257C71.6215 12.7909 72.2736 13.2244 72.4084 13.8941L75.0777 27.1545C75.2125 27.8241 74.779 28.4762 74.1094 28.611C73.4397 28.7458 72.7876 28.3123 72.6528 27.6426L69.9834 14.3822Z" fill="#F5F5F5"/>
<path d="M77.7382 13.4499C77.6698 12.7703 78.1653 12.1639 78.8449 12.0955C79.5246 12.0271 80.1309 12.5226 80.1993 13.2023L80.7475 18.6503C80.8159 19.3299 80.3203 19.9363 79.6407 20.0047C78.9611 20.0731 78.3547 19.5775 78.2863 18.8979L77.7382 13.4499Z" fill="#F5F5F5"/>
<path d="M93.0452 13.1979C93.1152 12.5184 93.7228 12.0244 94.4023 12.0944C95.0817 12.1644 95.5758 12.772 95.5057 13.4515L94.9444 18.8981C94.8744 19.5776 94.2668 20.0716 93.5873 20.0016C92.9079 19.9316 92.4138 19.324 92.4839 18.6446L93.0452 13.1979Z" fill="#F5F5F5"/>
<path d="M108.193 16.2509C108.398 15.5995 109.093 15.2379 109.744 15.4433C110.396 15.6487 110.757 16.3433 110.552 16.9947L108.905 22.2168C108.7 22.8683 108.005 23.2299 107.354 23.0245C106.702 22.8191 106.341 22.1245 106.546 21.473L108.193 16.2509Z" fill="#F5F5F5"/>
<path d="M145.117 42.5137C145.686 42.1359 146.454 42.291 146.832 42.8601C147.209 43.4292 147.054 44.1968 146.485 44.5745L141.923 47.6028C141.354 47.9805 140.587 47.8254 140.209 47.2563C139.831 46.6872 139.986 45.9197 140.555 45.5419L145.117 42.5137Z" fill="#F5F5F5"/>
<path d="M160.281 85.5748C160.964 85.5712 161.521 86.1219 161.524 86.805C161.528 87.488 160.977 88.0447 160.294 88.0484L154.819 88.0778C154.136 88.0814 153.579 87.5307 153.575 86.8476C153.572 86.1646 154.122 85.6079 154.805 85.6042L160.281 85.5748Z" fill="#F5F5F5"/>
<path d="M146.671 129.269C147.201 129.7 147.28 130.479 146.849 131.009C146.417 131.539 145.638 131.618 145.109 131.187L140.864 127.728C140.334 127.297 140.254 126.518 140.686 125.988C141.117 125.459 141.896 125.379 142.426 125.811L146.671 129.269Z" fill="#F5F5F5"/>
<path d="M129.357 26.2469C129.758 25.6939 130.531 25.5705 131.084 25.9714C131.637 26.3723 131.76 27.1456 131.36 27.6986L123.421 38.6506C123.02 39.2036 122.247 39.327 121.694 38.9261C121.141 38.5252 121.017 37.7519 121.418 37.1989L129.357 26.2469Z" fill="#F5F5F5"/>
<path d="M140.927 36.3939C141.426 35.9272 142.209 35.9532 142.675 36.452C143.142 36.9508 143.116 37.7334 142.617 38.2001L132.74 47.4417C132.241 47.9084 131.459 47.8824 130.992 47.3836C130.525 46.8848 130.551 46.1022 131.05 45.6355L140.927 36.3939Z" fill="#F5F5F5"/>
<path d="M115.744 18.7402C116.027 18.1189 116.761 17.8454 117.383 18.1292C118.004 18.4131 118.277 19.1468 117.993 19.7681L112.372 32.0713C112.089 32.6926 111.355 32.9661 110.734 32.6823C110.112 32.3984 109.839 31.6647 110.123 31.0434L115.744 18.7402Z" fill="#F5F5F5"/>
<path d="M122.57 22.5365C122.913 21.9461 123.67 21.7459 124.261 22.0894C124.851 22.4329 125.051 23.19 124.708 23.7804L121.954 28.5132C121.611 29.1036 120.853 29.3038 120.263 28.9603C119.673 28.6168 119.472 27.8597 119.816 27.2693L122.57 22.5365Z" fill="#F5F5F5"/>
<path d="M135.111 31.3159C135.567 30.8069 136.348 30.7634 136.857 31.2189C137.366 31.6744 137.41 32.4563 136.954 32.9653L133.303 37.0459C132.848 37.5549 132.066 37.5984 131.557 37.1429C131.048 36.6874 131.005 35.9055 131.46 35.3965L135.111 31.3159Z" fill="#F5F5F5"/>
<path d="M156.674 62.5003C157.322 62.2858 158.022 62.6376 158.236 63.2862C158.451 63.9347 158.099 64.6343 157.45 64.8487L144.608 69.0962C143.96 69.3107 143.26 68.9588 143.046 68.3103C142.831 67.6618 143.183 66.9622 143.831 66.7477L156.674 62.5003Z" fill="#F5F5F5"/>
<path d="M160.132 77.496C160.81 77.4089 161.43 77.8874 161.517 78.5648C161.604 79.2423 161.126 79.8622 160.448 79.9494L147.032 81.676C146.355 81.7632 145.735 81.2847 145.648 80.6072C145.561 79.9298 146.039 79.3099 146.717 79.2227L160.132 77.496Z" fill="#F5F5F5"/>
<path d="M150.014 48.453C150.608 48.1148 151.363 48.3217 151.701 48.9151C152.04 49.5085 151.833 50.2638 151.239 50.602L139.488 57.3003C138.894 57.6385 138.139 57.4317 137.801 56.8383C137.463 56.2448 137.67 55.4896 138.263 55.1513L150.014 48.453Z" fill="#F5F5F5"/>
<path d="M153.335 55.5228C153.958 55.2445 154.69 55.5245 154.968 56.1483C155.246 56.7721 154.966 57.5034 154.343 57.7817L149.342 60.0129C148.719 60.2912 147.987 60.0111 147.709 59.3874C147.431 58.7636 147.711 58.0323 148.334 57.7539L153.335 55.5228Z" fill="#F5F5F5"/>
<path d="M158.381 69.9764C159.048 69.8296 159.707 70.2513 159.854 70.9184C160.001 71.5854 159.579 72.2453 158.912 72.3922L153.565 73.5695C152.898 73.7164 152.238 73.2947 152.091 72.6276C151.944 71.9605 152.366 71.3007 153.033 71.1538L158.381 69.9764Z" fill="#F5F5F5"/>
<path d="M157.733 108.529C158.385 108.732 158.75 109.425 158.547 110.077C158.345 110.729 157.652 111.094 156.999 110.892L144.081 106.882C143.429 106.679 143.064 105.986 143.266 105.334C143.469 104.682 144.162 104.317 144.814 104.519L157.733 108.529Z" fill="#F5F5F5"/>
<path d="M151.829 122.741C152.431 123.064 152.657 123.814 152.334 124.416C152.012 125.018 151.262 125.244 150.66 124.921L138.74 118.527C138.138 118.204 137.912 117.454 138.235 116.852C138.558 116.25 139.308 116.024 139.91 116.347L151.829 122.741Z" fill="#F5F5F5"/>
<path d="M160.481 93.2281C161.16 93.2979 161.654 93.9053 161.585 94.5848C161.515 95.2643 160.907 95.7585 160.228 95.6888L146.772 94.3073C146.093 94.2375 145.598 93.6301 145.668 92.9507C145.738 92.2712 146.345 91.7769 147.025 91.8466L160.481 93.2281Z" fill="#F5F5F5"/>
<path d="M159.072 100.911C159.742 101.047 160.174 101.7 160.038 102.369C159.901 103.039 159.248 103.471 158.579 103.335L153.213 102.243C152.544 102.107 152.112 101.454 152.248 100.785C152.384 100.115 153.037 99.683 153.707 99.8192L159.072 100.911Z" fill="#F5F5F5"/>
<path d="M154.775 115.604C155.403 115.873 155.695 116.599 155.427 117.228C155.159 117.856 154.432 118.147 153.804 117.879L148.768 115.728C148.14 115.46 147.848 114.733 148.117 114.105C148.385 113.477 149.112 113.185 149.74 113.454L154.775 115.604Z" fill="#F5F5F5"/>
<path d="M131.062 145.972C131.464 146.524 131.344 147.297 130.792 147.7C130.241 148.103 129.467 147.983 129.064 147.431L121.086 136.508C120.683 135.957 120.803 135.183 121.355 134.78C121.906 134.377 122.68 134.498 123.083 135.049L131.062 145.972Z" fill="#F5F5F5"/>
<path d="M117.847 153.86C118.138 154.478 117.872 155.214 117.254 155.505C116.636 155.796 115.899 155.53 115.609 154.912L109.854 142.671C109.563 142.052 109.829 141.316 110.447 141.025C111.065 140.735 111.802 141 112.092 141.618L117.847 153.86Z" fill="#F5F5F5"/>
<path d="M142.392 135.328C142.896 135.79 142.931 136.572 142.469 137.076C142.008 137.58 141.226 137.614 140.722 137.153L130.745 128.019C130.241 127.558 130.207 126.776 130.668 126.272C131.129 125.768 131.911 125.734 132.415 126.195L142.392 135.328Z" fill="#F5F5F5"/>
<path d="M136.68 140.655C137.136 141.164 137.094 141.946 136.585 142.402C136.077 142.858 135.295 142.816 134.839 142.307L131.183 138.231C130.727 137.723 130.769 136.941 131.278 136.485C131.786 136.028 132.568 136.071 133.024 136.579L136.68 140.655Z" fill="#F5F5F5"/>
<path d="M124.468 149.888C124.812 150.478 124.613 151.235 124.023 151.579C123.433 151.923 122.676 151.724 122.332 151.134L119.572 146.405C119.228 145.815 119.427 145.058 120.017 144.713C120.607 144.369 121.364 144.568 121.709 145.158L124.468 149.888Z" fill="#F5F5F5"/>
<path d="M110.435 156.357C110.654 157.004 110.306 157.706 109.659 157.924C109.012 158.143 108.31 157.795 108.092 157.148L106.341 151.96C106.123 151.312 106.47 150.611 107.118 150.392C107.765 150.174 108.466 150.522 108.685 151.169L110.435 156.357Z" fill="#F5F5F5"/>
<path d="M65.1274 156.929C64.8907 157.57 64.1794 157.897 63.5386 157.661C62.8979 157.424 62.5704 156.712 62.8071 156.072L64.7048 150.936C64.9415 150.295 65.6528 149.967 66.2936 150.204C66.9343 150.441 67.2618 151.152 67.0251 151.793L65.1274 156.929Z" fill="#F5F5F5"/>
<path d="M27.483 131.101C26.9336 131.507 26.1592 131.39 25.7534 130.841C25.3475 130.291 25.4639 129.517 26.0133 129.111L30.4175 125.858C30.9669 125.452 31.7413 125.568 32.1471 126.118C32.553 126.667 32.4366 127.441 31.8872 127.847L27.483 131.101Z" fill="#F5F5F5"/>
<path d="M12.7005 87.7893C12.0184 87.7533 11.4946 87.1711 11.5306 86.489C11.5666 85.8069 12.1488 85.2831 12.8309 85.3192L18.2988 85.6078C18.9809 85.6438 19.5047 86.2259 19.4687 86.908C19.4327 87.5901 18.8505 88.1139 18.1684 88.0779L12.7005 87.7893Z" fill="#F5F5F5"/>
<path d="M87.449 160.769C87.4515 161.452 86.8998 162.007 86.2167 162.01C85.5337 162.012 84.9779 161.461 84.9754 160.778L84.9259 147.251C84.9234 146.568 85.4751 146.012 86.1582 146.01C86.8412 146.007 87.397 146.559 87.3995 147.242L87.449 160.769Z" fill="#F5F5F5"/>
<path d="M72.1206 159.399C71.9931 160.07 71.3457 160.511 70.6747 160.384C70.0036 160.256 69.563 159.609 69.6905 158.938L72.2152 145.649C72.3427 144.978 72.9901 144.537 73.6611 144.665C74.3322 144.792 74.7728 145.44 74.6453 146.111L72.1206 159.399Z" fill="#F5F5F5"/>
<path d="M102.87 158.801C103.007 159.47 102.576 160.123 101.907 160.261C101.237 160.398 100.584 159.967 100.447 159.298L97.7287 146.047C97.5914 145.378 98.0226 144.724 98.6917 144.587C99.3609 144.45 100.015 144.881 100.152 145.55L102.87 158.801Z" fill="#F5F5F5"/>
<path d="M95.1184 159.761C95.1893 160.441 94.696 161.049 94.0166 161.12C93.3372 161.191 92.729 160.697 92.6582 160.018L92.0901 154.572C92.0192 153.893 92.5125 153.284 93.1919 153.214C93.8713 153.143 94.4795 153.636 94.5503 154.315L95.1184 159.761Z" fill="#F5F5F5"/>
<path d="M79.8124 160.069C79.7449 160.749 79.1391 161.245 78.4594 161.178C77.7797 161.11 77.2834 160.504 77.351 159.825L77.8924 154.376C77.9599 153.696 78.5657 153.2 79.2454 153.268C79.9251 153.335 80.4213 153.941 80.3538 154.621L79.8124 160.069Z" fill="#F5F5F5"/>
<path d="M44.0063 147.606C43.6091 148.162 42.8366 148.29 42.2809 147.893C41.7252 147.496 41.5966 146.724 41.9938 146.168L49.8588 135.163C50.256 134.607 51.0285 134.479 51.5842 134.876C52.1399 135.273 52.2684 136.046 51.8713 136.601L44.0063 147.606Z" fill="#F5F5F5"/>
<path d="M32.3682 137.537C31.8726 138.007 31.0898 137.986 30.6198 137.49C30.1498 136.995 30.1705 136.212 30.6662 135.742L40.4812 126.434C40.9768 125.964 41.7597 125.985 42.2297 126.481C42.6997 126.976 42.6789 127.759 42.1833 128.229L32.3682 137.537Z" fill="#F5F5F5"/>
<path d="M57.6694 155.022C57.3897 155.645 56.6578 155.923 56.0346 155.643C55.4115 155.364 55.133 154.632 55.4127 154.009L60.9513 141.668C61.231 141.045 61.9629 140.767 62.5861 141.046C63.2092 141.326 63.4877 142.058 63.208 142.681L57.6694 155.022Z" fill="#F5F5F5"/>
<path d="M50.8182 151.271C50.4787 151.864 49.7229 152.069 49.1303 151.729C48.5376 151.39 48.3324 150.634 48.6719 150.041L51.3937 145.29C51.7333 144.698 52.489 144.492 53.0817 144.832C53.6744 145.171 53.8796 145.927 53.54 146.52L50.8182 151.271Z" fill="#F5F5F5"/>
<path d="M38.2182 142.576C37.7662 143.088 36.9846 143.136 36.4725 142.684C35.9605 142.232 35.9118 141.451 36.3638 140.939L39.9875 136.834C40.4396 136.322 41.2212 136.273 41.7332 136.725C42.2453 137.177 42.294 137.959 41.8419 138.471L38.2182 142.576Z" fill="#F5F5F5"/>
<path d="M16.0013 111.062C15.355 111.283 14.6518 110.938 14.4305 110.292C14.2092 109.646 14.5537 108.943 15.1999 108.721L27.9969 104.34C28.6431 104.118 29.3464 104.463 29.5677 105.109C29.7889 105.755 29.4445 106.458 28.7982 106.68L16.0013 111.062Z" fill="#F5F5F5"/>
<path d="M12.3855 96.103C11.709 96.1973 11.0841 95.7253 10.9898 95.0488C10.8956 94.3723 11.3675 93.7474 12.0441 93.6531L25.441 91.7858C26.1175 91.6915 26.7424 92.1635 26.8367 92.84C26.9309 93.5165 26.459 94.1414 25.7824 94.2357L12.3855 96.103Z" fill="#F5F5F5"/>
<path d="M22.8075 125.038C22.2177 125.383 21.4603 125.184 21.1158 124.594C20.7714 124.004 20.9703 123.247 21.5601 122.902L33.2407 116.081C33.8306 115.737 34.588 115.936 34.9324 116.525C35.2769 117.115 35.0779 117.873 34.4881 118.217L22.8075 125.038Z" fill="#F5F5F5"/>
<path d="M19.4133 118.004C18.7925 118.289 18.0583 118.016 17.7734 117.395C17.4886 116.775 17.7609 116.04 18.3817 115.756L23.3584 113.472C23.9792 113.187 24.7134 113.46 24.9983 114.08C25.2831 114.701 25.0108 115.435 24.39 115.72L19.4133 118.004Z" fill="#F5F5F5"/>
<path d="M14.2161 103.604C13.5506 103.758 12.8864 103.343 12.7325 102.677C12.5787 102.012 12.9934 101.348 13.6589 101.194L18.9937 99.9604C19.6592 99.8065 20.3235 100.221 20.4773 100.887C20.6312 101.552 20.2164 102.217 19.5509 102.37L14.2161 103.604Z" fill="#F5F5F5"/>
<path d="M15.8461 64.8714C15.1945 64.6663 14.8327 63.9719 15.0378 63.3203C15.2429 62.6688 15.9374 62.3069 16.5889 62.512L29.491 66.5741C30.1425 66.7792 30.5044 67.4737 30.2993 68.1252C30.0942 68.7767 29.3997 69.1386 28.7482 68.9335L15.8461 64.8714Z" fill="#F5F5F5"/>
<path d="M21.8071 50.6834C21.2065 50.3581 20.9833 49.6074 21.3087 49.0068C21.634 48.4062 22.3846 48.1831 22.9852 48.5084L34.8789 54.9508C35.4795 55.2762 35.7026 56.0268 35.3773 56.6274C35.052 57.228 34.3014 57.4512 33.7008 57.1258L21.8071 50.6834Z" fill="#F5F5F5"/>
<path d="M13.0363 80.1612C12.3571 80.0887 11.8653 79.4793 11.9378 78.8001C12.0103 78.1209 12.6197 77.6291 13.2989 77.7016L26.7489 79.1376C27.4281 79.2101 27.9199 79.8195 27.8474 80.4986C27.7749 81.1778 27.1655 81.6697 26.4863 81.5971L13.0363 80.1612Z" fill="#F5F5F5"/>
<path d="M14.4758 72.4844C13.807 72.3455 13.3774 71.6908 13.5163 71.022C13.6551 70.3532 14.3099 69.9236 14.9787 70.0625L20.3399 71.1757C21.0087 71.3146 21.4382 71.9693 21.2994 72.6381C21.1605 73.3069 20.5058 73.7365 19.837 73.5976L14.4758 72.4844Z" fill="#F5F5F5"/>
<path d="M18.8321 57.8082C18.2051 57.5374 17.9163 56.8095 18.1871 56.1824C18.458 55.5553 19.1859 55.2666 19.8129 55.5374L24.8397 57.7085C25.4667 57.9793 25.7555 58.7072 25.4847 59.3343C25.2138 59.9613 24.4859 60.2501 23.8589 59.9793L18.8321 57.8082Z" fill="#F5F5F5"/>
<path d="M26.2931 44.2767C25.7334 43.8852 25.5971 43.114 25.9886 42.5544C26.3802 41.9947 27.1513 41.8583 27.711 42.2499L32.1977 45.3886C32.7573 45.7802 32.8937 46.5513 32.5021 47.111C32.1106 47.6707 31.3394 47.807 30.7797 47.4155L26.2931 44.2767Z" fill="#F5F5F5"/>
<path d="M62.4322 16.9433C62.2428 16.2871 62.6212 15.6015 63.2775 15.4121C63.9338 15.2226 64.6193 15.6011 64.8088 16.2573L66.3273 21.5181C66.5167 22.1744 66.1382 22.86 65.482 23.0494C64.8257 23.2388 64.1401 22.8604 63.9507 22.2041L62.4322 16.9433Z" fill="#F5F5F5"/>
<path d="M42.1834 27.0912C41.7763 26.5428 41.8908 25.7681 42.4393 25.361C42.9877 24.9538 43.7624 25.0684 44.1695 25.6169L52.232 36.4778C52.6392 37.0263 52.5246 37.801 51.9762 38.2081C51.4277 38.6152 50.653 38.5007 50.2459 37.9522L42.1834 27.0912Z" fill="#F5F5F5"/>
<path d="M55.3366 19.1021C55.0413 18.4862 55.3011 17.7474 55.917 17.4521C56.5329 17.1567 57.2716 17.4166 57.567 18.0325L63.416 30.2289C63.7113 30.8448 63.4515 31.5836 62.8356 31.8789C62.2197 32.1743 61.4809 31.9144 61.1856 31.2985L55.3366 19.1021Z" fill="#F5F5F5"/>
<path d="M30.9351 37.8218C30.4277 37.3645 30.3871 36.5825 30.8445 36.0751C31.3018 35.5677 32.0838 35.5272 32.5912 35.9845L42.6385 45.0408C43.1459 45.4981 43.1864 46.2801 42.7291 46.7875C42.2718 47.2949 41.4897 47.3354 40.9824 46.8781L30.9351 37.8218Z" fill="#F5F5F5"/>
<path d="M36.606 32.451C36.146 31.946 36.1824 31.1638 36.6874 30.7038C37.1923 30.2438 37.9745 30.2802 38.4345 30.7852L42.122 34.8329C42.582 35.3379 42.5456 36.1201 42.0406 36.5801C41.5357 37.0401 40.7534 37.0037 40.2934 36.4987L36.606 32.451Z" fill="#F5F5F5"/>
<path d="M48.7465 23.1248C48.3977 22.5375 48.5911 21.7787 49.1784 21.4299C49.7657 21.0812 50.5245 21.2745 50.8733 21.8618L53.6691 26.5698C54.0179 27.1571 53.8245 27.916 53.2372 28.2647C52.6499 28.6135 51.891 28.4201 51.5423 27.8328L48.7465 23.1248Z" fill="#F5F5F5"/>
<path d="M141.158 34.561L77.0059 77.4218L86.4765 86.8927L141.158 34.561Z" fill="#F05454"/>
<path d="M95.9472 96.3637L133.463 45.0798L141.158 34.561L86.4765 86.8927L95.9472 96.3637Z" fill="#BB3A3A"/>
<path d="M77.0059 77.4218L31.5176 138.948L86.4765 86.8927L77.0059 77.4218Z" fill="#F5F5F5"/>
<path d="M31.5176 138.948L45.3555 129.802L95.9472 96.3637L86.4765 86.8927L31.5176 138.948Z" fill="#C1C1C1"/>
<path d="M95.9472 96.3637L141.158 40.3245L133.463 45.0798L95.9472 96.3637Z" fill="#1C1C1C" fill-opacity="0.46"/>
<path d="M39.9615 140.347L95.9472 96.3637L45.3555 129.802L39.9615 140.347Z" fill="#3C3C3C" fill-opacity="0.63"/>
<defs>
<radialGradient id="paint0_radial_254_212" cx="0" cy="0" r="1" gradientUnits="userSpaceOnUse" gradientTransform="translate(86.6475 86.8262) rotate(90) scale(86.5)">
<stop offset="0.520833" stop-color="#4D6985"/>
<stop offset="1" stop-color="#334F6B"/>
</radialGradient>
</defs>
</svg>
