<svg width="177" height="194" viewBox="0 0 177 194" fill="none" xmlns="http://www.w3.org/2000/svg">
<circle cx="89.7275" cy="87.0845" r="86.5" fill="#D5D5D5"/>
<circle cx="88.4912" cy="87.1768" r="79.5" fill="#3C556F"/>
<circle cx="88.4912" cy="87.1768" r="79.5" fill="url(#paint0_radial_207_346)"/>
<rect x="88.4912" y="11.4922" width="2.47357" height="16" rx="1.23678" fill="#F5F5F5"/>
<rect x="104.05" y="12.9399" width="2.47357" height="16" rx="1.23678" transform="rotate(10.9673 104.05 12.9399)" fill="#F5F5F5"/>
<rect x="72.8193" y="13.428" width="2.47357" height="16" rx="1.23678" transform="rotate(-11.3818 72.8193 13.428)" fill="#F5F5F5"/>
<rect x="80.6943" y="12.4775" width="2.47357" height="7.94911" rx="1.23678" transform="rotate(-5.74545 80.6943 12.4775)" fill="#F5F5F5"/>
<rect x="96.252" y="12.2258" width="2.47357" height="7.94911" rx="1.23678" transform="rotate(5.88408 96.252 12.2258)" fill="#F5F5F5"/>
<rect x="111.645" y="15.3296" width="2.47357" height="7.94911" rx="1.23678" transform="rotate(17.4997 111.645 15.3296)" fill="#F5F5F5"/>
<rect x="149.228" y="42.0879" width="2.47357" height="7.94911" rx="1.23678" transform="rotate(56.4236 149.228 42.0879)" fill="#F5F5F5"/>
<rect x="164.598" y="85.8264" width="2.47357" height="7.94911" rx="1.23678" transform="rotate(89.6924 164.598 85.8264)" fill="#F5F5F5"/>
<rect x="150.71" y="130.308" width="2.47357" height="7.94911" rx="1.23678" transform="rotate(129.168 150.71 130.308)" fill="#F5F5F5"/>
<rect x="133.163" y="25.5037" width="2.47357" height="16" rx="1.23678" transform="rotate(35.9364 133.163 25.5037)" fill="#F5F5F5"/>
<rect x="144.91" y="35.8071" width="2.47357" height="16" rx="1.23678" transform="rotate(46.9037 144.91 35.8071)" fill="#F5F5F5"/>
<rect x="119.338" y="17.8735" width="2.47357" height="16" rx="1.23678" transform="rotate(24.5546 119.338 17.8735)" fill="#F5F5F5"/>
<rect x="126.271" y="21.7256" width="2.47357" height="7.94911" rx="1.23678" transform="rotate(30.1909 126.271 21.7256)" fill="#F5F5F5"/>
<rect x="139.016" y="30.6523" width="2.47357" height="7.94911" rx="1.23678" transform="rotate(41.8205 139.016 30.6523)" fill="#F5F5F5"/>
<rect x="160.928" y="62.3701" width="2.47357" height="16" rx="1.23678" transform="rotate(71.699 160.928 62.3701)" fill="#F5F5F5"/>
<rect x="164.438" y="77.5964" width="2.47357" height="16" rx="1.23678" transform="rotate(82.6663 164.438 77.5964)" fill="#F5F5F5"/>
<rect x="154.169" y="48.0989" width="2.47357" height="16" rx="1.23678" transform="rotate(60.3172 154.169 48.0989)" fill="#F5F5F5"/>
<rect x="157.544" y="55.2771" width="2.47357" height="7.94911" rx="1.23678" transform="rotate(65.9535 157.544 55.2771)" fill="#F5F5F5"/>
<rect x="162.668" y="69.9688" width="2.47357" height="7.94911" rx="1.23678" transform="rotate(77.5831 162.668 69.9688)" fill="#F5F5F5"/>
<rect x="161.994" y="109.154" width="2.47357" height="16" rx="1.23678" transform="rotate(107.244 161.994 109.154)" fill="#F5F5F5"/>
<rect x="155.999" y="123.584" width="2.47357" height="16" rx="1.23678" transform="rotate(118.211 155.999 123.584)" fill="#F5F5F5"/>
<rect x="164.791" y="93.6128" width="2.47357" height="16" rx="1.23678" transform="rotate(95.862 164.791 93.6128)" fill="#F5F5F5"/>
<rect x="163.364" y="101.416" width="2.47357" height="7.94911" rx="1.23678" transform="rotate(101.498 163.364 101.416)" fill="#F5F5F5"/>
<rect x="158.992" y="116.348" width="2.47357" height="7.94911" rx="1.23678" transform="rotate(113.128 158.992 116.348)" fill="#F5F5F5"/>
<rect x="134.871" y="147.229" width="2.47357" height="16" rx="1.23678" transform="rotate(143.854 134.871 147.229)" fill="#F5F5F5"/>
<rect x="121.453" y="155.237" width="2.47357" height="16" rx="1.23678" transform="rotate(154.821 121.453 155.237)" fill="#F5F5F5"/>
<rect x="146.385" y="136.422" width="2.47357" height="16" rx="1.23678" transform="rotate(132.472 146.385 136.422)" fill="#F5F5F5"/>
<rect x="140.586" y="141.834" width="2.47357" height="7.94911" rx="1.23678" transform="rotate(138.109 140.586 141.834)" fill="#F5F5F5"/>
<rect x="128.172" y="151.214" width="2.47357" height="7.94911" rx="1.23678" transform="rotate(149.738 128.172 151.214)" fill="#F5F5F5"/>
<rect x="113.911" y="157.787" width="2.47357" height="7.94911" rx="1.23678" transform="rotate(161.354 113.911 157.787)" fill="#F5F5F5"/>
<rect x="67.7783" y="158.347" width="2.47357" height="7.94911" rx="1.23678" transform="rotate(-159.722 67.7783 158.347)" fill="#F5F5F5"/>
<rect x="29.5684" y="132.094" width="2.47357" height="7.94911" rx="1.23678" transform="rotate(-126.454 29.5684 132.094)" fill="#F5F5F5"/>
<rect x="14.5449" y="87.9824" width="2.47357" height="7.94911" rx="1.23678" transform="rotate(-86.9784 14.5449 87.9824)" fill="#F5F5F5"/>
<rect x="90.5332" y="162.264" width="2.47357" height="16" rx="1.23678" transform="rotate(179.79 90.5332 162.264)" fill="#F5F5F5"/>
<rect x="74.9697" y="160.873" width="2.47357" height="16" rx="1.23678" transform="rotate(-169.242 74.9697 160.873)" fill="#F5F5F5"/>
<rect x="106.198" y="160.271" width="2.47357" height="16" rx="1.23678" transform="rotate(168.409 106.198 160.271)" fill="#F5F5F5"/>
<rect x="98.3262" y="161.25" width="2.47357" height="7.94911" rx="1.23678" transform="rotate(174.045 98.3262 161.25)" fill="#F5F5F5"/>
<rect x="82.7695" y="161.558" width="2.47357" height="7.94911" rx="1.23678" transform="rotate(-174.325 82.7695 161.558)" fill="#F5F5F5"/>
<rect x="46.3672" y="148.871" width="2.47357" height="16" rx="1.23678" transform="rotate(-144.447 46.3672 148.871)" fill="#F5F5F5"/>
<rect x="34.5508" y="138.646" width="2.47357" height="16" rx="1.23678" transform="rotate(-133.48 34.5508 138.646)" fill="#F5F5F5"/>
<rect x="60.2432" y="156.408" width="2.47357" height="16" rx="1.23678" transform="rotate(-155.829 60.2432 156.408)" fill="#F5F5F5"/>
<rect x="53.2832" y="152.603" width="2.47357" height="7.94911" rx="1.23678" transform="rotate(-150.192 53.2832 152.603)" fill="#F5F5F5"/>
<rect x="40.4795" y="143.761" width="2.47357" height="7.94911" rx="1.23678" transform="rotate(-138.563 40.4795 143.761)" fill="#F5F5F5"/>
<rect x="17.9111" y="111.721" width="2.47357" height="16" rx="1.23678" transform="rotate(-108.902 17.9111 111.721)" fill="#F5F5F5"/>
<rect x="14.2412" y="96.532" width="2.47357" height="16" rx="1.23678" transform="rotate(-97.9349 14.2412 96.532)" fill="#F5F5F5"/>
<rect x="24.8193" y="125.92" width="2.47357" height="16" rx="1.23678" transform="rotate(-120.284 24.8193 125.92)" fill="#F5F5F5"/>
<rect x="21.3691" y="118.778" width="2.47357" height="7.94911" rx="1.23678" transform="rotate(-114.648 21.3691 118.778)" fill="#F5F5F5"/>
<rect x="16.0908" y="104.141" width="2.47357" height="7.94911" rx="1.23678" transform="rotate(-103.018 16.0908 104.141)" fill="#F5F5F5"/>
<rect x="17.7461" y="64.7583" width="2.47357" height="16" rx="1.23678" transform="rotate(-72.5242 17.7461 64.7583)" fill="#F5F5F5"/>
<rect x="23.7998" y="50.3525" width="2.47357" height="16" rx="1.23678" transform="rotate(-61.5569 23.7998 50.3525)" fill="#F5F5F5"/>
<rect x="14.8867" y="80.2881" width="2.47357" height="16" rx="1.23678" transform="rotate(-83.906 14.8867 80.2881)" fill="#F5F5F5"/>
<rect x="16.3447" y="72.4912" width="2.47357" height="7.94911" rx="1.23678" transform="rotate(-78.2696 16.3447 72.4912)" fill="#F5F5F5"/>
<rect x="20.7764" y="57.5759" width="2.47357" height="7.94911" rx="1.23678" transform="rotate(-66.6401 20.7764 57.5759)" fill="#F5F5F5"/>
<rect x="28.3594" y="43.8259" width="2.47357" height="7.94911" rx="1.23678" transform="rotate(-55.0245 28.3594 43.8259)" fill="#F5F5F5"/>
<rect x="65.1689" y="16.0132" width="2.47357" height="7.94911" rx="1.23678" transform="rotate(-16.1006 65.1689 16.0132)" fill="#F5F5F5"/>
<rect x="44.5264" y="26.3564" width="2.47357" height="16" rx="1.23678" transform="rotate(-36.5878 44.5264 26.3564)" fill="#F5F5F5"/>
<rect x="57.8818" y="18.2451" width="2.47357" height="16" rx="1.23678" transform="rotate(-25.6205 57.8818 18.2451)" fill="#F5F5F5"/>
<rect x="33.0967" y="37.2522" width="2.47357" height="16" rx="1.23678" transform="rotate(-47.9696 33.0967 37.2522)" fill="#F5F5F5"/>
<rect x="38.8525" y="31.7949" width="2.47357" height="7.94911" rx="1.23678" transform="rotate(-42.3332 38.8525 31.7949)" fill="#F5F5F5"/>
<rect x="51.1943" y="22.3198" width="2.47357" height="7.94911" rx="1.23678" transform="rotate(-30.7037 51.1943 22.3198)" fill="#F5F5F5"/>
<path d="M144.238 34.8193L80.0859 77.6801L89.5566 87.151L144.238 34.8193Z" fill="#F05454"/>
<path d="M99.0272 96.622L136.544 45.3381L144.238 34.8193L89.5566 87.151L99.0272 96.622Z" fill="#BB3A3A"/>
<path d="M80.0859 77.6801L34.5977 139.206L89.5566 87.151L80.0859 77.6801Z" fill="#F5F5F5"/>
<path d="M34.5977 139.206L48.4356 130.06L99.0272 96.622L89.5566 87.151L34.5977 139.206Z" fill="#C1C1C1"/>
<path d="M99.0272 96.622L144.238 40.5828L136.544 45.3381L99.0272 96.622Z" fill="#1C1C1C" fill-opacity="0.46"/>
<path d="M43.0416 140.606L99.0272 96.622L48.4356 130.06L43.0416 140.606Z" fill="#3C3C3C" fill-opacity="0.63"/>
<defs>
<radialGradient id="paint0_radial_207_346" cx="0" cy="0" r="1" gradientUnits="userSpaceOnUse" gradientTransform="translate(88.4912 87.1768) rotate(90) scale(79.5)">
<stop offset="0.520833" stop-color="#4D6985"/>
<stop offset="1" stop-color="#334F6B"/>
</radialGradient>
</defs>
</svg>
